<?xml version="1.0" standalone="no"?>
<!DOCTYPE svg PUBLIC "-//W3C//DTD SVG 1.1//EN" "http://www.w3.org/Graphics/SVG/1.1/DTD/svg11.dtd" >
<svg>
<metadata>
Created by FontForge 20090914 at Sun Oct 17 11:56:06 2021
 By www-data
Copyright (c) 2015 by Letters from Sweden. All rights reserved. |DCNT
</metadata>
<defs>
<font id="LabGrotesque-Regular" horiz-adv-x="590" >
  <font-face 
    font-family="Lab Grotesque"
    font-weight="400"
    font-stretch="normal"
    units-per-em="1000"
    panose-1="0 0 5 0 0 0 0 0 0 0"
    ascent="750"
    descent="-250"
    x-height="492"
    cap-height="710"
    bbox="-416 -253.001 1742 938"
    underline-thickness="59"
    underline-position="-218"
    unicode-range="U+0020-U+FB02"
  />
<missing-glyph horiz-adv-x="579" 
d="M479 810v-910h-379v910h379z" />
    <glyph glyph-name="fi" unicode="fi" horiz-adv-x="554" 
d="M255 722c22.667 0 49 -3.99902 79 -11.999l-13 -66c-22.667 4 -40 6 -52 6c-27.333 0 -46.5 -6.83301 -57.5 -20.5s-16.5 -36.834 -16.5 -69.501v-68h123v-65h-123v-427h-86v427h-91v65h91v78c0 48.667 12.5 86.167 37.5 112.5s61.167 39.5 108.5 39.5zM400 692.001h86
v-103h-86v103zM400 0.000976562v492h86v-492h-86z" />
    <glyph glyph-name="fl" unicode="fl" horiz-adv-x="556" 
d="M255 722c22.667 0 49 -3.99902 79 -11.999l-13 -66c-22.667 4 -40 6 -52 6c-27.333 0 -46.5 -6.83301 -57.5 -20.5s-16.5 -36.834 -16.5 -69.501v-68h123v-65h-123v-427h-86v427h-91v65h91v78c0 48.667 12.5 86.167 37.5 112.5s61.167 39.5 108.5 39.5zM400 710.001h86
v-710h-86v710z" />
    <glyph glyph-name="f_f.liga" unicode="ff" horiz-adv-x="658" 
d="M195 564l0.000976562 -71.999h102v-65h-102v-427h-86v427h-91v65h91v82c0 48.667 12.667 86.167 38 112.5s62 39.5 110 39.5c30.667 0 63.667 -5.66699 99 -17l-17 -66c-30.667 7.33301 -53.334 11 -68.001 11c-27.333 0 -46.833 -6.83301 -58.5 -20.5
s-17.5 -36.834 -17.5 -69.501zM514.001 564.001l0.000976562 -71.999h123v-65h-123v-427h-86v427h-82v65h82v82c0 48.667 12.667 86.167 38 112.5s62 39.5 110 39.5c30.667 0 63.667 -5.66699 99 -17l-17 -66c-30.667 7.33301 -53.334 11 -68.001 11
c-27.333 0 -46.833 -6.83301 -58.5 -20.5s-17.5 -36.834 -17.5 -69.501z" />
    <glyph glyph-name="f_f_i.liga" unicode="ffi" horiz-adv-x="872" 
d="M195 561v-69h102v-65h-102v-427h-86v427h-91v65h91v78c0 48.667 12.667 86.167 38 112.5s62 39.5 110 39.5c30.667 0 63.667 -5.66699 99 -17l-17 -66c-26 7.33301 -48.667 11 -68 11c-27.333 0 -46.833 -6.83301 -58.5 -20.5s-17.5 -36.5 -17.5 -68.5zM573 722
c23.333 0 50 -3.99902 80 -11.999l-13 -66c-22.667 4 -40 6 -52 6c-27.333 0 -46.5 -6.83301 -57.5 -20.5s-16.5 -36.834 -16.5 -69.501v-68h123v-65h-123v-427h-86v427h-82v65h82v78c0 48.667 12.5 86.167 37.5 112.5s60.833 39.5 107.5 39.5zM719 692.001h86v-103h-86v103
zM719 0.000976562v492h86v-492h-86z" />
    <glyph glyph-name="f_f_j.liga" unicode="ffj" horiz-adv-x="872" 
d="M195 561v-69h102v-65h-102v-427h-86v427h-91v65h91v78c0 48.667 12.667 86.167 38 112.5s62 39.5 110 39.5c30.667 0 63.667 -5.66699 99 -17l-17 -66c-26 7.33301 -48.667 11 -68 11c-27.333 0 -46.833 -6.83301 -58.5 -20.5s-17.5 -36.5 -17.5 -68.5zM637 427
l-123 0.000976562v-427h-86v427h-82v65h82v78c0 48.667 12.5 86.167 37.5 112.5s60.833 39.5 107.5 39.5c23.333 0 50 -4 80 -12l-13 -66c-22.667 4 -40 6 -52 6c-27.333 0 -46.5 -6.83301 -57.5 -20.5s-16.5 -36.834 -16.5 -69.501v-68h123v-65zM719 692.001h86v-103h-86
v103zM719 -36.999l-0.000976562 529.001h86v-529c0 -102.667 -46.333 -154 -139 -154c-30.667 0 -62.667 5 -96 15l18 65c27.333 -6.66699 50 -10 68 -10c22.667 0 38.834 6.66699 48.501 20s14.5 34.666 14.5 63.999z" />
    <glyph glyph-name="f_j.liga" unicode="fj" horiz-adv-x="554" 
d="M318 427l-123 0.000976562v-427h-86v427h-91v65h91v78c0 48.667 12.5 86.167 37.5 112.5s61.167 39.5 108.5 39.5c22.667 0 49 -4 79 -12l-13 -66c-22.667 4 -40 6 -52 6c-27.333 0 -46.5 -6.83301 -57.5 -20.5s-16.5 -36.834 -16.5 -69.501v-68h123v-65zM400 692.001h86
v-103h-86v103zM400 -36.999l0.000976562 529h86v-530c0 -102 -46.333 -153 -139 -153c-34 0 -65.667 5 -95 15l17 65c27.333 -6.66699 50 -10 68 -10c23.333 0 39.666 6.5 48.999 19.5s14 34.5 14 64.5z" />
    <glyph glyph-name=".notdef" horiz-adv-x="579" 
d="M479 810v-910h-379v910h379z" />
    <glyph glyph-name="space" unicode=" " horiz-adv-x="227" 
 />
    <glyph glyph-name="exclam" unicode="!" horiz-adv-x="273" 
d="M188 710v-213l-20 -296h-53l-20 296v213h93zM193 108v-108h-103v108h103z" />
    <glyph glyph-name="quotedbl" unicode="&#x22;" horiz-adv-x="375" 
d="M139 710l-9 -234h-64l-9 234h82zM317 710l-9 -234h-64l-9 234h82z" />
    <glyph glyph-name="numbersign" unicode="#" 
d="M568 436h-99l-40 -190h98l-13 -61h-98l-39 -185h-70l39 185h-155l-39 -185h-70l39 185h-100l13 61h100l40 190h-99l13 61h99l39 183h70l-39 -183h155l39 183h70l-39 -183h99zM359 246l40 190h-155l-40 -190h155z" />
    <glyph glyph-name="dollar" unicode="$" horiz-adv-x="610" 
d="M341 -14l-0.00195312 -85.999h-66v86c-44.667 3.33301 -85.667 14 -123 32s-76.666 45.667 -117.999 83l54 59c66.667 -58 129 -90.333 187 -97v260c-80 22 -134.667 45.667 -164 71s-44 63.333 -44 114c0 50 19.833 92.333 59.5 127s89.167 54.667 148.5 60v85h66v-86
c74.667 -6.66699 144.334 -39 209.001 -97l-54 -60c-50.667 47.333 -102.334 74.333 -155.001 81v-231c78 -19.333 132.833 -43.833 164.5 -73.5s47.5 -71.167 47.5 -124.5c0 -56.667 -19.333 -103.334 -58 -140.001c-39.333 -37.333 -90.666 -58.333 -153.999 -63z
M274.998 405.001v214.002c-38 -4.66699 -68.167 -16.834 -90.5 -36.501s-33.5 -43.834 -33.5 -72.501c0 -27.333 9.16699 -48.5 27.5 -63.5s50.5 -28.833 96.5 -41.5zM467.998 186.003c0 31.333 -9.83301 55.832 -29.5 73.499s-52.167 32.834 -97.5 45.501v-242
c38.667 4 69.5 17 92.5 39s34.5 50 34.5 84z" />
    <glyph glyph-name="percent" unicode="%" horiz-adv-x="858" 
d="M642 695l54 -33l-476 -677l-53 34zM801 150c0 -46.667 -14.833 -85 -44.5 -115s-66.5 -45 -110.5 -45s-80.833 15 -110.5 45s-44.5 68.333 -44.5 115c0 46 14.833 84 44.5 114s66.5 45 110.5 45s80.833 -15 110.5 -45s44.5 -68 44.5 -114zM557 150
c0 -30.667 8 -55.334 24 -74.001s37.667 -28 65 -28s49 9.33301 65 28s24 43.334 24 74.001c0 29.333 -8.16699 53.5 -24.5 72.5s-37.833 28.5 -64.5 28.5s-48.167 -9.5 -64.5 -28.5s-24.5 -43.167 -24.5 -72.5zM367 532c0 -46.667 -14.833 -85 -44.5 -115
s-66.5 -45 -110.5 -45s-80.833 15 -110.5 45s-44.5 68.333 -44.5 115c0 46 14.833 84 44.5 114s66.5 45 110.5 45s80.833 -15 110.5 -45s44.5 -68 44.5 -114zM123 532c0 -30.667 8 -55.334 24 -74.001s37.667 -28 65 -28s49 9.33301 65 28s24 43.334 24 74.001
c0 29.333 -8.16699 53.5 -24.5 72.5s-37.833 28.5 -64.5 28.5s-48.167 -9.5 -64.5 -28.5s-24.5 -43.167 -24.5 -72.5z" />
    <glyph glyph-name="ampersand" unicode="&#x26;" horiz-adv-x="699" 
d="M692 0h-106.002l-86 100c-34.667 -39.333 -69.834 -68.333 -105.501 -87s-77.5 -28 -125.5 -28c-65.333 0 -118.666 18 -159.999 54s-62 81.333 -62 136c0 50 14.333 91.667 43 125c28.667 34 77 70.333 145 109c-27.333 32 -47.166 60.167 -59.499 84.5
s-18.5 49.833 -18.5 76.5c0 43.333 16.833 79.5 50.5 108.5s74.834 43.5 123.501 43.5c49.333 0 90 -14 122 -42s48 -62.667 48 -104c0 -37.333 -10.333 -69.333 -31 -96c-20 -26.667 -57.667 -56.667 -113 -90l143 -167l102 127l62 -45l-112 -142zM238.998 569
c0 -18.667 5.33398 -36.832 16.001 -54.499s28.667 -40.834 54 -69.501c45.333 26 74.666 47.667 87.999 65c16 18.667 24 40.667 24 66c0 24 -8.66699 43.5 -26 58.5s-39 22.5 -65 22.5s-47.833 -8.16699 -65.5 -24.5s-26.167 -37.5 -25.5 -63.5zM448.999 160.002l-167 195
c-56 -33.333 -94.667 -62.333 -116 -87c-21.333 -25.333 -32 -54.333 -32 -87c0 -36.667 13 -66.5 39 -89.5s59.333 -34.5 100 -34.5c34 0 64 8 90 24s54.667 42.333 86 79z" />
    <glyph glyph-name="quotesingle" unicode="'" horiz-adv-x="196" 
d="M139 710l-9 -234h-64l-9 234h82z" />
    <glyph glyph-name="parenleft" unicode="(" horiz-adv-x="337" 
d="M275 783l55 -46c-58 -71.333 -101 -140.333 -129 -207s-42 -141 -42 -223s14 -156.667 42 -224c28.667 -65.333 71.667 -134 129 -206l-55 -46c-64.667 72 -114.334 145 -149.001 219s-52 159.667 -52 257s17.333 183 52 257s84.334 147 149.001 219z" />
    <glyph glyph-name="parenright" unicode=")" horiz-adv-x="337" 
d="M62 -168l-55 46.001c58 72 101 141 129 207c28 67.333 42 141.666 42 222.999c0 82.667 -14.333 157 -43 223c-27.333 66 -70 135 -128 207l55 46c67.333 -74 117.833 -148.667 151.5 -224s50.5 -159.333 50.5 -252c0 -92 -16.833 -175.833 -50.5 -251.5
s-84.167 -150.5 -151.5 -224.5z" />
    <glyph glyph-name="asterisk" unicode="*" horiz-adv-x="436" 
d="M247 710v-134l124 42l18 -51l-128 -41l84 -108l-45 -34l-84 111l-80 -109l-46 35l85 105l-128 42l17 51l124 -43v134h59z" />
    <glyph glyph-name="plus" unicode="+" horiz-adv-x="600" 
d="M338 570v-223h222v-74h-222v-223h-76v223h-222v74h222v223h76z" />
    <glyph glyph-name="comma" unicode="," horiz-adv-x="216" 
d="M165 108v-108l-61 -125h-52l55 125h-50v108h108z" />
    <glyph glyph-name="hyphen" unicode="-" horiz-adv-x="405" 
d="M348 326v-77h-291v77h291z" />
    <glyph glyph-name="period" unicode="." horiz-adv-x="216" 
d="M159 108v-108h-102v108h102z" />
    <glyph glyph-name="slash" unicode="/" horiz-adv-x="438" 
d="M416 710l-310 -710h-84l310 710h84z" />
    <glyph glyph-name="zero" unicode="0" 
d="M502 570c32 -62 48 -138.667 48 -230s-16 -168 -48 -230c-43.333 -84 -112.333 -126 -207 -126s-163.667 42 -207 126c-32 62 -48 138.667 -48 230s16 168 48 230c43.333 84 112.333 126 207 126s163.667 -42 207 -126zM166 532c-24 -49.333 -36 -113.333 -36 -192
s12 -142.667 36 -192c28 -58.667 71 -88 129 -88s101 29.333 129 88c24 49.333 36 113.333 36 192s-12 142.667 -36 192c-28 58.667 -71 88 -129 88s-101 -29.333 -129 -88z" />
    <glyph glyph-name="one" unicode="1" horiz-adv-x="460" 
d="M243 680h67v-680h-88v568l-144 -102l-44 61z" />
    <glyph glyph-name="two" unicode="2" horiz-adv-x="572" 
d="M131 75l396 -0.00195312v-75h-486v33c0 46 8.66699 85.667 26 119c18 33.333 40 60.333 66 81c32 24.667 69.333 50 112 76l50 29c34.667 20 60.334 35.667 77.001 47c42.667 31.333 64 70 64 116c0 37.333 -12.333 66.5 -37 87.5s-56.334 31.5 -95.001 31.5
s-72.334 -9.33301 -101.001 -28c-29.333 -19.333 -61.333 -50.666 -96 -93.999l-65 46c70 101.333 156.667 152 260 152c66.667 0 120.5 -18.167 161.5 -54.5s61.5 -82.166 61.5 -137.499c0 -38.667 -8 -71.667 -24 -99c-15.333 -26.667 -35.333 -49 -60 -67
c-21.333 -16.667 -53.666 -37.667 -96.999 -63l-47 -28l-19 -11c-32 -19.333 -57.667 -36 -77 -50c-40.667 -30 -64 -67 -70 -111z" />
    <glyph glyph-name="three" unicode="3" horiz-adv-x="575" 
d="M522 206c0 -58.667 -21.668 -110.333 -65.001 -155s-101.666 -67 -174.999 -67c-84.667 0 -168.667 28 -252 84l45 65c42.667 -26.667 79 -45.5 109 -56.5s61.667 -16.5 95 -16.5c46 0 83.167 13.5 111.5 40.5s42.5 61.833 42.5 104.5c0 42 -14.333 74.833 -43 98.5
s-68.667 35.5 -120 35.5c-34 0 -61 -4.33301 -81 -13l-41 56l244 223h-328v75h438v-73l-220 -200h13c66 0 120.333 -18 163 -54s64 -85 64 -147z" />
    <glyph glyph-name="four" unicode="4" horiz-adv-x="580" 
d="M460 232h102v-73h-102v-159h-86v159h-345v80l282 441h98l-286 -448h251v155h86v-155z" />
    <glyph glyph-name="five" unicode="5" horiz-adv-x="587" 
d="M535 222c0 -64.667 -22.668 -120.501 -68.001 -167.501s-103.333 -70.5 -174 -70.5c-48 0 -91 6.66699 -129 20c-33.333 12 -76 35.333 -128 70l44 65c47.333 -31.333 84 -52 110 -62c30 -11.333 61.667 -17 95 -17c47.333 0 86 15.167 116 45.5s45 67.833 45 112.5
s-13.5 80.334 -40.5 107.001s-64.167 40 -111.5 40c-56 0 -102.333 -18 -139 -54l-77 8l30 361h395v-75h-320l-17 -211c38 30 86 45 144 45c66.667 0 120.834 -20.333 162.501 -61s62.5 -92.667 62.5 -156z" />
    <glyph glyph-name="six" unicode="6" horiz-adv-x="589" 
d="M549 217c0 -64 -22.5 -118.667 -67.5 -164s-104.5 -68 -178.5 -68c-77.333 0 -138.5 24.667 -183.5 74s-67.5 113 -67.5 191c0 69.333 17.333 134.333 52 195s87 123.667 157 189l49 46h118v-1l-108 -99c-74.667 -68 -127 -133.333 -157 -196
c38.667 40.667 91.667 61 159 61s122 -22 164 -66s63 -98 63 -162zM460 216c0 45.333 -13.832 82.5 -41.499 111.5s-64.834 43.5 -111.501 43.5c-49.333 0 -89 -14.5 -119 -43.5s-45 -66.167 -45 -111.5c0 -44 14.667 -81.333 44 -112c29.333 -29.333 68 -44 116 -44
c47.333 0 85.333 14.5 114 43.5s43 66.5 43 112.5z" />
    <glyph glyph-name="seven" unicode="7" horiz-adv-x="535" 
d="M24 680l488 -0.000976562v-64c-66 -82 -125 -178 -177 -288c-52 -110.667 -85.333 -220 -100 -328h-96c14 102.667 46.333 207.334 97 314.001c50.667 108 108.667 205.333 174 292h-386v74z" />
    <glyph glyph-name="eight" unicode="8" horiz-adv-x="589" 
d="M550 187c0 -58.667 -23.168 -107.168 -69.501 -145.501s-108.5 -57.5 -186.5 -57.5c-77.333 0 -139.166 19.167 -185.499 57.5s-69.5 86.833 -69.5 145.5c0 42.667 11.333 79.834 34 111.501s54.667 55.167 96 70.5c-63.333 30.667 -95 80 -95 148
c0 53.333 20.333 96.5 61 129.5s93.667 49.5 159 49.5c66 0 119.333 -16.5 160 -49.5s61 -76.167 61 -129.5c0 -68 -32 -117.333 -96 -148c42 -16 74.333 -39.833 97 -71.5s34 -68.5 34 -110.5zM158.999 514.999c0 -33.333 12.501 -60.666 37.501 -81.999s57.5 -32 97.5 -32
c40.667 0 73.5 10.667 98.5 32s37.5 48.666 37.5 81.999c0 32.667 -12.333 59.167 -37 79.5s-57.667 30.5 -99 30.5c-40.667 0 -73.334 -10.167 -98.001 -30.5s-37 -46.833 -37 -79.5zM460 191.999c0 42 -14.833 75.667 -44.5 101s-70.167 38 -121.5 38
c-50 0 -90 -12.667 -120 -38s-45 -59 -45 -101c0 -39.333 15 -71.5 45 -96.5s70 -37.5 120 -37.5c50.667 0 91 12.5 121 37.5s45 57.167 45 96.5z" />
    <glyph glyph-name="nine" unicode="9" horiz-adv-x="589" 
d="M537 430c0 -69.333 -17.332 -134.332 -51.999 -194.999s-87 -123.667 -157 -189l-49 -46h-117v1l108 99c74.667 68 127 133.333 157 196c-38.667 -40.667 -92 -61 -160 -61c-66.667 0 -121.167 22.167 -163.5 66.5s-63.5 98.166 -63.5 161.499s22.667 117.833 68 163.5
s104.666 68.5 177.999 68.5c77.333 0 138.5 -24.667 183.5 -74s67.5 -113 67.5 -191zM446.001 464.001c0 44.667 -14.666 81.667 -43.999 111c-29.333 30 -68 45 -116 45c-47.333 0 -85.333 -14.5 -114 -43.5s-43 -66.5 -43 -112.5c0 -45.333 14 -82.5 42 -111.5
s65.333 -43.5 112 -43.5c49.333 0 88.666 14.667 117.999 44c30 28.667 45 65.667 45 111z" />
    <glyph glyph-name="colon" unicode=":" horiz-adv-x="256" 
d="M179 492v-108h-102v108h102zM179 108v-108h-102v108h102z" />
    <glyph glyph-name="semicolon" unicode=";" horiz-adv-x="256" 
d="M189 108v-108l-61 -125h-52l55 125h-50v108h108zM186 492v-108h-102v108h102z" />
    <glyph glyph-name="less" unicode="&#x3c;" horiz-adv-x="600" 
d="M540 529v-80l-384 -139l384 -139v-80l-480 180v78z" />
    <glyph glyph-name="equal" unicode="=" horiz-adv-x="600" 
d="M560 447v-74h-520v74h520zM560 247v-74h-520v74h520z" />
    <glyph glyph-name="greater" unicode="&#x3e;" horiz-adv-x="600" 
d="M60 529l480 -180v-78l-480 -180v80l384 139l-384 139v80z" />
    <glyph glyph-name="question" unicode="?" horiz-adv-x="491" 
d="M474 546c0 -26.667 -5.00098 -50.334 -15.001 -71.001c-9.33301 -19.333 -20.833 -36.666 -34.5 -51.999s-33.5 -34 -59.5 -56l-23 -21c-28 -24 -48 -44.333 -60 -61c-11.333 -15.333 -18 -35.333 -20 -60l-3 -29h-71v36c0.666992 40 6.16699 69.333 16.5 88
s35.5 46 75.5 82l18 15c32 26 54.167 47.833 66.5 65.5s18.5 38.167 18.5 61.5c0 31.333 -11.333 56.166 -34 74.499s-53 27.5 -91 27.5c-30 0 -58.167 -6.16699 -84.5 -18.5s-57.833 -33.5 -94.5 -63.5l-52 59c76.667 68.667 154.334 103 233.001 103
c60.667 0 111.5 -16.167 152.5 -48.5s61.5 -76.166 61.5 -131.499zM275.999 108v-108h-102v108h102z" />
    <glyph glyph-name="at" unicode="@" horiz-adv-x="947" 
d="M695 460l-55.999 -262.004c-4.66699 -18.667 -7 -36 -7 -52c0 -48.667 24.333 -73 73 -73c36.667 0 66.834 19 90.501 57s35.5 88 35.5 150c0 106.667 -32.5 189.834 -97.5 249.501s-147.5 89.5 -247.5 89.5c-108 1.33301 -196.5 -34.667 -265.5 -108
s-102.833 -165.333 -101.5 -276c0 -109.333 33.667 -197.5 101 -264.5s161.333 -100.5 282 -100.5h218v-60h-235c-133.333 -0.666992 -240 38.666 -320 117.999s-119.333 182.333 -118 309c-1.33301 128 38.667 234.333 120 319s186.333 126.334 315 125.001
c122 1.33301 222.5 -35.167 301.5 -109.5s117.833 -170.5 116.5 -288.5c0 -80 -18.5 -144.5 -55.5 -193.5s-85.167 -73.5 -144.5 -73.5c-40 0 -70.833 8.83301 -92.5 26.5s-34.834 40.834 -39.501 69.501c-40.667 -64 -96.334 -96 -167.001 -96
c-47.333 0 -84 13.833 -110 41.5s-39 65.834 -39 114.501c-0.666992 46.667 8.83301 92.834 28.5 138.501s48.167 83.667 85.5 114s78 44.833 122 43.5c68 0 108.667 -26 122 -78l13 70h72zM578.001 310.996c0 32 -6.66992 55.833 -20.0029 71.5s-34.666 23.5 -63.999 23.5
c-46 1.33301 -85.167 -22.5 -117.5 -71.5s-48.166 -101.167 -47.499 -156.5c0 -32 7.16699 -56.5 21.5 -73.5s34.5 -25.5 60.5 -25.5c34.667 -1.33301 65.334 12 92.001 40s46 59.5 58 94.5s17.667 67.5 17 97.5z" />
    <glyph glyph-name="A" unicode="A" horiz-adv-x="669" 
d="M558 0l-64 181h-320l-64 -181h-93l257 710h121l258 -710h-95zM202 259l264 0.000976562l-33 93c-44.667 119.333 -78 215.666 -100 288.999c-16.667 -56.667 -45.667 -142.667 -87 -258l-11 -32z" />
    <glyph glyph-name="B" unicode="B" horiz-adv-x="667" 
d="M628 199c0 -61.333 -19.832 -109.832 -59.499 -145.499s-92.5 -53.5 -158.5 -53.5h-328v710h313c63.333 0 113.833 -15.833 151.5 -47.5s56.5 -75.834 56.5 -132.501c0 -38 -9.83301 -70.333 -29.5 -97s-46.834 -46 -81.501 -58c42.667 -12.667 76 -34 100 -64
s36 -67.333 36 -112zM174.001 636.001v-227h202c43.333 0 77 10.167 101 30.5s36 48.833 36 85.5c0 36 -11.833 63.5 -35.5 82.5s-57.167 28.5 -100.5 28.5h-203zM536.001 204.001c0 40 -13.833 71.833 -41.5 95.5s-65.5 35.5 -113.5 35.5h-207v-261h207
c49.333 0 87.5 11.5 114.5 34.5s40.5 54.833 40.5 95.5z" />
    <glyph glyph-name="C" unicode="C" horiz-adv-x="669" 
d="M636 625l-54.001 -63.999c-66.667 56 -132.667 84 -198 84c-75.333 0 -135.666 -26.833 -180.999 -80.5s-68 -123.5 -68 -209.5c0 -84.667 22.5 -154.167 67.5 -208.5s103.5 -81.5 175.5 -81.5c38.667 0 73.834 7.83301 105.501 23.5s67.834 42.5 108.501 80.5l57 -62
c-46.667 -44 -90.5 -75.5 -131.5 -94.5s-87.167 -28.5 -138.5 -28.5c-102 0 -183.667 34.667 -245 104s-92 158.666 -92 267.999s30.667 198.333 92 267s144.666 103 249.999 103c47.333 0 90.666 -7.83301 129.999 -23.5s80 -41.5 122 -77.5z" />
    <glyph glyph-name="D" unicode="D" horiz-adv-x="703" 
d="M661 355c0 -106.667 -27.833 -192.5 -83.5 -257.5s-132.5 -97.5 -230.5 -97.5h-265v710h265c98 0 174.833 -32.5 230.5 -97.5s83.5 -150.833 83.5 -257.5zM332 633h-158v-556h158c74.667 0 132.5 24.5 173.5 73.5s61.5 117.167 61.5 204.5
c0 86.667 -20.667 154.667 -62 204s-99 74 -173 74z" />
    <glyph glyph-name="E" unicode="E" horiz-adv-x="609" 
d="M554 710v-77h-380v-229h354v-77h-354v-250h389v-77h-481v710h472z" />
    <glyph glyph-name="F" unicode="F" horiz-adv-x="594" 
d="M554 710v-77h-380v-244h351v-77h-351v-312h-92v710h472z" />
    <glyph glyph-name="G" unicode="G" horiz-adv-x="741" 
d="M362 294l-0.000976562 78.001h313v-372h-72l-7 90c-44 -70 -117.667 -105 -221 -105s-184.666 34 -243.999 102s-89 157.333 -89 268c0 109.333 31 198.333 93 267s145.667 103 251 103c56.667 0 108 -10.833 154 -32.5s91.333 -55.834 136 -102.501l-59 -60
c-42 42 -80 71.333 -114 88c-34.667 17.333 -74.334 26 -119.001 26c-74 0 -134 -26.667 -180 -80s-69 -123 -69 -209c0 -88 22.167 -158.333 66.5 -211s103.833 -79 178.5 -79c62.667 0 113.334 18 152.001 54s58 85 58 147v28h-228z" />
    <glyph glyph-name="H" unicode="H" horiz-adv-x="729" 
d="M647 710v-710h-93v330h-380v-330h-92v710h92v-303h380v303h93z" />
    <glyph glyph-name="I" unicode="I" horiz-adv-x="270" 
d="M181 710v-710h-92v710h92z" />
    <glyph glyph-name="J" unicode="J" horiz-adv-x="462" 
d="M385 710l-0.000976562 -527c0 -130 -64 -195 -192 -195c-61.333 0 -121.666 15.667 -180.999 47l32 72c60 -25.333 108.667 -38 146 -38c68.667 0 103 40.667 103 122v519h92z" />
    <glyph glyph-name="K" unicode="K" horiz-adv-x="658" 
d="M544 0l-243 366l-127 -131v-235h-92v710h92v-363l346 363h115l-271 -280l285 -430h-105z" />
    <glyph glyph-name="L" unicode="L" horiz-adv-x="545" 
d="M174 710v-632h344v-78h-436v710h92z" />
    <glyph glyph-name="M" unicode="M" horiz-adv-x="870" 
d="M641 710h147.001v-710h-90v355c0 98 1 194.333 3 289c-12.667 -40.667 -32.334 -96.667 -59.001 -168l-42 -121l-124 -355h-81l-127 355l-101 287c2 -94.667 3 -190.667 3 -288v-354h-88v710h147l112 -313c48 -134.667 79.667 -229.667 95 -285
c22 73.333 53.333 168.333 94 285z" />
    <glyph glyph-name="N" unicode="N" horiz-adv-x="732" 
d="M560 710h90v-710h-102l-210 323c-72 108 -129 198.333 -171 271c3.33301 -108 5 -199.667 5 -275v-319h-90v710h103l213 -328l26 -40c70 -109.333 117 -184.333 141 -225c-3.33301 105.333 -5 195 -5 269v324z" />
    <glyph glyph-name="O" unicode="O" horiz-adv-x="758" 
d="M716 355c0 -108 -30.667 -196.833 -92 -266.5s-143 -104.5 -245 -104.5s-183.667 34.833 -245 104.5s-92 158.5 -92 266.5s30.667 196.833 92 266.5s143 104.5 245 104.5s183.667 -34.833 245 -104.5s92 -158.5 92 -266.5zM136 355c0 -85.333 22.5 -155 67.5 -209
s103.5 -81 175.5 -81c72.667 0 131.334 26.833 176.001 80.5s67 123.5 67 209.5c0 85.333 -22.333 155 -67 209s-103.334 81 -176.001 81c-72 0 -130.5 -27.167 -175.5 -81.5s-67.5 -123.833 -67.5 -208.5z" />
    <glyph glyph-name="P" unicode="P" horiz-adv-x="651" 
d="M618 498c0 -66.667 -21.333 -119 -64 -157c-42.667 -37.333 -98.334 -56 -167.001 -56h-213v-285h-92v710h305c70.667 0 126.834 -18.833 168.501 -56.5s62.5 -89.5 62.5 -155.5zM374 633l-200 0.000976562v-271h200c48 0 85.333 11.833 112 35.5s40 57.167 40 100.5
s-13.333 76.666 -40 99.999s-64 35 -112 35z" />
    <glyph glyph-name="Q" unicode="Q" horiz-adv-x="758" 
d="M598 62l61 -81l-67 -47l-62 83c-46 -22 -96.333 -33 -151 -33c-102 0 -183.667 34.833 -245 104.5s-92 158.5 -92 266.5s30.667 196.833 92 266.5s143 104.5 245 104.5s183.667 -34.833 245 -104.5s92 -158.5 92 -266.5c0 -128 -39.333 -225.667 -118 -293zM478 86
l-93.999 124l66 47l94 -124c52 52 78 126 78 222c0 85.333 -22.333 155 -67 209s-103.334 81 -176.001 81c-72 0 -130.5 -27.167 -175.5 -81.5s-67.5 -123.833 -67.5 -208.5c0 -85.333 22.5 -155 67.5 -209s103.5 -81 175.5 -81c36 0 69 7 99 21z" />
    <glyph glyph-name="R" unicode="R" horiz-adv-x="668" 
d="M635 0l-105 -0.000976562l-190 285h-166v-285h-92v710h298c68 0 123.333 -19 166 -57s64 -89.667 64 -155c0 -55.333 -15.167 -101.166 -45.5 -137.499s-71.833 -59.5 -124.5 -69.5zM174 632.999v-270.999h191c48 0 85.667 11.833 113 35.5s41 57.167 41 100.5
s-13.667 76.666 -41 99.999s-65.333 35 -114 35h-190z" />
    <glyph glyph-name="S" unicode="S" horiz-adv-x="629" 
d="M576 621l-54 -63.998c-37.333 32.667 -72.166 55.667 -104.499 69s-68.833 20 -109.5 20c-48 0 -87.167 -10.833 -117.5 -32.5s-45.5 -49.5 -45.5 -83.5c0 -24 7 -43.333 21 -58c13.333 -13.333 32.166 -24.166 56.499 -32.499s63.5 -18.833 117.5 -31.5
c90.667 -20.667 154.334 -45.834 191.001 -75.501s55 -72.5 55 -128.5c0 -65.333 -24.5 -118.333 -73.5 -159s-111.833 -61 -188.5 -61c-56.667 0 -107.667 9.33301 -153 28s-94 50.334 -146 95.001l55 65c50.667 -42.667 93.667 -71.334 129 -86.001
c36 -14.667 74.667 -22 116 -22c50 0 90.667 12.167 122 36.5s47 57.166 47 98.499c0 27.333 -7.66699 48.666 -23 63.999c-14 15.333 -34.333 27.666 -61 36.999c-29.333 10.667 -67.333 21 -114 31c-92 20.667 -155.167 44.834 -189.5 72.501s-51.5 69.167 -51.5 124.5
c0 57.333 24.333 104.5 73 141.5s108.667 55.5 180 55.5c53.333 0 100.666 -8.16699 141.999 -24.5s83.333 -42.833 126 -79.5z" />
    <glyph glyph-name="T" unicode="T" horiz-adv-x="603" 
d="M572 710v-78h-224v-632h-93v632h-224v78h541z" />
    <glyph glyph-name="U" unicode="U" horiz-adv-x="688" 
d="M612 710l-0.000976562 -484c0 -78.667 -22.667 -138.5 -68 -179.5s-112 -61.5 -200 -61.5c-87.333 0 -153.666 20.5 -198.999 61.5s-68 100.833 -68 179.5v484h92v-479c0 -54 14.833 -95 44.5 -123s73.167 -42 130.5 -42s100.833 14 130.5 42s44.5 69 44.5 123v479h93z
" />
    <glyph glyph-name="V" unicode="V" horiz-adv-x="633" 
d="M521 710l95 -0.000976562l-241 -710h-117l-241 710h96l117 -352c36.667 -107.333 66 -199.666 88 -276.999c19.333 66.667 48 158.667 86 276z" />
    <glyph glyph-name="W" unicode="W" horiz-adv-x="939" 
d="M816 710l91.001 0.000976562l-171 -710h-113l-87 326c-29.333 110.667 -51.333 199 -66 265c-13.333 -64.667 -35 -153.334 -65 -266.001l-88 -325h-114l-172 710h94l81 -342c17.333 -76 36.666 -167 57.999 -273c28 115.333 51 206.333 69 273l93 342h93l91 -342
c28 -109.333 50.333 -200.333 67 -273c18 92 37.667 183 59 273z" />
    <glyph glyph-name="X" unicode="X" horiz-adv-x="643" 
d="M631 0h-104l-206 307l-206 -307h-104l255 373l-230 337h103l184 -273l182 273h103l-230 -337z" />
    <glyph glyph-name="Y" unicode="Y" horiz-adv-x="624" 
d="M509 710h100l-252 -407v-303h-92v304l-250 406h102l196 -325z" />
    <glyph glyph-name="Z" unicode="Z" horiz-adv-x="623" 
d="M581 710v-74l-431 -559h430v-77h-539v74l431 559h-412v77h521z" />
    <glyph glyph-name="bracketleft" unicode="[" horiz-adv-x="328" 
d="M291 759v-64h-112v-774h112v-63h-194v901h194z" />
    <glyph glyph-name="backslash" unicode="\" horiz-adv-x="438" 
d="M22 710h84l310 -710h-84z" />
    <glyph glyph-name="bracketright" unicode="]" horiz-adv-x="328" 
d="M37 759h194v-901h-194v63h111v774h-111v64z" />
    <glyph glyph-name="asciicircum" unicode="^" 
d="M335 710l199 -430h-76l-163 353l-162 -353h-77l200 430h79z" />
    <glyph glyph-name="underscore" unicode="_" horiz-adv-x="600" 
d="M605 -130v-60h-610v60h610z" />
    <glyph glyph-name="grave" unicode="`" horiz-adv-x="282" 
d="M57 706h96l72 -141h-76z" />
    <glyph glyph-name="a" unicode="a" horiz-adv-x="532" 
d="M466 342l0.00195312 -342h-78v61c-34.667 -51.333 -90.334 -77 -167.001 -77c-54 0 -96.833 11.667 -128.5 35s-47.5 57.666 -47.5 102.999c0 52.667 19.667 91 59 115c40.667 24.667 97.334 43.334 170.001 56.001l110 20v25c0 30 -10.5 53.667 -31.5 71
s-48.833 26 -83.5 26c-30 0 -56.833 -6.16699 -80.5 -18.5s-50.834 -33.833 -81.501 -64.5l-55 49c59.333 70 130.666 105 213.999 105c62.667 0 111.667 -14.833 147 -44.5s53 -69.5 53 -119.5zM384.002 184v64.998l-90 -18c-61.333 -12.667 -103.5 -25.667 -126.5 -39
s-35.833 -35.666 -38.5 -66.999c0 -22.667 8.83301 -40 26.5 -52s42.5 -18 74.5 -18c44.667 0 81.5 11.833 110.5 35.5s43.5 54.834 43.5 93.501z" />
    <glyph glyph-name="b" unicode="b" horiz-adv-x="572" 
d="M533 246c0 -76.667 -20.5 -139 -61.5 -187s-92.833 -72 -155.5 -72c-77.333 0 -133.333 29 -168 87v-74h-81v710h86v-287c36 54.667 90.333 82 163 82c64 0 116.167 -24 156.5 -72s60.5 -110.333 60.5 -187zM445 246c0 56 -13 101.001 -39 135.001s-60.333 51 -103 51
c-46 0 -83 -16.833 -111 -50.5s-42 -78.834 -42 -135.501s14 -101.667 42 -135s65 -50 111 -50c42.667 0 77 17 103 51s39 78.667 39 134z" />
    <glyph glyph-name="c" unicode="c" horiz-adv-x="500" 
d="M275 434c-46.667 0 -83.335 -18.167 -110.002 -54.5s-40 -80.833 -40 -133.5c0 -52 13 -96.333 39 -133c26.667 -36 64 -54 112 -54c26.667 0 50.834 5.83301 72.501 17.5s46.5 33.167 74.5 64.5l57 -48c-31.333 -39.333 -62.666 -67 -93.999 -83s-68 -24 -110 -24
c-72 0 -129.833 23.667 -173.5 71s-65.5 110.333 -65.5 189c0 78 22.167 140.833 66.5 188.5s101.833 71.5 172.5 71.5c40.667 0 76.167 -7 106.5 -21s60.5 -38 90.5 -72l-56 -53c-25.333 27.333 -48.833 46.5 -70.5 57.5s-45.5 16.5 -71.5 16.5z" />
    <glyph glyph-name="d" unicode="d" horiz-adv-x="572" 
d="M419 710h86.001v-710h-81v76c-36.667 -59.333 -92.667 -89 -168 -89c-63.333 0 -115.333 24 -156 72s-61 110.333 -61 187s20.667 139 62 187s93.666 72 156.999 72c71.333 0 125 -26.333 161 -79v284zM422.001 246c0 56.667 -14 101.666 -42 134.999s-65 50 -111 50
c-42.667 0 -77 -17 -103 -51s-39 -78.667 -39 -134c0 -56 12.833 -101 38.5 -135s60.167 -51 103.5 -51c46 0 83 16.833 111 50.5s42 78.834 42 135.501z" />
    <glyph glyph-name="e" unicode="e" horiz-adv-x="534" 
d="M444 140l51 -52c-35.333 -37.333 -69.333 -63.666 -102 -78.999s-70 -23 -112 -23c-74 0 -133.167 23.5 -177.5 70.5s-66.5 109.167 -66.5 186.5s21.5 140.5 64.5 189.5s99.833 73.5 170.5 73.5c70 0 124.5 -21 163.5 -63s58.5 -100 58.5 -174
c0 -9.33301 -0.666992 -22 -2 -38h-369c2.66699 -52 17.667 -93.833 45 -125.5s65.333 -47.5 114 -47.5c30.667 0 57 6 79 18c22 11.333 49.667 32.666 83 63.999zM125 295h283.999c-2 44 -15.167 78.667 -39.5 104s-57.166 38 -98.499 38c-40 0 -72.667 -12.333 -98 -37
s-41.333 -59.667 -48 -105z" />
    <glyph glyph-name="f" unicode="f" horiz-adv-x="339" 
d="M195 564l0.000976562 -71.999h124v-65h-124v-427h-86v427h-91v65h91v82c0 48.667 12.667 86.167 38 112.5s62 39.5 110 39.5c30.667 0 63.667 -5.66699 99 -17l-17 -66c-30.667 7.33301 -53.334 11 -68.001 11c-27.333 0 -46.833 -6.83301 -58.5 -20.5
s-17.5 -36.834 -17.5 -69.501z" />
    <glyph glyph-name="g" unicode="g" horiz-adv-x="565" 
d="M418 492h80v-481c0 -63.333 -20 -113.166 -60 -149.499s-94.333 -54.5 -163 -54.5c-80 0 -154.333 24.333 -223 73l43 63c36 -22.667 67.333 -38.834 94 -48.501s55 -14.5 85 -14.5c43.333 0 77.333 11.5 102 34.5s37 57.5 37 103.5v67c-34.667 -52.667 -87 -79 -157 -79
c-62.667 0 -114.334 23.5 -155.001 70.5s-61 106.833 -61 179.5s20.333 132.5 61 179.5s92.334 70.5 155.001 70.5c73.333 0 127.333 -29 162 -87v73zM415 256c0 52 -13.333 94.498 -40 127.498s-61.667 49.5 -105 49.5s-77.833 -16.167 -103.5 -48.5
s-38.5 -75.166 -38.5 -128.499s12.833 -96.166 38.5 -128.499s60.167 -48.5 103.5 -48.5s78.333 16.5 105 49.5s40 75.5 40 127.5z" />
    <glyph glyph-name="h" unicode="h" horiz-adv-x="545" 
d="M479 337v-337h-86v310c0 40 -9.66699 70.5 -29 91.5s-47.333 31.5 -84 31.5c-35.333 0 -65.333 -12.333 -90 -37c-24.667 -24 -37 -54.333 -37 -91v-305h-86v710h86v-274c34 46.667 84 70 150 70c55.333 0 98.5 -15.667 129.5 -47s46.5 -72 46.5 -122z" />
    <glyph glyph-name="i" unicode="i" horiz-adv-x="220" 
d="M153 492v-492h-86v492h86zM153 692v-103h-86v103h86z" />
    <glyph glyph-name="j" unicode="j" horiz-adv-x="224" 
d="M7 -121c23.333 0 39.667 6.5 49 19.5s14 34.167 14 63.5v530h86v-530c0 -102.667 -46.333 -154 -139 -154c-31.333 0 -63 5 -95 15l17 66c24 -6.66699 46.667 -10 68 -10zM156.001 692v-103h-86v103h86z" />
    <glyph glyph-name="k" unicode="k" horiz-adv-x="508" 
d="M406 0l-164 247l-89 -89v-158h-86v710h86v-457l229 239h105l-187 -190l202 -302h-96z" />
    <glyph glyph-name="l" unicode="l" horiz-adv-x="226" 
d="M156 710v-710h-86v710h86z" />
    <glyph glyph-name="m" unicode="m" horiz-adv-x="812" 
d="M746 343l0.000976562 -343h-86v319c0 76 -32.667 114 -98 114c-34 0 -61.333 -11.5 -82 -34.5s-31 -52.833 -31 -89.5v-309h-86v319c0 76 -32.667 114 -98 114c-32.667 0 -59.5 -11.333 -80.5 -34s-31.5 -52.667 -31.5 -90v-309h-86v492h81v-59c30 48.667 77 73 141 73
c67.333 0 114.666 -26.667 141.999 -80c34 53.333 84.333 80 151 80c52.667 0 93.167 -14.833 121.5 -44.5s42.5 -69.167 42.5 -118.5z" />
    <glyph glyph-name="n" unicode="n" horiz-adv-x="545" 
d="M479 337v-337h-86v310c0 40 -9.66699 70.5 -29 91.5s-47.333 31.5 -84 31.5c-35.333 0 -65.333 -12.333 -90 -37c-24.667 -24 -37 -54.333 -37 -91v-305h-86v492h81v-63c32 51.333 83.667 77 155 77c56 0 99.333 -15.667 130 -47s46 -72 46 -122z" />
    <glyph glyph-name="o" unicode="o" horiz-adv-x="561" 
d="M524 246c0 -76.667 -22.667 -139.167 -68 -187.5s-103.666 -72.5 -174.999 -72.5s-129.833 24.167 -175.5 72.5s-68.5 110.833 -68.5 187.5s22.833 139.167 68.5 187.5s104.167 72.5 175.5 72.5s129.666 -24.167 174.999 -72.5s68 -110.833 68 -187.5zM125 246
c0 -56 14.167 -101.333 42.5 -136s66.166 -52 113.499 -52s85 17.167 113 51.5s42 79.833 42 136.5s-14 102.167 -42 136.5s-65.667 51.5 -113 51.5s-85.166 -17.333 -113.499 -52s-42.5 -80 -42.5 -136z" />
    <glyph glyph-name="p" unicode="p" horiz-adv-x="572" 
d="M533 247c0 -77.333 -20.333 -140 -61 -188s-92.667 -72 -156 -72c-74 0 -128.333 26.333 -163 79v-246h-86v672h81v-76c36.667 59.333 92.667 89 168 89c63.333 0 115.333 -24 156 -72s61 -110 61 -186zM445 247c0 56 -12.833 100.832 -38.5 134.499
s-60.167 50.5 -103.5 50.5c-46 0 -83 -16.667 -111 -50s-42 -78.333 -42 -135c0 -57.333 14 -102.666 42 -135.999s65 -50 111 -50c42.667 0 77 17 103 51s39 79 39 135z" />
    <glyph glyph-name="q" unicode="q" horiz-adv-x="572" 
d="M424 492h81v-672h-86v247c-35.333 -53.333 -89.333 -80 -162 -80c-63.333 0 -115.5 24 -156.5 72s-61.5 110.333 -61.5 187s20.5 139 61.5 187s93.167 72 156.5 72c75.333 0 131 -29 167 -87v74zM422 246c0 57.333 -14 102.499 -42 135.499s-65 49.5 -111 49.5
c-42.667 0 -77 -17 -103 -51s-39 -78.667 -39 -134c0 -56 13 -101 39 -135s60.333 -51 103 -51c46 0 83 16.833 111 50.5s42 78.834 42 135.501z" />
    <glyph glyph-name="r" unicode="r" horiz-adv-x="358" 
d="M348 483l-16 -72c-22.667 6.66699 -44 10 -64 10c-34.667 0 -62.5 -14.167 -83.5 -42.5s-31.5 -66.5 -31.5 -114.5v-264h-86v492h81v-74c26 53.333 66.667 80 122 80c25.333 0 51.333 -5 78 -15z" />
    <glyph glyph-name="s" unicode="s" horiz-adv-x="479" 
d="M437 434l-47.001 -57.9951c-30 23.333 -56.167 39.166 -78.5 47.499s-47.833 12.5 -76.5 12.5c-32.667 0 -58.834 -6.83301 -78.501 -20.5s-29.5 -31.167 -29.5 -52.5c2.66699 -20.667 11.334 -34.834 26.001 -42.501s50 -17.834 106 -30.501
c68 -16 116 -34.833 144 -56.5s42 -53.167 42 -94.5c0 -46 -18 -83 -54 -111s-83.667 -42 -143 -42c-44.667 0 -84.167 6.83301 -118.5 20.5s-70.5 37.5 -108.5 71.5l51 56c36 -30 66.667 -50.333 92 -61s53.666 -16 84.999 -16c32.667 0 59.5 7 80.5 21s31.5 33 31.5 57
c0 23.333 -10 40.666 -30 51.999s-56 22.666 -108 33.999c-70 16 -117 32.833 -141 50.5s-36.667 47.167 -38 88.5c0 43.333 17.667 78.5 53 105.5s81.333 40.5 138 40.5c40.667 0 76.334 -5.5 107.001 -16.5s62.334 -29.5 95.001 -55.5z" />
    <glyph glyph-name="t" unicode="t" horiz-adv-x="356" 
d="M325 76l12.999 -67.999c-32 -11.333 -65.667 -17 -101 -17c-44.667 0 -77 10.167 -97 30.5s-30 51.166 -30 92.499v313h-92v65h92v165h86v-165h133v-65h-133v-303c0 -22 4.5 -37.5 13.5 -46.5s23.833 -13.5 44.5 -13.5c18.667 0 42.334 4 71.001 12z" />
    <glyph glyph-name="u" unicode="u" horiz-adv-x="537" 
d="M384 492l85.999 0.000976562v-492h-80v61c-30 -50 -79.667 -75 -149 -75c-58 0 -101.667 14.333 -131 43s-44 68 -44 118v345h86v-324c0 -72 34.333 -108 103 -108c38.667 0 69.834 11.667 93.501 35s35.5 55.666 35.5 96.999v300z" />
    <glyph glyph-name="v" unicode="v" horiz-adv-x="480" 
d="M377 492h88l-171 -492h-109l-170 492h90l61 -181c35.333 -109.333 60.333 -190 75 -242c14.667 52 39.667 132.667 75 242z" />
    <glyph glyph-name="w" unicode="w" horiz-adv-x="735" 
d="M626 492h88l-138 -492h-104l-46 157c-24.667 86.667 -44.667 164 -60 232c-19.333 -81.333 -39.333 -159 -60 -233l-43 -156h-104l-138 492h89l49 -184c11.333 -42.667 30 -120.334 56 -233.001c18.667 77.333 38.667 155 60 233l52 184h81l52 -184
c24 -85.333 44 -163.666 60 -234.999c20 88.667 39 167 57 235z" />
    <glyph glyph-name="x" unicode="x" horiz-adv-x="480" 
d="M468 0h-95l-133 198l-134 -198h-94l179 257l-164 235h95l119 -175l117 175h94l-161 -231z" />
    <glyph glyph-name="y" unicode="y" horiz-adv-x="484" 
d="M379 492l87.002 0.000976562l-197 -560c-16.667 -46.667 -35.334 -79.167 -56.001 -97.5s-51.334 -27.5 -92.001 -27.5c-28.667 0 -54 3.33301 -76 10l15 66c18 -4 35.667 -6 53 -6c20.667 0 37.167 5.66699 49.5 17s23.5 31.666 33.5 60.999l6 19l-185 518h91l55 -163
l73 -218l8 -25l30 91l50 154z" />
    <glyph glyph-name="z" unicode="z" horiz-adv-x="478" 
d="M434 492v-63l-289 -358h289v-71h-396v64l291 358h-273v70h378z" />
    <glyph glyph-name="braceleft" unicode="{" horiz-adv-x="366" 
d="M329 759v-64h-34c-24 0 -40.667 -3.66699 -50 -11c-10 -7.33301 -15.333 -16.333 -16 -27c-1.33301 -14.667 -2 -37 -2 -67v-153c0 -38 -6.83301 -66.833 -20.5 -86.5s-38.167 -32.5 -73.5 -38.5v-2c35.333 -6 59.833 -18.833 73.5 -38.5s20.5 -48.5 20.5 -86.5v-159v-44
c0 -24 5.16699 -40.167 15.5 -48.5s27.833 -12.5 52.5 -12.5h34v-63h-53c-50 0 -84.5 10.333 -103.5 31s-28.5 61 -28.5 121v162c0 36.667 -7 62.167 -21 76.5s-38.333 21.5 -73 21.5v82c34.667 0 59 7.16699 73 21.5s21 39.833 21 76.5v157c0 60 9.5 100.333 28.5 121
s53.5 31 103.5 31h53z" />
    <glyph glyph-name="bar" unicode="|" horiz-adv-x="383" 
d="M230 800v-940h-76v940h76z" />
    <glyph glyph-name="braceright" unicode="}" horiz-adv-x="366" 
d="M37 759h53c50 0 84.5 -10.333 103.5 -31s28.5 -61 28.5 -121v-157c0 -36.667 7 -62.167 21 -76.5s38.333 -21.5 73 -21.5v-82c-34.667 0 -59 -7.16699 -73 -21.5s-21 -39.833 -21 -76.5v-162c0 -60 -9.5 -100.333 -28.5 -121s-53.5 -31 -103.5 -31h-53v63h35
c24 0 40.667 3.66699 50 11c10 7.33301 15.333 16.333 16 27c1.33301 14.667 2 37 2 67v159c0 38 6.83301 66.833 20.5 86.5s38.167 32.5 73.5 38.5v2c-35.333 6 -59.833 18.833 -73.5 38.5s-20.5 48.5 -20.5 86.5v153v44c0 24 -5.16699 40.167 -15.5 48.5
s-27.833 12.5 -52.5 12.5h-35v64z" />
    <glyph glyph-name="asciitilde" unicode="~" horiz-adv-x="600" 
d="M318 372c44.667 -17.333 76.3291 -26.001 94.9961 -26.001c19.333 0 33.5 4.33301 42.5 13s14.167 22 15.5 40h72c-1.33301 -38 -12.666 -68.167 -33.999 -90.5s-50.666 -33.5 -87.999 -33.5c-28 0 -68 10.333 -120 31c-47.333 18.667 -81.666 28 -102.999 28
c-19.333 0 -35.166 -5 -47.499 -15s-19.5 -23 -21.5 -39h-72c1.33301 36.667 14.333 66.334 39 89.001s57.667 34 99 34c31.333 0 72.333 -10.333 123 -31z" />
    <glyph glyph-name="uni00A0" unicode="&#xa0;" horiz-adv-x="227" 
 />
    <glyph glyph-name="exclamdown" unicode="&#xa1;" horiz-adv-x="225" 
d="M62 385v108h102v-108h-102zM66 -217v213l21 296h53l20 -296v-213h-94z" />
    <glyph glyph-name="cent" unicode="&#xa2;" 
d="M347 -12l-0.00195312 -87.998h-67v88c-64 7.33301 -114.667 33.666 -152 78.999c-37.333 47.333 -56 107 -56 179c0 71.333 18.667 130.333 56 177c38 46.667 88.667 73.667 152 81v91h67v-91c60.667 -6.66699 114.334 -37.334 161.001 -92.001l-56 -52
c-36 39.333 -71 62.666 -105 69.999v-367c33.333 7.33301 70.333 33.333 111 78l57 -48c-27.333 -33.333 -54.166 -58.166 -80.499 -74.499s-55.5 -26.5 -87.5 -30.5zM279.998 62.002v368.998c-37.333 -7.33301 -66.666 -28.166 -87.999 -62.499s-32 -75.166 -32 -122.499
c0 -46.667 10.667 -87 32 -121s50.666 -55 87.999 -63z" />
    <glyph glyph-name="sterling" unicode="&#xa3;" 
d="M528 100l30.999 -68.001c-48 -30 -96.333 -45 -145 -45c-33.333 0 -76 6.66699 -128 20c-46.667 11.333 -82.334 17 -107.001 17c-26 0 -46 -2.33301 -60 -7c-17.333 -6 -35.333 -13.333 -54 -22l-27 70c44.667 17.333 77.834 36.833 99.501 58.5
s32.834 52.167 33.501 91.5c0 25.333 -2 48 -6 68h-98v67h80c-18 54 -27 104.667 -27 152c0 58 20.5 104.333 61.5 139s91.5 52 151.5 52c77.333 0 148 -26.333 212 -79l-49 -63c-31.333 24 -59.333 41 -84 51s-50.667 15 -78 15c-36.667 0 -66.5 -10.667 -89.5 -32
s-34.5 -49.666 -34.5 -84.999c0 -28 2 -52.333 6 -73c4 -17.333 11 -43 21 -77h216v-67h-200c2.66699 -14 4 -33.333 4 -58c-1.33301 -56 -24.333 -99.333 -69 -130c30 -0.666992 67 -6.66699 111 -18c48.667 -10 85 -15 109 -15c34.667 0 74.667 12.667 120 38z" />
    <glyph glyph-name="currency" unicode="&#xa4;" 
d="M486 575l43.999 -43l-66 -66c27.333 -36.667 41 -78.667 41 -126s-13.667 -89.333 -41 -126l65 -65l-44 -43l-66 66c-34.667 -22.667 -75.334 -34 -122.001 -34c-47.333 0 -88.666 12 -123.999 36l-69 -69l-43 43l68 68c-26.667 34.667 -40 76 -40 124
c0 46.667 13 87.667 39 123l-68 68l44 43l68 -69c34.667 24.667 76.334 37 125.001 37c46 0 86.333 -11.333 121 -34zM157.999 340c0 -41.333 13 -74.5 39 -99.5s59.333 -37.5 100 -37.5s74 12.5 100 37.5s39 58.167 39 99.5s-13 74.5 -39 99.5s-59.333 37.5 -100 37.5
s-74 -12.5 -100 -37.5s-39 -58.167 -39 -99.5z" />
    <glyph glyph-name="yen" unicode="&#xa5;" 
d="M557 680l-156 -268h121v-64h-158l-26 -45v-47h184v-64h-184v-192h-88v192h-182v64h182v48l-25 44h-157v64h120l-155 268h98l166 -297l165 297h95z" />
    <glyph glyph-name="brokenbar" unicode="&#xa6;" horiz-adv-x="383" 
d="M230 800v-400h-76v400h76zM230 260v-400h-76v400h76z" />
    <glyph glyph-name="section" unicode="&#xa7;" 
d="M508 84c0 -46.667 -19.832 -84.8359 -59.499 -114.503s-90.167 -44.5 -151.5 -44.5c-45.333 0 -85.166 6 -119.499 18s-69.833 32.333 -106.5 61l46 59c34.667 -26.667 65 -44.667 91 -54c25.333 -8.66699 55 -13 89 -13c38 0 69 8 93 24s36 36.333 36 61
c0 16 -5.66699 28.667 -17 38c-10 9.33301 -23.833 16.833 -41.5 22.5s-49.834 13.834 -96.501 24.501c-78.667 16.667 -134.834 37.334 -168.501 62.001s-50.5 58.667 -50.5 102c0 57.333 32.333 99 97 125c-44.667 22.667 -67 59.334 -67 110.001
c0 46.667 19.833 84.834 59.5 114.501s90.167 44.5 151.5 44.5c45.333 0 85.166 -6 119.499 -18s69.833 -32.333 106.5 -61l-46 -59c-35.333 26.667 -66 44.334 -92 53.001c-26.667 9.33301 -56 14 -88 14c-38 0 -69 -8.16699 -93 -24.5s-36 -36.833 -36 -61.5
c0 -16.667 5.33301 -29.334 16 -38.001c16 -13.333 62.333 -29 139 -47c78.667 -16.667 134.834 -37.167 168.501 -61.5s50.5 -58.166 50.5 -101.499c0 -58.667 -32.333 -100.334 -97 -125.001c44.667 -22.667 67 -59.334 67 -110.001zM307.001 233.998l33 -6.99902
c76 13.333 114 42.666 114 87.999c0 19.333 -7.33301 35 -22 47c-22 18.667 -71.667 35.667 -149 51c-12.667 3.33301 -24.667 6 -36 8c-74 -14 -111 -43 -111 -87c0 -20 7.33301 -36 22 -48c14 -11.333 31.5 -20.5 52.5 -27.5s53.167 -15.167 96.5 -24.5z" />
    <glyph glyph-name="dieresis" unicode="&#xa8;" horiz-adv-x="375" 
d="M141 692v-103h-84v103h84zM318 692v-103h-84v103h84z" />
    <glyph glyph-name="copyright" unicode="&#xa9;" horiz-adv-x="856" 
d="M60 355c-1.33301 102.667 34.167 190.167 106.5 262.5s159.5 107.5 261.5 105.5c102 2 189.167 -33.167 261.5 -105.5s107.833 -159.833 106.5 -262.5c1.33301 -102.667 -34.167 -190.167 -106.5 -262.5s-159.5 -107.5 -261.5 -105.5
c-102 -2 -189.167 33.167 -261.5 105.5s-107.833 159.833 -106.5 262.5zM734 355c1.33301 88 -27.834 162.833 -87.501 224.5s-132.5 91.834 -218.5 90.501c-86 1.33301 -158.833 -28.834 -218.5 -90.501s-88.834 -136.5 -87.501 -224.5
c-1.33301 -88 27.834 -162.833 87.501 -224.5s132.5 -91.834 218.5 -90.501c86 -1.33301 158.833 28.834 218.5 90.501s88.834 136.5 87.501 224.5zM224 355c0 63.333 19.334 116.001 58.001 158.001s88.667 63 150 63c81.333 0 140 -35.667 176 -107l-60 -28
c-15.333 26.667 -32 45.667 -50 57s-39.667 17 -65 17c-41.333 0 -74.5 -15 -99.5 -45s-37.5 -68.333 -37.5 -115s12.5 -84.834 37.5 -114.501s58.167 -44.5 99.5 -44.5c28 0 50.5 6 67.5 18s33.833 33.667 50.5 65l60 -30c-20.667 -40.667 -44.834 -70 -72.501 -88
s-63.167 -27 -106.5 -27c-61.333 0 -111.333 21 -150 63s-58 94.667 -58 158z" />
    <glyph glyph-name="ordfeminine" unicode="&#xaa;" horiz-adv-x="416" 
d="M364 588l-0.000976562 -259.997h-63v49c-26 -40.667 -70 -61 -132 -61c-39.333 0 -71.166 9.16699 -95.499 27.5s-36.5 44.166 -36.5 77.499c0 37.333 14.333 65.666 43 84.999s73.667 34.666 135 45.999l82 15v14c0 24.667 -8 43.667 -24 57s-38 20 -66 20
c-42 0 -82.667 -20.667 -122 -62l-44 40c44.667 52.667 100.667 79 168 79c49.333 0 87.5 -11.333 114.5 -34s40.5 -53.667 40.5 -93zM296.999 475.003v40l-68 -14c-47.333 -10 -79.833 -20 -97.5 -30s-26.5 -25 -26.5 -45c0 -16.667 6.5 -29.667 19.5 -39
s31.167 -14 54.5 -14c35.333 0 63.833 9 85.5 27s32.5 43 32.5 75z" />
    <glyph glyph-name="guillemotleft" unicode="&#xab;" horiz-adv-x="571" 
d="M287 471l-141 -218l141 -218h-86l-139 218l139 218h86zM505 471l-141 -218l141 -218h-86l-139 218l139 218h86z" />
    <glyph glyph-name="logicalnot" unicode="&#xac;" horiz-adv-x="600" 
d="M40 347h520v-273h-75v199h-445v74z" />
    <glyph glyph-name="registered" unicode="&#xae;" horiz-adv-x="556" 
d="M57 501c0 62.667 21.167 115.167 63.5 157.5s94.833 63.5 157.5 63.5s115.167 -21.167 157.5 -63.5s63.5 -94.833 63.5 -157.5s-21.167 -115.167 -63.5 -157.5s-94.833 -63.5 -157.5 -63.5s-115.167 21.167 -157.5 63.5s-63.5 94.833 -63.5 157.5zM456 501
c0 52 -17 95.502 -51 130.502s-76.333 52.5 -127 52.5c-52 0 -94.667 -17.333 -128 -52s-50 -78.334 -50 -131.001s16.667 -96.334 50 -131.001s76 -52 128 -52c50.667 0 93 17.5 127 52.5s51 78.5 51 130.5zM192 380.002v249.001h103c23.333 0 42.5 -7.5 57.5 -22.5
s22.5 -33.5 22.5 -55.5c0 -34.667 -16.333 -58.334 -49 -71.001l61 -100h-50l-56 95h-43v-95h-46zM238 513.003h48c29.333 0 44 12.667 44 38c0 24.667 -14.667 37 -44 37h-48v-75z" />
    <glyph glyph-name="overscore" unicode="&#xaf;" horiz-adv-x="393" 
d="M336 660v-66h-279v66h279z" />
    <glyph glyph-name="degree" unicode="&#xb0;" horiz-adv-x="408" 
d="M60 581c0 40 13.833 73.5 41.5 100.5s61.834 40.5 102.501 40.5s74.834 -13.5 102.501 -40.5s41.5 -60.5 41.5 -100.5c0 -40.667 -13.833 -74.5 -41.5 -101.5s-61.834 -40.5 -102.501 -40.5s-74.834 13.5 -102.501 40.5s-41.5 60.833 -41.5 101.5zM286 581
c0 24 -7.66699 43.833 -23 59.5s-35 23.5 -59 23.5c-24.667 0 -44.667 -7.83301 -60 -23.5s-23 -35.5 -23 -59.5c0 -24.667 7.66699 -44.834 23 -60.501s35.333 -23.5 60 -23.5c24 0 43.667 7.83301 59 23.5s23 35.834 23 60.501z" />
    <glyph glyph-name="plusminus" unicode="&#xb1;" horiz-adv-x="600" 
d="M338 662v-223h222v-74h-222v-223h-76v223h-222v74h222v223h76zM560 74v-74h-520v74h520z" />
    <glyph glyph-name="uni00B2" unicode="&#xb2;" horiz-adv-x="397" 
d="M114 361l242.001 0.000976562v-59h-314v28c0 38.667 10.333 70.334 31 95.001s53.667 49 99 73l26 14c33.333 17.333 56.333 31.666 69 42.999s19 26 19 44c0 19.333 -7.16699 34.166 -21.5 44.499s-33.833 15.5 -58.5 15.5c-37.333 0 -76.666 -18.333 -117.999 -55
l-40 46c49.333 46.667 102.333 70 159 70c45.333 0 81.666 -11.167 108.999 -33.5s41 -50.5 41 -84.5c0 -22.667 -5 -42.667 -15 -60c-9.33301 -14.667 -21.333 -27.334 -36 -38.001s-37 -24 -67 -40l-28 -15c-30 -17.333 -53.667 -32.333 -71 -45
c-14.667 -11.333 -23.334 -25.666 -26.001 -42.999z" />
    <glyph glyph-name="uni00B3" unicode="&#xb3;" horiz-adv-x="393" 
d="M349 426c0 -36.667 -14.001 -68.167 -42.001 -94.5s-65.667 -39.5 -113 -39.5c-53.333 0 -108 17.333 -164 52l35 50c46.667 -27.333 89.334 -41 128.001 -41c26 0 46.667 6.66699 62 20s23 31 23 53c0 21.333 -8.16699 38.333 -24.5 51s-38.833 19 -67.5 19
c-24.667 0 -42 -2.33301 -52 -7l-31 43l145 119h-199v59h285v-58l-129 -105h4c40.667 0 74.167 -11 100.5 -33s39.5 -51.333 39.5 -88z" />
    <glyph glyph-name="acute" unicode="&#xb4;" horiz-adv-x="282" 
d="M225 706l-92 -141h-76l72 141h96z" />
    <glyph glyph-name="uni00B5" unicode="&#xb5;" horiz-adv-x="539" 
d="M385 492h87v-492h-79v68c-28.667 -54.667 -74.667 -82 -138 -82c-44.667 0 -78.334 11.333 -101.001 34v-203h-87v675h87v-324c0 -71.333 36 -107 108 -107c36.667 0 66.334 11.5 89.001 34.5s34 55.167 34 96.5v300z" />
    <glyph glyph-name="paragraph" unicode="&#xb6;" horiz-adv-x="648" 
d="M412 710v-810.002h-71v372h-77c-68 0 -122.833 19.833 -164.5 59.5s-62.5 92.834 -62.5 159.501s20.833 119.834 62.5 159.501s96.5 59.5 164.5 59.5h148zM567 709.998v-810h-72v810h72z" />
    <glyph glyph-name="middot" unicode="&#xb7;" horiz-adv-x="216" 
d="M159 367v-108h-102v108h102z" />
    <glyph glyph-name="cedilla" unicode="&#xb8;" horiz-adv-x="327" 
d="M270 -145c0 -26.667 -9.83105 -48.333 -29.498 -65s-44.834 -25 -75.501 -25c-35.333 0 -71.333 12 -108 36l25 41c31.333 -18 58.333 -27 81 -27c16 0 28.833 3.5 38.5 10.5s14.5 16.5 14.5 28.5c0 11.333 -5.33301 20.333 -16 27s-24.334 10 -41.001 10
c-11.333 0 -21 -1 -29 -3l-28 27l49 104l43 -19l-31 -67c31.333 1.33301 57 -5.16699 77 -19.5s30 -33.833 30 -58.5z" />
    <glyph glyph-name="uni00B9" unicode="&#xb9;" horiz-adv-x="318" 
d="M165 710h53v-408h-69v323l-75 -55l-35 48z" />
    <glyph glyph-name="ordmasculine" unicode="&#xba;" horiz-adv-x="452" 
d="M411 517c0 -58 -17.333 -105.667 -52 -143s-79 -56 -133 -56c-53.333 0 -97.333 18.667 -132 56s-52 85 -52 143c0 58.667 17.333 106.667 52 144s78.667 56 132 56c54 0 98.333 -18.667 133 -56s52 -85.333 52 -144zM113 517c0 -42 10.167 -75.833 30.5 -101.5
s47.833 -38.5 82.5 -38.5s62.334 12.833 83.001 38.5s31 59.5 31 101.5c0 42.667 -10.333 77 -31 103s-48.334 39 -83.001 39s-62.167 -13 -82.5 -39s-30.5 -60.333 -30.5 -103z" />
    <glyph glyph-name="guillemotright" unicode="&#xbb;" horiz-adv-x="571" 
d="M67 471h85l140 -218l-140 -218h-85l139 218zM285 471h85l140 -218l-140 -218h-85l139 218z" />
    <glyph glyph-name="onequarter" unicode="&#xbc;" horiz-adv-x="879" 
d="M165 680h53v-408h-69v323l-75 -55l-35 48zM626 695l54 -33l-476 -677l-53 34zM792 149h57v-57h-57v-92h-69v92h-207v65l168 251h76l-173 -259h136v86h69v-86z" />
    <glyph glyph-name="onehalf" unicode="&#xbd;" horiz-adv-x="910" 
d="M165 680h53v-408h-69v323l-75 -55l-35 48zM626 695l54 -33l-476 -677l-53 34zM627 59l242.001 0.000976562v-59h-314v28c0 38.667 10.333 70.334 31 95.001s53.667 49 99 73l26 14c33.333 17.333 56.333 31.666 69 42.999s19 26 19 44
c0 19.333 -7.16699 34.166 -21.5 44.499s-33.833 15.5 -58.5 15.5c-37.333 0 -76.666 -18.333 -117.999 -55l-40 46c49.333 46.667 102.333 70 159 70c45.333 0 81.666 -11.167 108.999 -33.5s41 -50.5 41 -84.5c0 -22.667 -5 -42.667 -15 -60
c-9.33301 -14.667 -21.333 -27.334 -36 -38.001s-37 -24 -67 -40l-28 -15c-30 -17.333 -53.667 -32.333 -71 -45c-14.667 -11.333 -23.334 -25.666 -26.001 -42.999z" />
    <glyph glyph-name="threequarters" unicode="&#xbe;" horiz-adv-x="954" 
d="M349 396c0 -36.667 -14.001 -68.167 -42.001 -94.5s-65.667 -39.5 -113 -39.5c-53.333 0 -108 17.333 -164 52l35 50c46.667 -27.333 89.334 -41 128.001 -41c26 0 46.667 6.66699 62 20s23 31 23 53c0 21.333 -8.16699 38.333 -24.5 51s-38.833 19 -67.5 19
c-24.667 0 -42 -2.33301 -52 -7l-31 43l145 119h-199v59h285v-58l-129 -105h4c40.667 0 74.167 -11 100.5 -33s39.5 -51.333 39.5 -88zM700.999 695l54 -33l-476 -677l-53 34zM866.999 149h57v-57h-57v-92h-69v92h-207v65l168 251h76l-173 -259h136v86h69v-86z" />
    <glyph glyph-name="questiondown" unicode="&#xbf;" horiz-adv-x="464" 
d="M205 385v108h102v-108h-102zM6 -52c2 38 11.002 68.666 27.002 91.999s43.667 52.333 83 87l23 20c26 22 45.667 42.333 59 61c10.667 14.667 17.667 34.667 21 60l3 29h71v-35c-1.33301 -40.667 -7 -70.5 -17 -89.5s-35.333 -46.167 -76 -81.5l-20 -17
c-31.333 -26.667 -53 -48.5 -65 -65.5s-18 -36.833 -18 -59.5c0 -31.333 11.5 -56.166 34.5 -74.499s53.5 -27.5 91.5 -27.5c29.333 0 57.166 6.16699 83.499 18.5s57.833 33.833 94.5 64.5l53 -60c-76.667 -68.667 -154.334 -103 -233.001 -103
c-61.333 0 -112.5 16.167 -153.5 48.5s-61.5 76.5 -61.5 132.5z" />
    <glyph glyph-name="Agrave" unicode="&#xc0;" horiz-adv-x="669" 
d="M558 0l-64 181h-320l-64 -181h-93l257 710h121l258 -710h-95zM202 259l264 0.000976562l-33 93c-44.667 119.333 -78 215.666 -100 288.999c-16.667 -56.667 -45.667 -142.667 -87 -258l-11 -32zM206 910.001h96l72 -141h-76z" />
    <glyph glyph-name="Aacute" unicode="&#xc1;" horiz-adv-x="669" 
d="M558 0l-64 181h-320l-64 -181h-93l257 710h121l258 -710h-95zM202 259l264 0.000976562l-33 93c-44.667 119.333 -78 215.666 -100 288.999c-16.667 -56.667 -45.667 -142.667 -87 -258l-11 -32zM462 910.001l-92 -141h-76l72 141h96z" />
    <glyph glyph-name="Acircumflex" unicode="&#xc2;" horiz-adv-x="669" 
d="M558 0l-64 181h-320l-64 -181h-93l257 710h121l258 -710h-95zM202 259l264 0.000976562l-33 93c-44.667 119.333 -78 215.666 -100 288.999c-16.667 -56.667 -45.667 -142.667 -87 -258l-11 -32zM412 769.001l-78 98l-78 -98h-74l98 141h108l98 -141h-74z" />
    <glyph glyph-name="Atilde" unicode="&#xc3;" horiz-adv-x="669" 
d="M558 0l-64 181h-320l-64 -181h-93l257 710h121l258 -710h-95zM202 259l264 0.000976562l-33 93c-44.667 119.333 -78 215.666 -100 288.999c-16.667 -56.667 -45.667 -142.667 -87 -258l-11 -32zM348 859.001c22.667 -15.333 41.334 -23 56.001 -23
c21.333 0 32 17.333 32 52h54c0 -34 -7.33301 -61 -22 -81s-34.334 -30 -59.001 -30c-17.333 0 -43 9.33301 -77 28c-28 16.667 -49.667 25 -65 25c-22.667 0 -34 -17.333 -34 -52h-55c0 34 8.16699 61 24.5 81s37.833 30 64.5 30c20 0 47 -10 81 -30z" />
    <glyph glyph-name="Adieresis" unicode="&#xc4;" horiz-adv-x="669" 
d="M558 0l-64 181h-320l-64 -181h-93l257 710h121l258 -710h-95zM202 259l264 0.000976562l-33 93c-44.667 119.333 -78 215.666 -100 288.999c-16.667 -56.667 -45.667 -142.667 -87 -258l-11 -32zM287 896.001v-103h-84v103h84zM464 896.001v-103h-84v103h84z" />
    <glyph glyph-name="Aring" unicode="&#xc5;" horiz-adv-x="674" 
d="M563 0l-65 182h-323l-65 -182h-93l253 698c-36.667 23.333 -55 56.333 -55 99c0 32.667 11.667 60.667 35 84c24.667 23.333 53.667 35 87 35s62.333 -11.667 87 -35c24 -23.333 36 -51.333 36 -84c0 -43.333 -18.667 -76.333 -56 -99l254 -698h-95zM269 797
c0 -20 6.5 -36.501 19.5 -49.501s29.167 -19.5 48.5 -19.5c20 0 36.333 6.33301 49 19s19 29.334 19 50.001s-6.33301 37.5 -19 50.5s-29 19.5 -49 19.5s-36.333 -6.5 -49 -19.5s-19 -29.833 -19 -50.5zM202 258.999h269l-33 92l-26 74
c-33.333 92.667 -58.666 167 -75.999 223c-24.667 -77.333 -58.334 -176.333 -101.001 -297z" />
    <glyph glyph-name="AE" unicode="&#xc6;" horiz-adv-x="962" 
d="M527 77h389v-77h-482v181h-239l-94 -181h-94l369 710h531v-77h-380v-229h353v-77h-353v-250zM235 259h199v385z" />
    <glyph glyph-name="Ccedilla" unicode="&#xc7;" horiz-adv-x="669" 
d="M476 -145c0 -26.667 -9.83301 -48.333 -29.5 -65s-45.167 -25 -76.5 -25c-34.667 0 -70.667 12 -108 36l26 41c31.333 -18 58.333 -27 81 -27c16 0 28.833 3.5 38.5 10.5s14.5 16.5 14.5 28.5c0 11.333 -5.33301 20.333 -16 27s-24.334 10 -41.001 10
c-11.333 0 -21 -1 -29 -3l-28 27l33 71c-91.333 8.66699 -164 47 -218 115s-81 153 -81 255c0 109.333 30.667 198.333 92 267s144.666 103 249.999 103c47.333 0 90.666 -7.83301 129.999 -23.5s80 -41.5 122 -77.5l-54 -64c-66.667 56 -132.667 84 -198 84
c-75.333 0 -135.666 -26.833 -180.999 -80.5s-68 -123.5 -68 -209.5c0 -84.667 22.5 -154.167 67.5 -208.5s103.5 -81.5 175.5 -81.5c38.667 0 73.834 7.83301 105.501 23.5s67.834 42.5 108.501 80.5l57 -62c-44 -42.667 -85.667 -73.5 -125 -92.5s-83 -29.167 -131 -30.5
l-24 -51c31.333 1.33301 57 -5.16699 77 -19.5s30 -33.833 30 -58.5z" />
    <glyph glyph-name="Egrave" unicode="&#xc8;" horiz-adv-x="609" 
d="M554 710v-77h-380v-229h354v-77h-354v-250h389v-77h-481v710h472zM192 910h96l72 -141h-76z" />
    <glyph glyph-name="Eacute" unicode="&#xc9;" horiz-adv-x="609" 
d="M554 710v-77h-380v-229h354v-77h-354v-250h389v-77h-481v710h472zM448 910l-92 -141h-76l72 141h96z" />
    <glyph glyph-name="Ecircumflex" unicode="&#xca;" horiz-adv-x="609" 
d="M554 710v-77h-380v-229h354v-77h-354v-250h389v-77h-481v710h472zM398 769l-78 98l-78 -98h-74l98 141h108l98 -141h-74z" />
    <glyph glyph-name="Edieresis" unicode="&#xcb;" horiz-adv-x="609" 
d="M554 710v-77h-380v-229h354v-77h-354v-250h389v-77h-481v710h472zM273 896v-103h-84v103h84zM450 896v-103h-84v103h84z" />
    <glyph glyph-name="Igrave" unicode="&#xcc;" horiz-adv-x="270" 
d="M181 710v-710h-92v710h92zM7 910h96l72 -141h-76z" />
    <glyph glyph-name="Iacute" unicode="&#xcd;" horiz-adv-x="270" 
d="M181 710v-710h-92v710h92zM263 910l-92 -141h-76l72 141h96z" />
    <glyph glyph-name="Icircumflex" unicode="&#xce;" horiz-adv-x="270" 
d="M181 710v-710h-92v710h92zM213 769l-78 98l-78 -98h-74l98 141h108l98 -141h-74z" />
    <glyph glyph-name="Idieresis" unicode="&#xcf;" horiz-adv-x="270" 
d="M181 710v-710h-92v710h92zM88 896v-103h-84v103h84zM265 896v-103h-84v103h84z" />
    <glyph glyph-name="Eth" unicode="&#xd0;" horiz-adv-x="731" 
d="M689 355c0 -106.667 -27.833 -192.5 -83.5 -257.5s-132.5 -97.5 -230.5 -97.5h-266v328h-83v77h83v305h266c98 0 174.833 -32.5 230.5 -97.5s83.5 -150.833 83.5 -257.5zM595 355c0 86.667 -20.667 154.667 -62 204s-99 74 -173 74h-158v-228h187v-77h-187v-251h158
c74.667 0 132.5 24.5 173.5 73.5s61.5 117.167 61.5 204.5z" />
    <glyph glyph-name="Ntilde" unicode="&#xd1;" horiz-adv-x="732" 
d="M560 710h90v-710h-102l-210 323c-72 108 -129 198.333 -171 271c3.33301 -108 5 -199.667 5 -275v-319h-90v710h103l213 -328l26 -40c70 -109.333 117 -184.333 141 -225c-3.33301 105.333 -5 195 -5 269v324zM388 859c22.667 -15.333 41.334 -23 56.001 -23
c21.333 0 32 17.333 32 52h54c0 -34 -7.33301 -61 -22 -81s-34.334 -30 -59.001 -30c-17.333 0 -43 9.33301 -77 28c-28 16.667 -49.667 25 -65 25c-22.667 0 -34 -17.333 -34 -52h-55c0 34 8.16699 61 24.5 81s37.833 30 64.5 30c20 0 47 -10 81 -30z" />
    <glyph glyph-name="Ograve" unicode="&#xd2;" horiz-adv-x="758" 
d="M716 355c0 -108 -30.667 -196.833 -92 -266.5s-143 -104.5 -245 -104.5s-183.667 34.833 -245 104.5s-92 158.5 -92 266.5s30.667 196.833 92 266.5s143 104.5 245 104.5s183.667 -34.833 245 -104.5s92 -158.5 92 -266.5zM136 355c0 -85.333 22.5 -155 67.5 -209
s103.5 -81 175.5 -81c72.667 0 131.334 26.833 176.001 80.5s67 123.5 67 209.5c0 85.333 -22.333 155 -67 209s-103.334 81 -176.001 81c-72 0 -130.5 -27.167 -175.5 -81.5s-67.5 -123.833 -67.5 -208.5zM251 910h96l72 -141h-76z" />
    <glyph glyph-name="Oacute" unicode="&#xd3;" horiz-adv-x="758" 
d="M716 355c0 -108 -30.667 -196.833 -92 -266.5s-143 -104.5 -245 -104.5s-183.667 34.833 -245 104.5s-92 158.5 -92 266.5s30.667 196.833 92 266.5s143 104.5 245 104.5s183.667 -34.833 245 -104.5s92 -158.5 92 -266.5zM136 355c0 -85.333 22.5 -155 67.5 -209
s103.5 -81 175.5 -81c72.667 0 131.334 26.833 176.001 80.5s67 123.5 67 209.5c0 85.333 -22.333 155 -67 209s-103.334 81 -176.001 81c-72 0 -130.5 -27.167 -175.5 -81.5s-67.5 -123.833 -67.5 -208.5zM508 910l-92 -141h-76l72 141h96z" />
    <glyph glyph-name="Ocircumflex" unicode="&#xd4;" horiz-adv-x="758" 
d="M716 355c0 -108 -30.667 -196.833 -92 -266.5s-143 -104.5 -245 -104.5s-183.667 34.833 -245 104.5s-92 158.5 -92 266.5s30.667 196.833 92 266.5s143 104.5 245 104.5s183.667 -34.833 245 -104.5s92 -158.5 92 -266.5zM136 355c0 -85.333 22.5 -155 67.5 -209
s103.5 -81 175.5 -81c72.667 0 131.334 26.833 176.001 80.5s67 123.5 67 209.5c0 85.333 -22.333 155 -67 209s-103.334 81 -176.001 81c-72 0 -130.5 -27.167 -175.5 -81.5s-67.5 -123.833 -67.5 -208.5zM457 769l-78 98l-78 -98h-74l98 141h108l98 -141h-74z" />
    <glyph glyph-name="Otilde" unicode="&#xd5;" horiz-adv-x="758" 
d="M716 355c0 -108 -30.667 -196.833 -92 -266.5s-143 -104.5 -245 -104.5s-183.667 34.833 -245 104.5s-92 158.5 -92 266.5s30.667 196.833 92 266.5s143 104.5 245 104.5s183.667 -34.833 245 -104.5s92 -158.5 92 -266.5zM136 355c0 -85.333 22.5 -155 67.5 -209
s103.5 -81 175.5 -81c72.667 0 131.334 26.833 176.001 80.5s67 123.5 67 209.5c0 85.333 -22.333 155 -67 209s-103.334 81 -176.001 81c-72 0 -130.5 -27.167 -175.5 -81.5s-67.5 -123.833 -67.5 -208.5zM393 859c23.333 -15.333 42.001 -23 56.001 -23
c21.333 0 32 17.333 32 52h54c0 -34 -7.33301 -61 -22 -81s-34.334 -30 -59.001 -30c-17.333 0 -43 9.33301 -77 28c-28 16.667 -49.667 25 -65 25c-22.667 0 -34 -17.333 -34 -52h-55c0 34 8.16699 61 24.5 81s37.833 30 64.5 30c20 0 47 -10 81 -30z" />
    <glyph glyph-name="Odieresis" unicode="&#xd6;" horiz-adv-x="758" 
d="M716 355c0 -108 -30.667 -196.833 -92 -266.5s-143 -104.5 -245 -104.5s-183.667 34.833 -245 104.5s-92 158.5 -92 266.5s30.667 196.833 92 266.5s143 104.5 245 104.5s183.667 -34.833 245 -104.5s92 -158.5 92 -266.5zM136 355c0 -85.333 22.5 -155 67.5 -209
s103.5 -81 175.5 -81c72.667 0 131.334 26.833 176.001 80.5s67 123.5 67 209.5c0 85.333 -22.333 155 -67 209s-103.334 81 -176.001 81c-72 0 -130.5 -27.167 -175.5 -81.5s-67.5 -123.833 -67.5 -208.5zM332 896v-103h-84v103h84zM509 896v-103h-84v103h84z" />
    <glyph glyph-name="multiply" unicode="&#xd7;" horiz-adv-x="600" 
d="M529 488l-178 -178l178 -178l-51 -51l-178 178l-178 -178l-52 51l178 178l-178 178l52 52l178 -178l178 178z" />
    <glyph glyph-name="Oslash" unicode="&#xd8;" horiz-adv-x="758" 
d="M716 355c0 -108 -30.667 -196.833 -92 -266.5s-143 -104.5 -245 -104.5c-82 0 -151.333 23 -208 69l-47 -56l-51 43l50 60c-54 69.333 -81 154.333 -81 255c0 108 30.667 196.833 92 266.5s143 104.5 245 104.5c82 0 151.333 -23 208 -69l47 56l51 -43l-50 -60
c54 -69.333 81 -154.333 81 -255zM183 173l348 416.001c-41.333 37.333 -92 56 -152 56c-72 0 -130.5 -27.167 -175.5 -81.5s-67.5 -123.833 -67.5 -208.5c0 -70.667 15.667 -131.334 47 -182.001zM622 355.001c0 70.667 -15.668 131.667 -47.001 183l-348 -417
c41.333 -37.333 92 -56 152 -56c72.667 0 131.334 26.833 176.001 80.5s67 123.5 67 209.5z" />
    <glyph glyph-name="Ugrave" unicode="&#xd9;" horiz-adv-x="688" 
d="M612 710l-0.000976562 -484c0 -78.667 -22.667 -138.5 -68 -179.5s-112 -61.5 -200 -61.5c-87.333 0 -153.666 20.5 -198.999 61.5s-68 100.833 -68 179.5v484h92v-479c0 -54 14.833 -95 44.5 -123s73.167 -42 130.5 -42s100.833 14 130.5 42s44.5 69 44.5 123v479h93z
M215.999 910h96l72 -141h-76z" />
    <glyph glyph-name="Uacute" unicode="&#xda;" horiz-adv-x="688" 
d="M612 710l-0.000976562 -484c0 -78.667 -22.667 -138.5 -68 -179.5s-112 -61.5 -200 -61.5c-87.333 0 -153.666 20.5 -198.999 61.5s-68 100.833 -68 179.5v484h92v-479c0 -54 14.833 -95 44.5 -123s73.167 -42 130.5 -42s100.833 14 130.5 42s44.5 69 44.5 123v479h93z
M471.999 910l-92 -141h-76l72 141h96z" />
    <glyph glyph-name="Ucircumflex" unicode="&#xdb;" horiz-adv-x="688" 
d="M612 710l-0.000976562 -484c0 -78.667 -22.667 -138.5 -68 -179.5s-112 -61.5 -200 -61.5c-87.333 0 -153.666 20.5 -198.999 61.5s-68 100.833 -68 179.5v484h92v-479c0 -54 14.833 -95 44.5 -123s73.167 -42 130.5 -42s100.833 14 130.5 42s44.5 69 44.5 123v479h93z
M421.999 769l-78 98l-78 -98h-74l98 141h108l98 -141h-74z" />
    <glyph glyph-name="Udieresis" unicode="&#xdc;" horiz-adv-x="688" 
d="M612 710l-0.000976562 -484c0 -78.667 -22.667 -138.5 -68 -179.5s-112 -61.5 -200 -61.5c-87.333 0 -153.666 20.5 -198.999 61.5s-68 100.833 -68 179.5v484h92v-479c0 -54 14.833 -95 44.5 -123s73.167 -42 130.5 -42s100.833 14 130.5 42s44.5 69 44.5 123v479h93z
M296.999 896v-103h-84v103h84zM473.999 896v-103h-84v103h84z" />
    <glyph glyph-name="Yacute" unicode="&#xdd;" horiz-adv-x="624" 
d="M509 710h100l-252 -407v-303h-92v304l-250 406h102l196 -325zM440 910l-92 -141h-76l72 141h96z" />
    <glyph glyph-name="Thorn" unicode="&#xde;" horiz-adv-x="651" 
d="M618 369c0 -66 -20.833 -117.833 -62.5 -155.5s-97.834 -56.5 -168.501 -56.5h-213v-157h-92v710h92v-129h213c70.667 0 126.834 -18.833 168.501 -56.5s62.5 -89.5 62.5 -155.5zM526 369c0 43.333 -13.333 76.667 -40 100s-64 35 -112 35h-200v-271h200
c48 0 85.333 11.833 112 35.5s40 57.167 40 100.5z" />
    <glyph glyph-name="germandbls" unicode="&#xdf;" horiz-adv-x="581" 
d="M542 211c0 -61.333 -20 -113.166 -60 -155.499s-92.333 -63.5 -157 -63.5c-33.333 0 -72 5.66699 -116 17l14 69c40.667 -9.33301 72.667 -14 96 -14c40 0 72.667 13.667 98 41s38 63 38 107c0 47.333 -15.5 83.833 -46.5 109.5s-75.5 38.5 -133.5 38.5h-25v68h25
c38.667 0 68.334 10.167 89.001 30.5s31 48.833 31 85.5c0 32 -11 58 -33 78s-50.333 30 -85 30c-40 0 -70.667 -12 -92 -36s-32 -58.667 -32 -104v-512h-86v519c0 64.667 19.167 115 57.5 151s89.5 54 153.5 54c57.333 0 105.166 -17.333 143.499 -52
s57.5 -76.334 57.5 -125.001c0 -68 -27.667 -115 -83 -141c46 -14 81.833 -38 107.5 -72s38.5 -75 38.5 -123z" />
    <glyph glyph-name="agrave" unicode="&#xe0;" horiz-adv-x="532" 
d="M466 342l0.00195312 -342h-78v61c-34.667 -51.333 -90.334 -77 -167.001 -77c-54 0 -96.833 11.667 -128.5 35s-47.5 57.666 -47.5 102.999c0 52.667 19.667 91 59 115c40.667 24.667 97.334 43.334 170.001 56.001l110 20v25c0 30 -10.5 53.667 -31.5 71
s-48.833 26 -83.5 26c-30 0 -56.833 -6.16699 -80.5 -18.5s-50.834 -33.833 -81.501 -64.5l-55 49c59.333 70 130.666 105 213.999 105c62.667 0 111.667 -14.833 147 -44.5s53 -69.5 53 -119.5zM384.002 184v64.998l-90 -18c-61.333 -12.667 -103.5 -25.667 -126.5 -39
s-35.833 -35.666 -38.5 -66.999c0 -22.667 8.83301 -40 26.5 -52s42.5 -18 74.5 -18c44.667 0 81.5 11.833 110.5 35.5s43.5 54.834 43.5 93.501zM144.002 705.998h96l72 -141h-76z" />
    <glyph glyph-name="aacute" unicode="&#xe1;" horiz-adv-x="532" 
d="M466 342l0.00195312 -342h-78v61c-34.667 -51.333 -90.334 -77 -167.001 -77c-54 0 -96.833 11.667 -128.5 35s-47.5 57.666 -47.5 102.999c0 52.667 19.667 91 59 115c40.667 24.667 97.334 43.334 170.001 56.001l110 20v25c0 30 -10.5 53.667 -31.5 71
s-48.833 26 -83.5 26c-30 0 -56.833 -6.16699 -80.5 -18.5s-50.834 -33.833 -81.501 -64.5l-55 49c59.333 70 130.666 105 213.999 105c62.667 0 111.667 -14.833 147 -44.5s53 -69.5 53 -119.5zM384.002 184v64.998l-90 -18c-61.333 -12.667 -103.5 -25.667 -126.5 -39
s-35.833 -35.666 -38.5 -66.999c0 -22.667 8.83301 -40 26.5 -52s42.5 -18 74.5 -18c44.667 0 81.5 11.833 110.5 35.5s43.5 54.834 43.5 93.501zM400.002 705.998l-92 -141h-76l72 141h96z" />
    <glyph glyph-name="acircumflex" unicode="&#xe2;" horiz-adv-x="532" 
d="M466 342l0.00195312 -342h-78v61c-34.667 -51.333 -90.334 -77 -167.001 -77c-54 0 -96.833 11.667 -128.5 35s-47.5 57.666 -47.5 102.999c0 52.667 19.667 91 59 115c40.667 24.667 97.334 43.334 170.001 56.001l110 20v25c0 30 -10.5 53.667 -31.5 71
s-48.833 26 -83.5 26c-30 0 -56.833 -6.16699 -80.5 -18.5s-50.834 -33.833 -81.501 -64.5l-55 49c59.333 70 130.666 105 213.999 105c62.667 0 111.667 -14.833 147 -44.5s53 -69.5 53 -119.5zM384.002 184v64.998l-90 -18c-61.333 -12.667 -103.5 -25.667 -126.5 -39
s-35.833 -35.666 -38.5 -66.999c0 -22.667 8.83301 -40 26.5 -52s42.5 -18 74.5 -18c44.667 0 81.5 11.833 110.5 35.5s43.5 54.834 43.5 93.501zM350.002 564.998l-78 98l-78 -98h-74l98 141h108l98 -141h-74z" />
    <glyph glyph-name="atilde" unicode="&#xe3;" horiz-adv-x="532" 
d="M466 342l0.00195312 -342h-78v61c-34.667 -51.333 -90.334 -77 -167.001 -77c-54 0 -96.833 11.667 -128.5 35s-47.5 57.666 -47.5 102.999c0 52.667 19.667 91 59 115c40.667 24.667 97.334 43.334 170.001 56.001l110 20v25c0 30 -10.5 53.667 -31.5 71
s-48.833 26 -83.5 26c-30 0 -56.833 -6.16699 -80.5 -18.5s-50.834 -33.833 -81.501 -64.5l-55 49c59.333 70 130.666 105 213.999 105c62.667 0 111.667 -14.833 147 -44.5s53 -69.5 53 -119.5zM384.002 184v64.998l-90 -18c-61.333 -12.667 -103.5 -25.667 -126.5 -39
s-35.833 -35.666 -38.5 -66.999c0 -22.667 8.83301 -40 26.5 -52s42.5 -18 74.5 -18c44.667 0 81.5 11.833 110.5 35.5s43.5 54.834 43.5 93.501zM286.002 654.998c22.667 -15.333 41.334 -23 56.001 -23c21.333 0 32 17.333 32 52h54c0 -34 -7.33301 -61 -22 -81
s-34.334 -30 -59.001 -30c-17.333 0 -43 9.33301 -77 28c-28 16.667 -49.667 25 -65 25c-22.667 0 -34 -17.333 -34 -52h-55c0 34 8.16699 61 24.5 81s37.833 30 64.5 30c20 0 47 -10 81 -30z" />
    <glyph glyph-name="adieresis" unicode="&#xe4;" horiz-adv-x="532" 
d="M466 342l0.00195312 -342h-78v61c-34.667 -51.333 -90.334 -77 -167.001 -77c-54 0 -96.833 11.667 -128.5 35s-47.5 57.666 -47.5 102.999c0 52.667 19.667 91 59 115c40.667 24.667 97.334 43.334 170.001 56.001l110 20v25c0 30 -10.5 53.667 -31.5 71
s-48.833 26 -83.5 26c-30 0 -56.833 -6.16699 -80.5 -18.5s-50.834 -33.833 -81.501 -64.5l-55 49c59.333 70 130.666 105 213.999 105c62.667 0 111.667 -14.833 147 -44.5s53 -69.5 53 -119.5zM384.002 184v64.998l-90 -18c-61.333 -12.667 -103.5 -25.667 -126.5 -39
s-35.833 -35.666 -38.5 -66.999c0 -22.667 8.83301 -40 26.5 -52s42.5 -18 74.5 -18c44.667 0 81.5 11.833 110.5 35.5s43.5 54.834 43.5 93.501zM225.002 691.998v-103h-84v103h84zM402.002 691.998v-103h-84v103h84z" />
    <glyph glyph-name="aring" unicode="&#xe5;" horiz-adv-x="532" 
d="M466 342l0.00195312 -342h-78v61c-34.667 -51.333 -90.334 -77 -167.001 -77c-54 0 -96.833 11.667 -128.5 35s-47.5 57.666 -47.5 102.999c0 52.667 19.667 91 59 115c40.667 24.667 97.334 43.334 170.001 56.001l110 20v25c0 30 -10.5 53.667 -31.5 71
s-48.833 26 -83.5 26c-30 0 -56.833 -6.16699 -80.5 -18.5s-50.834 -33.833 -81.501 -64.5l-55 49c59.333 70 130.666 105 213.999 105c62.667 0 111.667 -14.833 147 -44.5s53 -69.5 53 -119.5zM384.002 184v64.998l-90 -18c-61.333 -12.667 -103.5 -25.667 -126.5 -39
s-35.833 -35.666 -38.5 -66.999c0 -22.667 8.83301 -40 26.5 -52s42.5 -18 74.5 -18c44.667 0 81.5 11.833 110.5 35.5s43.5 54.834 43.5 93.501zM380.002 662.998c0 -28 -10.667 -52.667 -32 -74c-21.333 -20 -46.333 -30 -75 -30c-30 0 -55.333 10.167 -76 30.5
s-31 44.833 -31 73.5c0 29.333 10.333 54 31 74s46 30 76 30c29.333 0 54.333 -10.333 75 -31c21.333 -20 32 -44.333 32 -73zM213.002 662.998c0 -18 5.66699 -32.667 17 -44s25.666 -17 42.999 -17s31.5 5.66699 42.5 17s16.5 26 16.5 44s-5.5 32.667 -16.5 44
s-25.167 17 -42.5 17s-31.666 -5.66699 -42.999 -17s-17 -26 -17 -44z" />
    <glyph glyph-name="ae" unicode="&#xe6;" horiz-adv-x="881" 
d="M791 140l51.0049 -51.9971c-34.667 -36.667 -68.834 -62.834 -102.501 -78.501s-71.167 -23.5 -112.5 -23.5c-84 0 -148.333 29.667 -193 89c-56.667 -60.667 -127 -91 -211 -91c-55.333 0 -98.833 11.5 -130.5 34.5s-47.5 56.833 -47.5 101.5
c0 44 15.167 78.667 45.5 104s79.166 44.666 146.499 57.999l147 28v22c0 68.667 -37.333 103 -112 103c-52.667 0 -106.334 -26.333 -161.001 -79l-53 52c33.333 34.667 67.166 59.667 101.499 75s73.166 23 116.499 23c83.333 0 139.333 -26.333 168 -79
c41.333 52.667 99.666 79 174.999 79c70 0 124.5 -21 163.5 -63s58.5 -100 58.5 -174l-2 -39h-369c2.66699 -50.667 17.667 -92 45 -124s65 -48 113 -48c30.667 0 57.334 6 80.001 18c22 11.333 49.667 32.666 83 63.999zM472.005 293.003h285.001
c-2 44.667 -15.167 80 -39.5 106s-57.5 39 -99.5 39c-39.333 0 -71.833 -12.667 -97.5 -38s-41.834 -61 -48.501 -107zM401.006 136.003c-9.33301 28 -15 64.667 -17 110l-125 -26c-46 -9.33301 -79 -21.333 -99 -36s-30 -34 -30 -58c0 -23.333 9 -41 27 -53
s42.667 -18 74 -18c69.333 0 126 27 170 81z" />
    <glyph glyph-name="ccedilla" unicode="&#xe7;" horiz-adv-x="500" 
d="M293 -14l-24.998 -52.998c31.333 1.33301 57 -5.16699 77 -19.5s30 -33.833 30 -58.5c0 -26.667 -9.83301 -48.334 -29.5 -65.001s-45.167 -25 -76.5 -25c-35.333 0 -71 12 -107 36l25 41c31.333 -18 58.333 -27 81 -27c16 0 28.833 3.5 38.5 10.5s14.5 16.5 14.5 28.5
c0 11.333 -5.33301 20.333 -16 27s-24.334 10 -41.001 10c-11.333 0 -21 -1 -29 -3l-28 27l34 73c-62.667 7.33301 -112.334 34.166 -149.001 80.499s-55 105.5 -55 177.5c0 78 22.167 140.833 66.5 188.5s101.833 71.5 172.5 71.5c40.667 0 76.167 -7 106.5 -21
s60.5 -38 90.5 -72l-56 -53c-25.333 27.333 -48.833 46.5 -70.5 57.5s-45.5 16.5 -71.5 16.5c-46.667 0 -83.334 -18.167 -110.001 -54.5s-40 -80.833 -40 -133.5c0 -52 13 -96.333 39 -133c26.667 -36 64 -54 112 -54c26.667 0 50.834 5.83301 72.501 17.5
s46.5 33.167 74.5 64.5l57 -48c-30 -36 -59.5 -62.333 -88.5 -79s-61.833 -26 -98.5 -28z" />
    <glyph glyph-name="egrave" unicode="&#xe8;" horiz-adv-x="534" 
d="M444 140l51 -52c-35.333 -37.333 -69.333 -63.666 -102 -78.999s-70 -23 -112 -23c-74 0 -133.167 23.5 -177.5 70.5s-66.5 109.167 -66.5 186.5s21.5 140.5 64.5 189.5s99.833 73.5 170.5 73.5c70 0 124.5 -21 163.5 -63s58.5 -100 58.5 -174
c0 -9.33301 -0.666992 -22 -2 -38h-369c2.66699 -52 17.667 -93.833 45 -125.5s65.333 -47.5 114 -47.5c30.667 0 57 6 79 18c22 11.333 49.667 32.666 83 63.999zM125 295h283.999c-2 44 -15.167 78.667 -39.5 104s-57.166 38 -98.499 38c-40 0 -72.667 -12.333 -98 -37
s-41.333 -59.667 -48 -105zM153.999 706h96l72 -141h-76z" />
    <glyph glyph-name="eacute" unicode="&#xe9;" horiz-adv-x="534" 
d="M444 140l51 -52c-35.333 -37.333 -69.333 -63.666 -102 -78.999s-70 -23 -112 -23c-74 0 -133.167 23.5 -177.5 70.5s-66.5 109.167 -66.5 186.5s21.5 140.5 64.5 189.5s99.833 73.5 170.5 73.5c70 0 124.5 -21 163.5 -63s58.5 -100 58.5 -174
c0 -9.33301 -0.666992 -22 -2 -38h-369c2.66699 -52 17.667 -93.833 45 -125.5s65.333 -47.5 114 -47.5c30.667 0 57 6 79 18c22 11.333 49.667 32.666 83 63.999zM125 295h283.999c-2 44 -15.167 78.667 -39.5 104s-57.166 38 -98.499 38c-40 0 -72.667 -12.333 -98 -37
s-41.333 -59.667 -48 -105zM409.999 706l-92 -141h-76l72 141h96z" />
    <glyph glyph-name="ecircumflex" unicode="&#xea;" horiz-adv-x="534" 
d="M444 140l51 -52c-35.333 -37.333 -69.333 -63.666 -102 -78.999s-70 -23 -112 -23c-74 0 -133.167 23.5 -177.5 70.5s-66.5 109.167 -66.5 186.5s21.5 140.5 64.5 189.5s99.833 73.5 170.5 73.5c70 0 124.5 -21 163.5 -63s58.5 -100 58.5 -174
c0 -9.33301 -0.666992 -22 -2 -38h-369c2.66699 -52 17.667 -93.833 45 -125.5s65.333 -47.5 114 -47.5c30.667 0 57 6 79 18c22 11.333 49.667 32.666 83 63.999zM125 295h283.999c-2 44 -15.167 78.667 -39.5 104s-57.166 38 -98.499 38c-40 0 -72.667 -12.333 -98 -37
s-41.333 -59.667 -48 -105zM359.999 565l-78 98l-78 -98h-74l98 141h108l98 -141h-74z" />
    <glyph glyph-name="edieresis" unicode="&#xeb;" horiz-adv-x="534" 
d="M444 140l51 -52c-35.333 -37.333 -69.333 -63.666 -102 -78.999s-70 -23 -112 -23c-74 0 -133.167 23.5 -177.5 70.5s-66.5 109.167 -66.5 186.5s21.5 140.5 64.5 189.5s99.833 73.5 170.5 73.5c70 0 124.5 -21 163.5 -63s58.5 -100 58.5 -174
c0 -9.33301 -0.666992 -22 -2 -38h-369c2.66699 -52 17.667 -93.833 45 -125.5s65.333 -47.5 114 -47.5c30.667 0 57 6 79 18c22 11.333 49.667 32.666 83 63.999zM125 295h283.999c-2 44 -15.167 78.667 -39.5 104s-57.166 38 -98.499 38c-40 0 -72.667 -12.333 -98 -37
s-41.333 -59.667 -48 -105zM234.999 692v-103h-84v103h84zM411.999 692v-103h-84v103h84z" />
    <glyph glyph-name="igrave" unicode="&#xec;" horiz-adv-x="220" 
d="M153 492v-492h-86v492h86zM-18 706h96l72 -141h-76z" />
    <glyph glyph-name="iacute" unicode="&#xed;" horiz-adv-x="220" 
d="M153 492v-492h-86v492h86zM239 706l-92 -141h-76l72 141h96z" />
    <glyph glyph-name="icircumflex" unicode="&#xee;" horiz-adv-x="220" 
d="M153 492v-492h-86v492h86zM189 565l-78 98l-78 -98h-74l98 141h108l98 -141h-74z" />
    <glyph glyph-name="idieresis" unicode="&#xef;" horiz-adv-x="220" 
d="M153 492v-492h-86v492h86zM64 692v-103h-84v103h84zM241 692v-103h-84v103h84z" />
    <glyph glyph-name="eth" unicode="&#xf0;" horiz-adv-x="569" 
d="M519 293c0 -95.333 -21.667 -170.667 -65 -226s-103 -83 -179 -83c-70 0 -127.167 24.333 -171.5 73s-66.5 107 -66.5 175c0 67.333 20.333 124.833 61 172.5s93.334 71.5 158.001 71.5c39.333 0 74.5 -8.83301 105.5 -26.5s55.5 -41.834 73.5 -72.501
c-6.66699 44 -19.834 81.833 -39.501 113.5s-48.167 60.167 -85.5 85.5l-103 -67l-31 44l83 53c-20 10 -44 20.667 -72 32l-46 18l32 67l43 -16c44 -16 82.667 -33.667 116 -53l86 55l30 -44l-68 -44c92.667 -73.333 139 -182.666 139 -327.999zM426 230.999
c0 47.333 -15 87.668 -45 121.001s-67.333 50 -112 50c-44 0 -79.333 -16.333 -106 -49c-26 -32.667 -39 -73.334 -39 -122.001s13.667 -89.667 41 -123c28 -32.667 64.667 -49 110 -49c44 0 80.167 16.667 108.5 50s42.5 74 42.5 122z" />
    <glyph glyph-name="ntilde" unicode="&#xf1;" horiz-adv-x="545" 
d="M479 337v-337h-86v310c0 40 -9.66699 70.5 -29 91.5s-47.333 31.5 -84 31.5c-35.333 0 -65.333 -12.333 -90 -37c-24.667 -24 -37 -54.333 -37 -91v-305h-86v492h81v-63c32 51.333 83.667 77 155 77c56 0 99.333 -15.667 130 -47s46 -72 46 -122zM287 655
c22.667 -15.333 41.334 -23 56.001 -23c21.333 0 32 17.333 32 52h54c0 -34 -7.33301 -61 -22 -81s-34.334 -30 -59.001 -30c-17.333 0 -43 9.33301 -77 28c-28 16.667 -49.667 25 -65 25c-22.667 0 -34 -17.333 -34 -52h-55c0 34 8.16699 61 24.5 81s37.833 30 64.5 30
c20 0 47 -10 81 -30z" />
    <glyph glyph-name="ograve" unicode="&#xf2;" horiz-adv-x="561" 
d="M524 246c0 -76.667 -22.667 -139.167 -68 -187.5s-103.666 -72.5 -174.999 -72.5s-129.833 24.167 -175.5 72.5s-68.5 110.833 -68.5 187.5s22.833 139.167 68.5 187.5s104.167 72.5 175.5 72.5s129.666 -24.167 174.999 -72.5s68 -110.833 68 -187.5zM125 246
c0 -56 14.167 -101.333 42.5 -136s66.166 -52 113.499 -52s85 17.167 113 51.5s42 79.833 42 136.5s-14 102.167 -42 136.5s-65.667 51.5 -113 51.5s-85.166 -17.333 -113.499 -52s-42.5 -80 -42.5 -136zM151 706h96l72 -141h-76z" />
    <glyph glyph-name="oacute" unicode="&#xf3;" horiz-adv-x="561" 
d="M524 246c0 -76.667 -22.667 -139.167 -68 -187.5s-103.666 -72.5 -174.999 -72.5s-129.833 24.167 -175.5 72.5s-68.5 110.833 -68.5 187.5s22.833 139.167 68.5 187.5s104.167 72.5 175.5 72.5s129.666 -24.167 174.999 -72.5s68 -110.833 68 -187.5zM125 246
c0 -56 14.167 -101.333 42.5 -136s66.166 -52 113.499 -52s85 17.167 113 51.5s42 79.833 42 136.5s-14 102.167 -42 136.5s-65.667 51.5 -113 51.5s-85.166 -17.333 -113.499 -52s-42.5 -80 -42.5 -136zM407 706l-92 -141h-76l72 141h96z" />
    <glyph glyph-name="ocircumflex" unicode="&#xf4;" horiz-adv-x="561" 
d="M524 246c0 -76.667 -22.667 -139.167 -68 -187.5s-103.666 -72.5 -174.999 -72.5s-129.833 24.167 -175.5 72.5s-68.5 110.833 -68.5 187.5s22.833 139.167 68.5 187.5s104.167 72.5 175.5 72.5s129.666 -24.167 174.999 -72.5s68 -110.833 68 -187.5zM125 246
c0 -56 14.167 -101.333 42.5 -136s66.166 -52 113.499 -52s85 17.167 113 51.5s42 79.833 42 136.5s-14 102.167 -42 136.5s-65.667 51.5 -113 51.5s-85.166 -17.333 -113.499 -52s-42.5 -80 -42.5 -136zM357 565l-78 98l-78 -98h-74l98 141h108l98 -141h-74z" />
    <glyph glyph-name="otilde" unicode="&#xf5;" horiz-adv-x="561" 
d="M524 246c0 -76.667 -22.667 -139.167 -68 -187.5s-103.666 -72.5 -174.999 -72.5s-129.833 24.167 -175.5 72.5s-68.5 110.833 -68.5 187.5s22.833 139.167 68.5 187.5s104.167 72.5 175.5 72.5s129.666 -24.167 174.999 -72.5s68 -110.833 68 -187.5zM125 246
c0 -56 14.167 -101.333 42.5 -136s66.166 -52 113.499 -52s85 17.167 113 51.5s42 79.833 42 136.5s-14 102.167 -42 136.5s-65.667 51.5 -113 51.5s-85.166 -17.333 -113.499 -52s-42.5 -80 -42.5 -136zM293 655c22.667 -15.333 41.334 -23 56.001 -23
c21.333 0 32 17.333 32 52h54c0 -34 -7.33301 -61 -22 -81s-34.334 -30 -59.001 -30c-17.333 0 -43 9.33301 -77 28c-28 16.667 -49.667 25 -65 25c-22.667 0 -34 -17.333 -34 -52h-55c0 34 8.16699 61 24.5 81s37.833 30 64.5 30c20 0 47 -10 81 -30z" />
    <glyph glyph-name="odieresis" unicode="&#xf6;" horiz-adv-x="561" 
d="M524 246c0 -76.667 -22.667 -139.167 -68 -187.5s-103.666 -72.5 -174.999 -72.5s-129.833 24.167 -175.5 72.5s-68.5 110.833 -68.5 187.5s22.833 139.167 68.5 187.5s104.167 72.5 175.5 72.5s129.666 -24.167 174.999 -72.5s68 -110.833 68 -187.5zM125 246
c0 -56 14.167 -101.333 42.5 -136s66.166 -52 113.499 -52s85 17.167 113 51.5s42 79.833 42 136.5s-14 102.167 -42 136.5s-65.667 51.5 -113 51.5s-85.166 -17.333 -113.499 -52s-42.5 -80 -42.5 -136zM232 692v-103h-84v103h84zM409 692v-103h-84v103h84z" />
    <glyph glyph-name="divide" unicode="&#xf7;" horiz-adv-x="600" 
d="M351 543v-109h-102v109h102zM560 347v-74h-520v74h520zM351 186v-109h-102v109h102z" />
    <glyph glyph-name="oslash" unicode="&#xf8;" horiz-adv-x="561" 
d="M524 246c0 -76.667 -22.668 -139.166 -68.001 -187.499s-103.666 -72.5 -174.999 -72.5c-46.667 0 -88.667 10.667 -126 32l-28 -40l-48 35l29 42c-47.333 49.333 -71 113 -71 191c0 76.667 22.833 139.167 68.5 187.5s104.167 72.5 175.5 72.5
c46 0 86.667 -10.333 122 -31l29 42l49 -34l-30 -43c48.667 -48.667 73 -113.334 73 -194.001zM156.999 124.001l201.999 289c-24 14 -50 21 -78 21c-47.333 0 -85.166 -17.333 -113.499 -52s-42.5 -80 -42.5 -136c0 -48 10.667 -88.667 32 -122zM435.998 246.001
c0 50 -11.332 91.667 -33.999 125l-203 -290c23.333 -15.333 50.666 -23 81.999 -23c47.333 0 85 17.167 113 51.5s42 79.833 42 136.5z" />
    <glyph glyph-name="ugrave" unicode="&#xf9;" horiz-adv-x="537" 
d="M384 492l85.999 0.000976562v-492h-80v61c-30 -50 -79.667 -75 -149 -75c-58 0 -101.667 14.333 -131 43s-44 68 -44 118v345h86v-324c0 -72 34.333 -108 103 -108c38.667 0 69.834 11.667 93.501 35s35.5 55.666 35.5 96.999v300zM131.999 706.001h96l72 -141h-76z" />
    <glyph glyph-name="uacute" unicode="&#xfa;" horiz-adv-x="537" 
d="M384 492l85.999 0.000976562v-492h-80v61c-30 -50 -79.667 -75 -149 -75c-58 0 -101.667 14.333 -131 43s-44 68 -44 118v345h86v-324c0 -72 34.333 -108 103 -108c38.667 0 69.834 11.667 93.501 35s35.5 55.666 35.5 96.999v300zM388.999 706.001l-92 -141h-76l72 141
h96z" />
    <glyph glyph-name="ucircumflex" unicode="&#xfb;" horiz-adv-x="537" 
d="M384 492l85.999 0.000976562v-492h-80v61c-30 -50 -79.667 -75 -149 -75c-58 0 -101.667 14.333 -131 43s-44 68 -44 118v345h86v-324c0 -72 34.333 -108 103 -108c38.667 0 69.834 11.667 93.501 35s35.5 55.666 35.5 96.999v300zM338.999 565.001l-78 98l-78 -98h-74
l98 141h108l98 -141h-74z" />
    <glyph glyph-name="udieresis" unicode="&#xfc;" horiz-adv-x="537" 
d="M384 492l85.999 0.000976562v-492h-80v61c-30 -50 -79.667 -75 -149 -75c-58 0 -101.667 14.333 -131 43s-44 68 -44 118v345h86v-324c0 -72 34.333 -108 103 -108c38.667 0 69.834 11.667 93.501 35s35.5 55.666 35.5 96.999v300zM213.999 692.001v-103h-84v103h84z
M390.999 692.001v-103h-84v103h84z" />
    <glyph glyph-name="yacute" unicode="&#xfd;" horiz-adv-x="484" 
d="M379 492l87.002 0.000976562l-197 -560c-16.667 -46.667 -35.334 -79.167 -56.001 -97.5s-51.334 -27.5 -92.001 -27.5c-28.667 0 -54 3.33301 -76 10l15 66c18 -4 35.667 -6 53 -6c20.667 0 37.167 5.66699 49.5 17s23.5 31.666 33.5 60.999l6 19l-185 518h91l55 -163
l73 -218l8 -25l30 91l50 154zM369.002 706.001l-92 -141h-76l72 141h96z" />
    <glyph glyph-name="thorn" unicode="&#xfe;" horiz-adv-x="572" 
d="M533 247c0 -77.333 -20.333 -140 -61 -188s-92.667 -72 -156 -72c-74 0 -128.333 26.333 -163 79v-246h-86v890h86v-286c36.667 54 91 81 163 81c63.333 0 115.333 -24 156 -72s61 -110 61 -186zM445 247c0 56 -12.833 100.832 -38.5 134.499s-60.167 50.5 -103.5 50.5
c-46 0 -83 -16.667 -111 -50s-42 -78.333 -42 -135c0 -57.333 14 -102.666 42 -135.999s65 -50 111 -50c42.667 0 77 17 103 51s39 79 39 135z" />
    <glyph glyph-name="ydieresis" unicode="&#xff;" horiz-adv-x="484" 
d="M379 492l87.002 0.000976562l-197 -560c-16.667 -46.667 -35.334 -79.167 -56.001 -97.5s-51.334 -27.5 -92.001 -27.5c-28.667 0 -54 3.33301 -76 10l15 66c18 -4 35.667 -6 53 -6c20.667 0 37.167 5.66699 49.5 17s23.5 31.666 33.5 60.999l6 19l-185 518h91l55 -163
l73 -218l8 -25l30 91l50 154zM194.002 692.001v-103h-84v103h84zM371.002 692.001v-103h-84v103h84z" />
    <glyph glyph-name="Amacron" unicode="&#x100;" horiz-adv-x="669" 
d="M558 0l-64 181h-320l-64 -181h-93l257 710h121l258 -710h-95zM202 259l264 0.000976562l-33 93c-44.667 119.333 -78 215.666 -100 288.999c-16.667 -56.667 -45.667 -142.667 -87 -258l-11 -32zM474 864.001v-66h-279v66h279z" />
    <glyph glyph-name="amacron" unicode="&#x101;" horiz-adv-x="532" 
d="M466 342l0.00195312 -342h-78v61c-34.667 -51.333 -90.334 -77 -167.001 -77c-54 0 -96.833 11.667 -128.5 35s-47.5 57.666 -47.5 102.999c0 52.667 19.667 91 59 115c40.667 24.667 97.334 43.334 170.001 56.001l110 20v25c0 30 -10.5 53.667 -31.5 71
s-48.833 26 -83.5 26c-30 0 -56.833 -6.16699 -80.5 -18.5s-50.834 -33.833 -81.501 -64.5l-55 49c59.333 70 130.666 105 213.999 105c62.667 0 111.667 -14.833 147 -44.5s53 -69.5 53 -119.5zM384.002 184v64.998l-90 -18c-61.333 -12.667 -103.5 -25.667 -126.5 -39
s-35.833 -35.666 -38.5 -66.999c0 -22.667 8.83301 -40 26.5 -52s42.5 -18 74.5 -18c44.667 0 81.5 11.833 110.5 35.5s43.5 54.834 43.5 93.501zM412.002 659.998v-66h-279v66h279z" />
    <glyph glyph-name="Abreve" unicode="&#x102;" horiz-adv-x="669" 
d="M558 0l-64 181h-320l-64 -181h-93l257 710h121l258 -710h-95zM202 259l264 0.000976562l-33 93c-44.667 119.333 -78 215.666 -100 288.999c-16.667 -56.667 -45.667 -142.667 -87 -258l-11 -32zM190 894.001h62.999c0.666992 -22 8 -39.667 22 -53s33.667 -20 59 -20
s44.833 6.5 58.5 19.5s21.167 30.833 22.5 53.5h62c0 -40 -13.167 -71.833 -39.5 -95.5s-60.833 -35.5 -103.5 -35.5c-43.333 0 -78.166 11.833 -104.499 35.5s-39.5 55.5 -39.5 95.5z" />
    <glyph glyph-name="abreve" unicode="&#x103;" horiz-adv-x="532" 
d="M466 342l0.00195312 -342h-78v61c-34.667 -51.333 -90.334 -77 -167.001 -77c-54 0 -96.833 11.667 -128.5 35s-47.5 57.666 -47.5 102.999c0 52.667 19.667 91 59 115c40.667 24.667 97.334 43.334 170.001 56.001l110 20v25c0 30 -10.5 53.667 -31.5 71
s-48.833 26 -83.5 26c-30 0 -56.833 -6.16699 -80.5 -18.5s-50.834 -33.833 -81.501 -64.5l-55 49c59.333 70 130.666 105 213.999 105c62.667 0 111.667 -14.833 147 -44.5s53 -69.5 53 -119.5zM384.002 184v64.998l-90 -18c-61.333 -12.667 -103.5 -25.667 -126.5 -39
s-35.833 -35.666 -38.5 -66.999c0 -22.667 8.83301 -40 26.5 -52s42.5 -18 74.5 -18c44.667 0 81.5 11.833 110.5 35.5s43.5 54.834 43.5 93.501zM128.002 689.998h62.999c0.666992 -22 8 -39.667 22 -53s33.667 -20 59 -20s44.833 6.5 58.5 19.5s21.167 30.833 22.5 53.5
h62c0 -40 -13.167 -71.833 -39.5 -95.5s-60.833 -35.5 -103.5 -35.5c-43.333 0 -78.166 11.833 -104.499 35.5s-39.5 55.5 -39.5 95.5z" />
    <glyph glyph-name="Aogonek" unicode="&#x104;" horiz-adv-x="669" 
d="M624 -152c10.667 0 19.332 0.998047 25.999 2.99805v-54c-9.33301 -4 -22 -6 -38 -6c-31.333 0 -56.166 7.33301 -74.499 22s-27.5 35.334 -27.5 62.001c0 44.667 24 86.334 72 125.001h-24l-64 181h-320l-64 -181h-93l257 710h121l258 -710
c-53.333 -36 -80 -72.667 -80 -110c0 -28 17 -42 51 -42zM201.998 258.998l264 0.000976562l-33 93c-44.667 119.333 -78 215.666 -100 288.999c-16.667 -56.667 -45.667 -142.667 -87 -258l-11 -32z" />
    <glyph glyph-name="aogonek" unicode="&#x105;" horiz-adv-x="532" 
d="M387 -110c0 -28 17.001 -42.002 51.001 -42.002c10 0 18.667 1 26 3v-54c-9.33301 -4 -22 -6 -38 -6c-31.333 0 -56.166 7.33301 -74.499 22s-27.5 35.334 -27.5 62.001c0 44.667 24 86.334 72 125.001h-8v61c-34.667 -51.333 -90.334 -77 -167.001 -77
c-54 0 -96.833 11.667 -128.5 35s-47.5 57.666 -47.5 102.999c0 52.667 19.667 91 59 115c40.667 24.667 97.334 43.334 170.001 56.001l110 20v25c0 30 -10.5 53.667 -31.5 71s-48.833 26 -83.5 26c-30 0 -56.833 -6.16699 -80.5 -18.5s-50.834 -33.833 -81.501 -64.5
l-55 49c59.333 70 130.666 105 213.999 105c62.667 0 111.667 -14.833 147 -44.5s53 -69.5 53 -119.5v-342c-52.667 -36 -79 -72.667 -79 -110zM384.001 183.998v64.998l-90 -18c-61.333 -12.667 -103.5 -25.667 -126.5 -39s-35.833 -35.666 -38.5 -66.999
c0 -22.667 8.83301 -40 26.5 -52s42.5 -18 74.5 -18c44.667 0 81.5 11.833 110.5 35.5s43.5 54.834 43.5 93.501z" />
    <glyph glyph-name="Cacute" unicode="&#x106;" horiz-adv-x="669" 
d="M636 625l-54.001 -63.999c-66.667 56 -132.667 84 -198 84c-75.333 0 -135.666 -26.833 -180.999 -80.5s-68 -123.5 -68 -209.5c0 -84.667 22.5 -154.167 67.5 -208.5s103.5 -81.5 175.5 -81.5c38.667 0 73.834 7.83301 105.501 23.5s67.834 42.5 108.501 80.5l57 -62
c-46.667 -44 -90.5 -75.5 -131.5 -94.5s-87.167 -28.5 -138.5 -28.5c-102 0 -183.667 34.667 -245 104s-92 158.666 -92 267.999s30.667 198.333 92 267s144.666 103 249.999 103c47.333 0 90.666 -7.83301 129.999 -23.5s80 -41.5 122 -77.5zM513.999 910.001l-92 -141h-76
l72 141h96z" />
    <glyph glyph-name="cacute" unicode="&#x107;" horiz-adv-x="500" 
d="M275 434c-46.667 0 -83.335 -18.167 -110.002 -54.5s-40 -80.833 -40 -133.5c0 -52 13 -96.333 39 -133c26.667 -36 64 -54 112 -54c26.667 0 50.834 5.83301 72.501 17.5s46.5 33.167 74.5 64.5l57 -48c-31.333 -39.333 -62.666 -67 -93.999 -83s-68 -24 -110 -24
c-72 0 -129.833 23.667 -173.5 71s-65.5 110.333 -65.5 189c0 78 22.167 140.833 66.5 188.5s101.833 71.5 172.5 71.5c40.667 0 76.167 -7 106.5 -21s60.5 -38 90.5 -72l-56 -53c-25.333 27.333 -48.833 46.5 -70.5 57.5s-45.5 16.5 -71.5 16.5zM401.999 706l-92 -141h-76
l72 141h96z" />
    <glyph glyph-name="Cdotaccent" unicode="&#x10a;" horiz-adv-x="669" 
d="M636 625l-54.001 -63.999c-66.667 56 -132.667 84 -198 84c-75.333 0 -135.666 -26.833 -180.999 -80.5s-68 -123.5 -68 -209.5c0 -84.667 22.5 -154.167 67.5 -208.5s103.5 -81.5 175.5 -81.5c38.667 0 73.834 7.83301 105.501 23.5s67.834 42.5 108.501 80.5l57 -62
c-46.667 -44 -90.5 -75.5 -131.5 -94.5s-87.167 -28.5 -138.5 -28.5c-102 0 -183.667 34.667 -245 104s-92 158.666 -92 267.999s30.667 198.333 92 267s144.666 103 249.999 103c47.333 0 90.666 -7.83301 129.999 -23.5s80 -41.5 122 -77.5zM428.999 896.001v-103h-86v103
h86z" />
    <glyph glyph-name="cdotaccent" unicode="&#x10b;" horiz-adv-x="500" 
d="M275 434c-46.667 0 -83.335 -18.167 -110.002 -54.5s-40 -80.833 -40 -133.5c0 -52 13 -96.333 39 -133c26.667 -36 64 -54 112 -54c26.667 0 50.834 5.83301 72.501 17.5s46.5 33.167 74.5 64.5l57 -48c-31.333 -39.333 -62.666 -67 -93.999 -83s-68 -24 -110 -24
c-72 0 -129.833 23.667 -173.5 71s-65.5 110.333 -65.5 189c0 78 22.167 140.833 66.5 188.5s101.833 71.5 172.5 71.5c40.667 0 76.167 -7 106.5 -21s60.5 -38 90.5 -72l-56 -53c-25.333 27.333 -48.833 46.5 -70.5 57.5s-45.5 16.5 -71.5 16.5zM315.999 692v-103h-86v103
h86z" />
    <glyph glyph-name="Ccaron" unicode="&#x10c;" horiz-adv-x="669" 
d="M636 625l-54.001 -63.999c-66.667 56 -132.667 84 -198 84c-75.333 0 -135.666 -26.833 -180.999 -80.5s-68 -123.5 -68 -209.5c0 -84.667 22.5 -154.167 67.5 -208.5s103.5 -81.5 175.5 -81.5c38.667 0 73.834 7.83301 105.501 23.5s67.834 42.5 108.501 80.5l57 -62
c-46.667 -44 -90.5 -75.5 -131.5 -94.5s-87.167 -28.5 -138.5 -28.5c-102 0 -183.667 34.667 -245 104s-92 158.666 -92 267.999s30.667 198.333 92 267s144.666 103 249.999 103c47.333 0 90.666 -7.83301 129.999 -23.5s80 -41.5 122 -77.5zM537.999 910.001l-98 -141
h-108l-98 141h74l78 -99l78 99h74z" />
    <glyph glyph-name="ccaron" unicode="&#x10d;" horiz-adv-x="500" 
d="M275 434c-46.667 0 -83.335 -18.167 -110.002 -54.5s-40 -80.833 -40 -133.5c0 -52 13 -96.333 39 -133c26.667 -36 64 -54 112 -54c26.667 0 50.834 5.83301 72.501 17.5s46.5 33.167 74.5 64.5l57 -48c-31.333 -39.333 -62.666 -67 -93.999 -83s-68 -24 -110 -24
c-72 0 -129.833 23.667 -173.5 71s-65.5 110.333 -65.5 189c0 78 22.167 140.833 66.5 188.5s101.833 71.5 172.5 71.5c40.667 0 76.167 -7 106.5 -21s60.5 -38 90.5 -72l-56 -53c-25.333 27.333 -48.833 46.5 -70.5 57.5s-45.5 16.5 -71.5 16.5zM424.999 706l-98 -141h-108
l-98 141h74l78 -99l78 99h74z" />
    <glyph glyph-name="Dcaron" unicode="&#x10e;" horiz-adv-x="703" 
d="M661 355c0 -106.667 -27.833 -192.5 -83.5 -257.5s-132.5 -97.5 -230.5 -97.5h-265v710h265c98 0 174.833 -32.5 230.5 -97.5s83.5 -150.833 83.5 -257.5zM332 633h-158v-556h158c74.667 0 132.5 24.5 173.5 73.5s61.5 117.167 61.5 204.5
c0 86.667 -20.667 154.667 -62 204s-99 74 -173 74zM498 910l-98 -141h-108l-98 141h74l78 -99l78 99h74z" />
    <glyph glyph-name="dcaron" unicode="&#x10f;" horiz-adv-x="716" 
d="M417 710h86.001v-710h-81v76c-36.667 -59.333 -92.667 -89 -168 -89c-63.333 0 -115.333 24 -156 72s-61 110.333 -61 187s20.667 139 62 187s93.666 72 156.999 72c71.333 0 125 -26.333 161 -79v284zM420.001 246c0 56.667 -14 101.666 -42 134.999s-65 50 -111 50
c-42.667 0 -77 -17 -103 -51s-39 -78.667 -39 -134c0 -56 12.833 -101 38.5 -135s60.167 -51 103.5 -51c46 0 83 16.833 111 50.5s42 78.834 42 135.501zM705.001 709.999l-61 -198h-55l30 198h86z" />
    <glyph glyph-name="Dcroat" unicode="&#x110;" horiz-adv-x="731" 
d="M689 355c0 -106.667 -27.833 -192.5 -83.5 -257.5s-132.5 -97.5 -230.5 -97.5h-266v328h-83v77h83v305h266c98 0 174.833 -32.5 230.5 -97.5s83.5 -150.833 83.5 -257.5zM595 355c0 86.667 -20.667 154.667 -62 204s-99 74 -173 74h-158v-228h187v-77h-187v-251h158
c74.667 0 132.5 24.5 173.5 73.5s61.5 117.167 61.5 204.5z" />
    <glyph glyph-name="dslash" unicode="&#x111;" horiz-adv-x="592" 
d="M577 628l0.00195312 -62h-73v-566h-79v78c-36 -60.667 -92.333 -91 -169 -91c-63.333 0 -115.333 23.833 -156 71.5s-61 109.5 -61 185.5s20.667 137.833 62 185.5s93.666 71.5 156.999 71.5c71.333 0 124.666 -25.667 159.999 -77v142h-124v62h124v82h86v-82h73z
M422.002 244c0 56 -14 100.667 -42 134s-65 50 -111 50c-42.667 0 -77 -16.833 -103 -50.5s-39 -78.167 -39 -133.5c0 -54.667 12.833 -99 38.5 -133s60.167 -51 103.5 -51c46 0 83 16.667 111 50s42 78 42 134z" />
    <glyph glyph-name="Emacron" unicode="&#x112;" horiz-adv-x="609" 
d="M554 710v-77h-380v-229h354v-77h-354v-250h389v-77h-481v710h472zM459 864v-66h-279v66h279z" />
    <glyph glyph-name="emacron" unicode="&#x113;" horiz-adv-x="534" 
d="M444 140l51 -52c-35.333 -37.333 -69.333 -63.666 -102 -78.999s-70 -23 -112 -23c-74 0 -133.167 23.5 -177.5 70.5s-66.5 109.167 -66.5 186.5s21.5 140.5 64.5 189.5s99.833 73.5 170.5 73.5c70 0 124.5 -21 163.5 -63s58.5 -100 58.5 -174
c0 -9.33301 -0.666992 -22 -2 -38h-369c2.66699 -52 17.667 -93.833 45 -125.5s65.333 -47.5 114 -47.5c30.667 0 57 6 79 18c22 11.333 49.667 32.666 83 63.999zM125 295h283.999c-2 44 -15.167 78.667 -39.5 104s-57.166 38 -98.499 38c-40 0 -72.667 -12.333 -98 -37
s-41.333 -59.667 -48 -105zM420.999 660v-66h-279v66h279z" />
    <glyph glyph-name="Edotaccent" unicode="&#x116;" horiz-adv-x="609" 
d="M554 710v-77h-380v-229h354v-77h-354v-250h389v-77h-481v710h472zM363 896v-103h-86v103h86z" />
    <glyph glyph-name="edotaccent" unicode="&#x117;" horiz-adv-x="534" 
d="M444 140l51 -52c-35.333 -37.333 -69.333 -63.666 -102 -78.999s-70 -23 -112 -23c-74 0 -133.167 23.5 -177.5 70.5s-66.5 109.167 -66.5 186.5s21.5 140.5 64.5 189.5s99.833 73.5 170.5 73.5c70 0 124.5 -21 163.5 -63s58.5 -100 58.5 -174
c0 -9.33301 -0.666992 -22 -2 -38h-369c2.66699 -52 17.667 -93.833 45 -125.5s65.333 -47.5 114 -47.5c30.667 0 57 6 79 18c22 11.333 49.667 32.666 83 63.999zM125 295h283.999c-2 44 -15.167 78.667 -39.5 104s-57.166 38 -98.499 38c-40 0 -72.667 -12.333 -98 -37
s-41.333 -59.667 -48 -105zM323.999 692v-103h-86v103h86z" />
    <glyph glyph-name="Eogonek" unicode="&#x118;" horiz-adv-x="609" 
d="M483 -110c0 -28 17 -42.002 51 -42.002c10.667 0 19.667 1 27 3v-54c-8.66699 -4 -21.334 -6 -38.001 -6c-31.333 0 -56.166 7.33301 -74.499 22s-27.5 35.334 -27.5 62.001c0 44.667 24 86.334 72 125.001h-411v710h472v-77h-380v-229h354v-77h-354v-250h389v-77
c-53.333 -37.333 -80 -74 -80 -110z" />
    <glyph glyph-name="eogonek" unicode="&#x119;" horiz-adv-x="534" 
d="M297 -119c0 38 15.668 75.333 47.001 112c-18 -4.66699 -39.333 -7 -64 -7c-74 0 -133 23.5 -177 70.5s-66 109.167 -66 186.5s21.5 140.5 64.5 189.5s99.833 73.5 170.5 73.5c70 0 124.5 -21 163.5 -63s58.5 -100 58.5 -174c0 -9.33301 -0.666992 -22 -2 -38h-370
c4 -52 19.5 -93.833 46.5 -125.5s64.5 -47.5 112.5 -47.5c30 0 56.667 6 80 18c22 11.333 49.667 32.666 83 63.999l51 -52c-12.667 -14 -27.667 -28.333 -45 -43c-59.333 -54.667 -89 -104.667 -89 -150c0 -31.333 18 -47 54 -47c11.333 0 20.333 1 27 3v-55
c-8.66699 -3.33301 -21.334 -5 -38.001 -5c-32.667 0 -58.667 7.83301 -78 23.5s-29 37.834 -29 66.501zM125.001 295h282.998c-1.33301 44 -14.166 78.667 -38.499 104s-57.166 38 -98.499 38c-40 0 -72.667 -12.167 -98 -36.5s-41.333 -59.5 -48 -105.5z" />
    <glyph glyph-name="Ecaron" unicode="&#x11a;" horiz-adv-x="609" 
d="M554 710v-77h-380v-229h354v-77h-354v-250h389v-77h-481v710h472zM472 910l-98 -141h-108l-98 141h74l78 -99l78 99h74z" />
    <glyph glyph-name="ecaron" unicode="&#x11b;" horiz-adv-x="534" 
d="M444 140l51 -52c-35.333 -37.333 -69.333 -63.666 -102 -78.999s-70 -23 -112 -23c-74 0 -133.167 23.5 -177.5 70.5s-66.5 109.167 -66.5 186.5s21.5 140.5 64.5 189.5s99.833 73.5 170.5 73.5c70 0 124.5 -21 163.5 -63s58.5 -100 58.5 -174
c0 -9.33301 -0.666992 -22 -2 -38h-369c2.66699 -52 17.667 -93.833 45 -125.5s65.333 -47.5 114 -47.5c30.667 0 57 6 79 18c22 11.333 49.667 32.666 83 63.999zM125 295h283.999c-2 44 -15.167 78.667 -39.5 104s-57.166 38 -98.499 38c-40 0 -72.667 -12.333 -98 -37
s-41.333 -59.667 -48 -105zM433.999 706l-98 -141h-108l-98 141h74l78 -99l78 99h74z" />
    <glyph glyph-name="Gbreve" unicode="&#x11e;" horiz-adv-x="741" 
d="M362 294l-0.000976562 78.001h313v-372h-72l-7 90c-44 -70 -117.667 -105 -221 -105s-184.666 34 -243.999 102s-89 157.333 -89 268c0 109.333 31 198.333 93 267s145.667 103 251 103c56.667 0 108 -10.833 154 -32.5s91.333 -55.834 136 -102.501l-59 -60
c-42 42 -80 71.333 -114 88c-34.667 17.333 -74.334 26 -119.001 26c-74 0 -134 -26.667 -180 -80s-69 -123 -69 -209c0 -88 22.167 -158.333 66.5 -211s103.833 -79 178.5 -79c62.667 0 113.334 18 152.001 54s58 85 58 147v28h-228zM240.999 894.001h62.999
c0.666992 -22 8 -39.667 22 -53s33.667 -20 59 -20s44.833 6.5 58.5 19.5s21.167 30.833 22.5 53.5h62c0 -40 -13.167 -71.833 -39.5 -95.5s-60.833 -35.5 -103.5 -35.5c-43.333 0 -78.166 11.833 -104.499 35.5s-39.5 55.5 -39.5 95.5z" />
    <glyph glyph-name="gbreve" unicode="&#x11f;" horiz-adv-x="565" 
d="M418 492h80v-481c0 -63.333 -20 -113.166 -60 -149.499s-94.333 -54.5 -163 -54.5c-80 0 -154.333 24.333 -223 73l43 63c36 -22.667 67.333 -38.834 94 -48.501s55 -14.5 85 -14.5c43.333 0 77.333 11.5 102 34.5s37 57.5 37 103.5v67c-34.667 -52.667 -87 -79 -157 -79
c-62.667 0 -114.334 23.5 -155.001 70.5s-61 106.833 -61 179.5s20.333 132.5 61 179.5s92.334 70.5 155.001 70.5c73.333 0 127.333 -29 162 -87v73zM415 256c0 52 -13.333 94.498 -40 127.498s-61.667 49.5 -105 49.5s-77.833 -16.167 -103.5 -48.5
s-38.5 -75.166 -38.5 -128.499s12.833 -96.166 38.5 -128.499s60.167 -48.5 103.5 -48.5s78.333 16.5 105 49.5s40 75.5 40 127.5zM140 689.998h62.999c0.666992 -22 8 -39.667 22 -53s33.667 -20 59 -20s44.833 6.5 58.5 19.5s21.167 30.833 22.5 53.5h62
c0 -40 -13.167 -71.833 -39.5 -95.5s-60.833 -35.5 -103.5 -35.5c-43.333 0 -78.166 11.833 -104.499 35.5s-39.5 55.5 -39.5 95.5z" />
    <glyph glyph-name="Gdotaccent" unicode="&#x120;" horiz-adv-x="741" 
d="M362 294l-0.000976562 78.001h313v-372h-72l-7 90c-44 -70 -117.667 -105 -221 -105s-184.666 34 -243.999 102s-89 157.333 -89 268c0 109.333 31 198.333 93 267s145.667 103 251 103c56.667 0 108 -10.833 154 -32.5s91.333 -55.834 136 -102.501l-59 -60
c-42 42 -80 71.333 -114 88c-34.667 17.333 -74.334 26 -119.001 26c-74 0 -134 -26.667 -180 -80s-69 -123 -69 -209c0 -88 22.167 -158.333 66.5 -211s103.833 -79 178.5 -79c62.667 0 113.334 18 152.001 54s58 85 58 147v28h-228zM427.999 896.001v-103h-86v103h86z" />
    <glyph glyph-name="gdotaccent" unicode="&#x121;" horiz-adv-x="565" 
d="M418 492h80v-481c0 -63.333 -20 -113.166 -60 -149.499s-94.333 -54.5 -163 -54.5c-80 0 -154.333 24.333 -223 73l43 63c36 -22.667 67.333 -38.834 94 -48.501s55 -14.5 85 -14.5c43.333 0 77.333 11.5 102 34.5s37 57.5 37 103.5v67c-34.667 -52.667 -87 -79 -157 -79
c-62.667 0 -114.334 23.5 -155.001 70.5s-61 106.833 -61 179.5s20.333 132.5 61 179.5s92.334 70.5 155.001 70.5c73.333 0 127.333 -29 162 -87v73zM415 256c0 52 -13.333 94.498 -40 127.498s-61.667 49.5 -105 49.5s-77.833 -16.167 -103.5 -48.5
s-38.5 -75.166 -38.5 -128.499s12.833 -96.166 38.5 -128.499s60.167 -48.5 103.5 -48.5s78.333 16.5 105 49.5s40 75.5 40 127.5zM326 691.998v-103h-86v103h86z" />
    <glyph glyph-name="uni0122" unicode="&#x122;" horiz-adv-x="741" 
d="M362 294l-0.000976562 78.001h313v-372h-72l-7 90c-44 -70 -117.667 -105 -221 -105s-184.666 34 -243.999 102s-89 157.333 -89 268c0 109.333 31 198.333 93 267s145.667 103 251 103c56.667 0 108 -10.833 154 -32.5s91.333 -55.834 136 -102.501l-59 -60
c-42 42 -80 71.333 -114 88c-34.667 17.333 -74.334 26 -119.001 26c-74 0 -134 -26.667 -180 -80s-69 -123 -69 -209c0 -88 22.167 -158.333 66.5 -211s103.833 -79 178.5 -79c62.667 0 113.334 18 152.001 54s58 85 58 147v28h-228zM427.999 -72.999v-86l-57 -94h-48
l52 94h-47v86h100z" />
    <glyph glyph-name="uni0123" unicode="&#x123;" horiz-adv-x="565" 
d="M418 492h80v-481c0 -63.333 -20 -113.166 -60 -149.499s-94.333 -54.5 -163 -54.5c-80 0 -154.333 24.333 -223 73l43 63c36 -22.667 67.333 -38.834 94 -48.501s55 -14.5 85 -14.5c43.333 0 77.333 11.5 102 34.5s37 57.5 37 103.5v67c-34.667 -52.667 -87 -79 -157 -79
c-62.667 0 -114.334 23.5 -155.001 70.5s-61 106.833 -61 179.5s20.333 132.5 61 179.5s92.334 70.5 155.001 70.5c73.333 0 127.333 -29 162 -87v73zM415 256c0 52 -13.333 94.498 -40 127.498s-61.667 49.5 -105 49.5s-77.833 -16.167 -103.5 -48.5
s-38.5 -75.166 -38.5 -128.499s12.833 -96.166 38.5 -128.499s60.167 -48.5 103.5 -48.5s78.333 16.5 105 49.5s40 75.5 40 127.5zM230 586.998v88l57 100h48l-51 -100h47v-88h-101z" />
    <glyph glyph-name="Hbar" unicode="&#x126;" horiz-adv-x="780" 
d="M750 599v-66h-77v-533h-93v330h-380v-330h-92v533h-78v66h78v111h92v-111h380v111h93v-111h77zM580 407v126h-380v-126h380z" />
    <glyph glyph-name="hbar" unicode="&#x127;" horiz-adv-x="565" 
d="M499 334v-334h-86v306c0 40 -9.66699 70.5 -29 91.5s-47.333 31.5 -84 31.5c-34.667 0 -64.5 -12.333 -89.5 -37s-37.5 -55 -37.5 -91v-301h-86v566h-73v62h73v82h86v-82h125v-62h-125v-140c32 51.333 82.333 77 151 77c56 0 99.167 -15.5 129.5 -46.5
s45.5 -71.833 45.5 -122.5z" />
    <glyph glyph-name="Imacron" unicode="&#x12a;" horiz-adv-x="270" 
d="M181 710v-710h-92v710h92zM275 864v-66h-279v66h279z" />
    <glyph glyph-name="imacron" unicode="&#x12b;" horiz-adv-x="220" 
d="M153 492v-492h-86v492h86zM250 660v-66h-279v66h279z" />
    <glyph glyph-name="Iogonek" unicode="&#x12e;" horiz-adv-x="270" 
d="M102 -110c0 -28 16.999 -42.002 50.999 -42.002c10 0 18.667 1 26 3v-54c-9.33301 -4 -22 -6 -38 -6c-31.333 0 -56.166 7.33301 -74.499 22s-27.5 35.334 -27.5 62.001c0 44.667 24 86.334 72 125.001h-22v710h92v-710c-52.667 -36 -79 -72.667 -79 -110z" />
    <glyph glyph-name="iogonek" unicode="&#x12f;" horiz-adv-x="220" 
d="M67 692h86v-103h-86v103zM67 0v491.999h86v-492c-53.333 -37.333 -80 -74 -80 -110c0 -28 17 -42 51 -42c10.667 0 19.667 1 27 3v-54c-8.66699 -4 -21.667 -6 -39 -6c-30.667 0 -55.167 7.5 -73.5 22.5s-27.5 35.5 -27.5 61.5c0 44.667 24 86.334 72 125.001h-16z" />
    <glyph glyph-name="Idot" unicode="&#x130;" horiz-adv-x="270" 
d="M181 710v-710h-92v710h92zM178 896v-103h-86v103h86z" />
    <glyph glyph-name="dotlessi" unicode="&#x131;" horiz-adv-x="220" 
d="M153 492v-492h-86v492h86z" />
    <glyph glyph-name="IJ" unicode="&#x132;" horiz-adv-x="732" 
d="M181 710v-710h-92v710h92zM655 710l-0.000976562 -527c0 -130 -64 -195 -192 -195c-61.333 0 -121.666 15.667 -180.999 47l32 72c60 -25.333 108.667 -38 146 -38c68.667 0 103 40.667 103 122v519h92z" />
    <glyph glyph-name="ij" unicode="&#x133;" horiz-adv-x="444" 
d="M153 492v-492h-86v492h86zM153 692v-103h-86v103h86zM227 -121c23.333 0 39.667 6.5 49 19.5s14 34.167 14 63.5v530h86v-530c0 -102.667 -46.333 -154 -139 -154c-31.333 0 -63 5 -95 15l17 66c24 -6.66699 46.667 -10 68 -10zM376.001 692v-103h-86v103h86z" />
    <glyph glyph-name="uni0136" unicode="&#x136;" horiz-adv-x="658" 
d="M544 0l-243 366l-127 -131v-235h-92v710h92v-363l346 363h115l-271 -280l285 -430h-105zM397 -73v-86l-57 -94h-48l52 94h-47v86h100z" />
    <glyph glyph-name="uni0137" unicode="&#x137;" horiz-adv-x="508" 
d="M406 0l-164 247l-89 -89v-158h-86v710h86v-457l229 239h105l-187 -190l202 -302h-96zM322 -73v-86l-57 -94h-48l52 94h-47v86h100z" />
    <glyph glyph-name="Lacute" unicode="&#x139;" horiz-adv-x="545" 
d="M174 710v-632h344v-78h-436v710h92zM257 910l-92 -141h-76l72 141h96z" />
    <glyph glyph-name="lacute" unicode="&#x13a;" horiz-adv-x="226" 
d="M156 710v-710h-86v710h86zM240 900l-92 -141h-76l72 141h96z" />
    <glyph glyph-name="uni013B" unicode="&#x13b;" horiz-adv-x="545" 
d="M174 710v-632h344v-78h-436v710h92zM356 -73v-86l-57 -94h-48l52 94h-47v86h100z" />
    <glyph glyph-name="uni013C" unicode="&#x13c;" horiz-adv-x="226" 
d="M156 710v-710h-86v710h86zM164 -73v-86l-57 -94h-48l52 94h-47v86h100z" />
    <glyph glyph-name="Lcaron" unicode="&#x13d;" horiz-adv-x="545" 
d="M174 710v-632h344v-78h-436v710h92zM386 710l-61 -198h-55l30 198h86z" />
    <glyph glyph-name="lcaron" unicode="&#x13e;" horiz-adv-x="370" 
d="M156 710v-710h-86v710h86zM359 710l-61 -198h-55l30 198h86z" />
    <glyph glyph-name="Ldot" unicode="&#x13f;" horiz-adv-x="533" 
d="M174 710v-632h344v-78h-436v710h92zM434 422v-108h-102v108h102z" />
    <glyph glyph-name="ldot" unicode="&#x140;" horiz-adv-x="396" 
d="M156 710v-710h-86v710h86zM357 367v-108h-102v108h102z" />
    <glyph glyph-name="Lslash" unicode="&#x141;" horiz-adv-x="587" 
d="M216 78h344v-78h-436v298l-97 -54v80l97 54v332h92v-285l141 78v-79l-141 -79v-267z" />
    <glyph glyph-name="lslash" unicode="&#x142;" horiz-adv-x="342" 
d="M305 496v-75l-88 -52v-369h-86v319l-94 -55v75l94 55v316h86v-266z" />
    <glyph glyph-name="Nacute" unicode="&#x143;" horiz-adv-x="732" 
d="M560 710h90v-710h-102l-210 323c-72 108 -129 198.333 -171 271c3.33301 -108 5 -199.667 5 -275v-319h-90v710h103l213 -328l26 -40c70 -109.333 117 -184.333 141 -225c-3.33301 105.333 -5 195 -5 269v324zM502 910l-92 -141h-76l72 141h96z" />
    <glyph glyph-name="nacute" unicode="&#x144;" horiz-adv-x="545" 
d="M479 337v-337h-86v310c0 40 -9.66699 70.5 -29 91.5s-47.333 31.5 -84 31.5c-35.333 0 -65.333 -12.333 -90 -37c-24.667 -24 -37 -54.333 -37 -91v-305h-86v492h81v-63c32 51.333 83.667 77 155 77c56 0 99.333 -15.667 130 -47s46 -72 46 -122zM401 706l-92 -141h-76
l72 141h96z" />
    <glyph glyph-name="uni0145" unicode="&#x145;" horiz-adv-x="732" 
d="M560 710h90v-710h-102l-210 323c-72 108 -129 198.333 -171 271c3.33301 -108 5 -199.667 5 -275v-319h-90v710h103l213 -328l26 -40c70 -109.333 117 -184.333 141 -225c-3.33301 105.333 -5 195 -5 269v324zM418 -73v-86l-57 -94h-48l52 94h-47v86h100z" />
    <glyph glyph-name="uni0146" unicode="&#x146;" horiz-adv-x="545" 
d="M479 337v-337h-86v310c0 40 -9.66699 70.5 -29 91.5s-47.333 31.5 -84 31.5c-35.333 0 -65.333 -12.333 -90 -37c-24.667 -24 -37 -54.333 -37 -91v-305h-86v492h81v-63c32 51.333 83.667 77 155 77c56 0 99.333 -15.667 130 -47s46 -72 46 -122zM321 -73v-86l-57 -94
h-48l52 94h-47v86h100z" />
    <glyph glyph-name="Ncaron" unicode="&#x147;" horiz-adv-x="732" 
d="M560 710h90v-710h-102l-210 323c-72 108 -129 198.333 -171 271c3.33301 -108 5 -199.667 5 -275v-319h-90v710h103l213 -328l26 -40c70 -109.333 117 -184.333 141 -225c-3.33301 105.333 -5 195 -5 269v324zM526 910l-98 -141h-108l-98 141h74l78 -99l78 99h74z" />
    <glyph glyph-name="ncaron" unicode="&#x148;" horiz-adv-x="545" 
d="M479 337v-337h-86v310c0 40 -9.66699 70.5 -29 91.5s-47.333 31.5 -84 31.5c-35.333 0 -65.333 -12.333 -90 -37c-24.667 -24 -37 -54.333 -37 -91v-305h-86v492h81v-63c32 51.333 83.667 77 155 77c56 0 99.333 -15.667 130 -47s46 -72 46 -122zM425 706l-98 -141h-108
l-98 141h74l78 -99l78 99h74z" />
    <glyph glyph-name="Eng" unicode="&#x14a;" horiz-adv-x="732" 
d="M560 710l90.001 0.000976562v-754c0 -102 -47.667 -153 -143 -153c-33.333 0 -69 6 -107 18l18 72c32 -9.33301 57.667 -14 77 -14c24 0 41.5 6.66699 52.5 20s16.5 34 16.5 62v13l-226 349c-74.667 113.333 -131.334 203.333 -170.001 270
c2.66699 -68.667 4 -160 4 -274v-319h-90v710h103l213 -328l25 -39c60 -92.667 107.333 -168.334 142 -227.001c-3.33301 105.333 -5 195.333 -5 270v324z" />
    <glyph glyph-name="eng" unicode="&#x14b;" horiz-adv-x="546" 
d="M479 337l0.000976562 -375c0 -102.667 -46.333 -154 -139 -154c-30.667 0 -62.667 5 -96 15l18 66c24 -6.66699 46.667 -10 68 -10c23.333 0 39.666 6.5 48.999 19.5s14 34.167 14 63.5v348c0 40 -9.66699 70.5 -29 91.5s-47.333 31.5 -84 31.5
c-35.333 0 -65.333 -12.333 -90 -37c-24.667 -24 -37 -54.333 -37 -91v-305h-86v492h81v-63c32 51.333 83.667 77 155 77c56 0 99.333 -15.667 130 -47s46 -72 46 -122z" />
    <glyph glyph-name="Omacron" unicode="&#x14c;" horiz-adv-x="758" 
d="M716 355c0 -108 -30.667 -196.833 -92 -266.5s-143 -104.5 -245 -104.5s-183.667 34.833 -245 104.5s-92 158.5 -92 266.5s30.667 196.833 92 266.5s143 104.5 245 104.5s183.667 -34.833 245 -104.5s92 -158.5 92 -266.5zM136 355c0 -85.333 22.5 -155 67.5 -209
s103.5 -81 175.5 -81c72.667 0 131.334 26.833 176.001 80.5s67 123.5 67 209.5c0 85.333 -22.333 155 -67 209s-103.334 81 -176.001 81c-72 0 -130.5 -27.167 -175.5 -81.5s-67.5 -123.833 -67.5 -208.5zM519 864v-66h-279v66h279z" />
    <glyph glyph-name="omacron" unicode="&#x14d;" horiz-adv-x="561" 
d="M524 246c0 -76.667 -22.667 -139.167 -68 -187.5s-103.666 -72.5 -174.999 -72.5s-129.833 24.167 -175.5 72.5s-68.5 110.833 -68.5 187.5s22.833 139.167 68.5 187.5s104.167 72.5 175.5 72.5s129.666 -24.167 174.999 -72.5s68 -110.833 68 -187.5zM125 246
c0 -56 14.167 -101.333 42.5 -136s66.166 -52 113.499 -52s85 17.167 113 51.5s42 79.833 42 136.5s-14 102.167 -42 136.5s-65.667 51.5 -113 51.5s-85.166 -17.333 -113.499 -52s-42.5 -80 -42.5 -136zM418 660v-66h-279v66h279z" />
    <glyph glyph-name="Ohungarumlaut" unicode="&#x150;" horiz-adv-x="758" 
d="M716 355c0 -108 -30.667 -196.833 -92 -266.5s-143 -104.5 -245 -104.5s-183.667 34.833 -245 104.5s-92 158.5 -92 266.5s30.667 196.833 92 266.5s143 104.5 245 104.5s183.667 -34.833 245 -104.5s92 -158.5 92 -266.5zM136 355c0 -85.333 22.5 -155 67.5 -209
s103.5 -81 175.5 -81c72.667 0 131.334 26.833 176.001 80.5s67 123.5 67 209.5c0 85.333 -22.333 155 -67 209s-103.334 81 -176.001 81c-72 0 -130.5 -27.167 -175.5 -81.5s-67.5 -123.833 -67.5 -208.5zM429 913l-93 -144h-66l72 144h87zM584 913l-94 -144h-67l74 144h87
z" />
    <glyph glyph-name="ohungarumlaut" unicode="&#x151;" horiz-adv-x="561" 
d="M524 246c0 -76.667 -22.667 -139.167 -68 -187.5s-103.666 -72.5 -174.999 -72.5s-129.833 24.167 -175.5 72.5s-68.5 110.833 -68.5 187.5s22.833 139.167 68.5 187.5s104.167 72.5 175.5 72.5s129.666 -24.167 174.999 -72.5s68 -110.833 68 -187.5zM125 246
c0 -56 14.167 -101.333 42.5 -136s66.166 -52 113.499 -52s85 17.167 113 51.5s42 79.833 42 136.5s-14 102.167 -42 136.5s-65.667 51.5 -113 51.5s-85.166 -17.333 -113.499 -52s-42.5 -80 -42.5 -136zM329 709l-93 -144h-66l72 144h87zM484 709l-94 -144h-67l74 144h87z
" />
    <glyph glyph-name="OE" unicode="&#x152;" horiz-adv-x="1150" 
d="M715 77h389v-77h-482v105c-57.333 -80.667 -138.666 -121 -243.999 -121c-102 0 -183.5 34.667 -244.5 104s-91.5 158.333 -91.5 267s30.5 197.667 91.5 267s142.5 104 244.5 104c105.333 0 186.666 -40.333 243.999 -121v105h473v-77h-380v-229h354v-77h-354v-250z
M622 355c0 85.333 -22.333 155 -67 209s-103.334 81 -176.001 81c-72 0 -130.5 -27.167 -175.5 -81.5s-67.5 -123.833 -67.5 -208.5c0 -85.333 22.5 -155 67.5 -209s103.5 -81 175.5 -81c72.667 0 131.334 26.833 176.001 80.5s67 123.5 67 209.5z" />
    <glyph glyph-name="oe" unicode="&#x153;" horiz-adv-x="936" 
d="M845 140l51.002 -51.998c-34 -36.667 -67.833 -62.834 -101.5 -78.501s-71.167 -23.5 -112.5 -23.5c-92 0 -159.333 35 -202 105c-20.667 -32.667 -48.5 -58.334 -83.5 -77.001s-73.5 -28 -115.5 -28c-71.333 0 -129.833 24.167 -175.5 72.5s-68.5 110.833 -68.5 187.5
s22.833 139.167 68.5 187.5s104.167 72.5 175.5 72.5c89.333 0 155.666 -35.333 198.999 -106c42 70.667 106.333 106 193 106c70 0 124.5 -21 163.5 -63s58.5 -100 58.5 -174l-2 -39h-369c2.66699 -51.333 17.667 -92.833 45 -124.5s65.333 -47.5 114 -47.5
c30 0 56.667 6 80 18s50.666 33.333 81.999 64zM527.002 293.002h283.999c-1.33301 44.667 -14.166 80 -38.499 106s-57.5 39 -99.5 39c-40 0 -72.667 -12.667 -98 -38s-41.333 -61 -48 -107zM436.001 246.002c0 56.667 -14 102.167 -42 136.5s-65.667 51.5 -113 51.5
s-85.166 -17.333 -113.499 -52s-42.5 -80 -42.5 -136s14.167 -101.333 42.5 -136s66.166 -52 113.499 -52s85 17.167 113 51.5s42 79.833 42 136.5z" />
    <glyph glyph-name="Racute" unicode="&#x154;" horiz-adv-x="668" 
d="M635 0l-105 -0.000976562l-190 285h-166v-285h-92v710h298c68 0 123.333 -19 166 -57s64 -89.667 64 -155c0 -55.333 -15.167 -101.166 -45.5 -137.499s-71.833 -59.5 -124.5 -69.5zM174 632.999v-270.999h191c48 0 85.667 11.833 113 35.5s41 57.167 41 100.5
s-13.667 76.666 -41 99.999s-65.333 35 -114 35h-190zM459 910l-92 -141h-76l72 141h96z" />
    <glyph glyph-name="racute" unicode="&#x155;" horiz-adv-x="358" 
d="M348 483l-16 -72c-22.667 6.66699 -44 10 -64 10c-34.667 0 -62.5 -14.167 -83.5 -42.5s-31.5 -66.5 -31.5 -114.5v-264h-86v492h81v-74c26 53.333 66.667 80 122 80c25.333 0 51.333 -5 78 -15zM337 706l-92 -141h-76l72 141h96z" />
    <glyph glyph-name="uni0156" unicode="&#x156;" horiz-adv-x="668" 
d="M635 0l-105 -0.000976562l-190 285h-166v-285h-92v710h298c68 0 123.333 -19 166 -57s64 -89.667 64 -155c0 -55.333 -15.167 -101.166 -45.5 -137.499s-71.833 -59.5 -124.5 -69.5zM174 632.999v-270.999h191c48 0 85.667 11.833 113 35.5s41 57.167 41 100.5
s-13.667 76.666 -41 99.999s-65.333 35 -114 35h-190zM387 -73v-86l-57 -94h-48l52 94h-47v86h100z" />
    <glyph glyph-name="uni0157" unicode="&#x157;" horiz-adv-x="358" 
d="M348 483l-16 -72c-22.667 6.66699 -44 10 -64 10c-34.667 0 -62.5 -14.167 -83.5 -42.5s-31.5 -66.5 -31.5 -114.5v-264h-86v492h81v-74c26 53.333 66.667 80 122 80c25.333 0 51.333 -5 78 -15zM160 -73v-86l-57 -94h-48l52 94h-47v86h100z" />
    <glyph glyph-name="Rcaron" unicode="&#x158;" horiz-adv-x="668" 
d="M635 0l-105 -0.000976562l-190 285h-166v-285h-92v710h298c68 0 123.333 -19 166 -57s64 -89.667 64 -155c0 -55.333 -15.167 -101.166 -45.5 -137.499s-71.833 -59.5 -124.5 -69.5zM174 632.999v-270.999h191c48 0 85.667 11.833 113 35.5s41 57.167 41 100.5
s-13.667 76.666 -41 99.999s-65.333 35 -114 35h-190zM483 910l-98 -141h-108l-98 141h74l78 -99l78 99h74z" />
    <glyph glyph-name="rcaron" unicode="&#x159;" horiz-adv-x="358" 
d="M348 483l-16 -72c-22.667 6.66699 -44 10 -64 10c-34.667 0 -62.5 -14.167 -83.5 -42.5s-31.5 -66.5 -31.5 -114.5v-264h-86v492h81v-74c26 53.333 66.667 80 122 80c25.333 0 51.333 -5 78 -15zM361 706l-98 -141h-108l-98 141h74l78 -99l78 99h74z" />
    <glyph glyph-name="Sacute" unicode="&#x15a;" horiz-adv-x="629" 
d="M576 621l-54 -63.998c-37.333 32.667 -72.166 55.667 -104.499 69s-68.833 20 -109.5 20c-48 0 -87.167 -10.833 -117.5 -32.5s-45.5 -49.5 -45.5 -83.5c0 -24 7 -43.333 21 -58c13.333 -13.333 32.166 -24.166 56.499 -32.499s63.5 -18.833 117.5 -31.5
c90.667 -20.667 154.334 -45.834 191.001 -75.501s55 -72.5 55 -128.5c0 -65.333 -24.5 -118.333 -73.5 -159s-111.833 -61 -188.5 -61c-56.667 0 -107.667 9.33301 -153 28s-94 50.334 -146 95.001l55 65c50.667 -42.667 93.667 -71.334 129 -86.001
c36 -14.667 74.667 -22 116 -22c50 0 90.667 12.167 122 36.5s47 57.166 47 98.499c0 27.333 -7.66699 48.666 -23 63.999c-14 15.333 -34.333 27.666 -61 36.999c-29.333 10.667 -67.333 21 -114 31c-92 20.667 -155.167 44.834 -189.5 72.501s-51.5 69.167 -51.5 124.5
c0 57.333 24.333 104.5 73 141.5s108.667 55.5 180 55.5c53.333 0 100.666 -8.16699 141.999 -24.5s83.333 -42.833 126 -79.5zM442 910.002l-92 -141h-76l72 141h96z" />
    <glyph glyph-name="sacute" unicode="&#x15b;" horiz-adv-x="479" 
d="M437 434l-47.001 -57.9951c-30 23.333 -56.167 39.166 -78.5 47.499s-47.833 12.5 -76.5 12.5c-32.667 0 -58.834 -6.83301 -78.501 -20.5s-29.5 -31.167 -29.5 -52.5c2.66699 -20.667 11.334 -34.834 26.001 -42.501s50 -17.834 106 -30.501
c68 -16 116 -34.833 144 -56.5s42 -53.167 42 -94.5c0 -46 -18 -83 -54 -111s-83.667 -42 -143 -42c-44.667 0 -84.167 6.83301 -118.5 20.5s-70.5 37.5 -108.5 71.5l51 56c36 -30 66.667 -50.333 92 -61s53.666 -16 84.999 -16c32.667 0 59.5 7 80.5 21s31.5 33 31.5 57
c0 23.333 -10 40.666 -30 51.999s-56 22.666 -108 33.999c-70 16 -117 32.833 -141 50.5s-36.667 47.167 -38 88.5c0 43.333 17.667 78.5 53 105.5s81.333 40.5 138 40.5c40.667 0 76.334 -5.5 107.001 -16.5s62.334 -29.5 95.001 -55.5zM372.999 706.005l-92 -141h-76
l72 141h96z" />
    <glyph glyph-name="Scedilla" unicode="&#x15e;" horiz-adv-x="629" 
d="M330 -16l-23.998 -50.9961c31.333 1.33301 57 -5.16699 77 -19.5s30 -33.833 30 -58.5c0 -26.667 -9.83301 -48.334 -29.5 -65.001s-44.834 -25 -75.501 -25c-34.667 0 -70.667 12 -108 36l25 41c31.333 -18 58.333 -27 81 -27c16 0 28.833 3.5 38.5 10.5
s14.5 16.5 14.5 28.5c0 11.333 -5.33301 20.333 -16 27s-24.334 10 -41.001 10c-11.333 0 -21 -1 -29 -3l-28 27l33 71c-84.667 8 -169 48.333 -253 121l55 65c50.667 -42.667 93.667 -71.334 129 -86.001c36 -14.667 74.667 -22 116 -22c50 0 90.667 12.167 122 36.5
s47 57.166 47 98.499c0 27.333 -7.66699 48.666 -23 63.999c-14 15.333 -34.333 27.666 -61 36.999c-29.333 10.667 -67.333 21 -114 31c-92 20.667 -155.167 44.834 -189.5 72.501s-51.5 69.167 -51.5 124.5c0 57.333 24.333 104.5 73 141.5s108.667 55.5 180 55.5
c53.333 0 100.666 -8.16699 141.999 -24.5s83.333 -42.833 126 -79.5l-54 -64c-37.333 32.667 -72.166 55.667 -104.499 69s-68.833 20 -109.5 20c-48 0 -87.167 -10.833 -117.5 -32.5s-45.5 -49.5 -45.5 -83.5c0 -24 7 -43.333 21 -58
c13.333 -13.333 32.166 -24.166 56.499 -32.499s63.5 -18.833 117.5 -31.5c90.667 -20.667 154.334 -45.834 191.001 -75.501s55 -72.5 55 -128.5c0 -64 -23.833 -116.333 -71.5 -157s-109.167 -61.667 -184.5 -63z" />
    <glyph glyph-name="scedilla" unicode="&#x15f;" horiz-adv-x="479" 
d="M251 -14l-24 -52.9941c31.333 1.33301 57 -5.16699 77 -19.5s30 -33.833 30 -58.5c0 -26.667 -9.83301 -48.334 -29.5 -65.001s-45.167 -25 -76.5 -25c-34.667 0 -70.667 12 -108 36l26 41c31.333 -18 58.333 -27 81 -27c16 0 28.833 3.5 38.5 10.5s14.5 16.5 14.5 28.5
c0 11.333 -5.33301 20.333 -16 27s-24.334 10 -41.001 10c-11.333 0 -21 -1 -29 -3l-28 27l34 74c-61.333 7.33301 -121 37 -179 89l51 56c36 -30 66.667 -50.333 92 -61s53.666 -16 84.999 -16c32.667 0 59.5 7 80.5 21s31.5 33 31.5 57c0 23.333 -10 40.666 -30 51.999
s-56 22.666 -108 33.999c-70 16 -117 32.833 -141 50.5s-36.667 47.167 -38 88.5c0 43.333 17.667 78.5 53 105.5s81.333 40.5 138 40.5c40.667 0 76.334 -5.5 107.001 -16.5s62.334 -29.5 95.001 -55.5l-47 -58c-30 23.333 -56.167 39.166 -78.5 47.499
s-47.833 12.5 -76.5 12.5c-32.667 0 -58.834 -6.83301 -78.501 -20.5s-29.5 -31.167 -29.5 -52.5c2.66699 -20.667 11.334 -34.834 26.001 -42.501s50 -17.834 106 -30.501c68 -16 116 -34.833 144 -56.5s42 -53.167 42 -94.5c0 -45.333 -17.667 -82 -53 -110
s-82.333 -42.333 -141 -43z" />
    <glyph glyph-name="Scaron" unicode="&#x160;" horiz-adv-x="629" 
d="M576 621l-54 -63.998c-37.333 32.667 -72.166 55.667 -104.499 69s-68.833 20 -109.5 20c-48 0 -87.167 -10.833 -117.5 -32.5s-45.5 -49.5 -45.5 -83.5c0 -24 7 -43.333 21 -58c13.333 -13.333 32.166 -24.166 56.499 -32.499s63.5 -18.833 117.5 -31.5
c90.667 -20.667 154.334 -45.834 191.001 -75.501s55 -72.5 55 -128.5c0 -65.333 -24.5 -118.333 -73.5 -159s-111.833 -61 -188.5 -61c-56.667 0 -107.667 9.33301 -153 28s-94 50.334 -146 95.001l55 65c50.667 -42.667 93.667 -71.334 129 -86.001
c36 -14.667 74.667 -22 116 -22c50 0 90.667 12.167 122 36.5s47 57.166 47 98.499c0 27.333 -7.66699 48.666 -23 63.999c-14 15.333 -34.333 27.666 -61 36.999c-29.333 10.667 -67.333 21 -114 31c-92 20.667 -155.167 44.834 -189.5 72.501s-51.5 69.167 -51.5 124.5
c0 57.333 24.333 104.5 73 141.5s108.667 55.5 180 55.5c53.333 0 100.666 -8.16699 141.999 -24.5s83.333 -42.833 126 -79.5zM466 910.002l-98 -141h-108l-98 141h74l78 -99l78 99h74z" />
    <glyph glyph-name="scaron" unicode="&#x161;" horiz-adv-x="479" 
d="M437 434l-47.001 -57.9951c-30 23.333 -56.167 39.166 -78.5 47.499s-47.833 12.5 -76.5 12.5c-32.667 0 -58.834 -6.83301 -78.501 -20.5s-29.5 -31.167 -29.5 -52.5c2.66699 -20.667 11.334 -34.834 26.001 -42.501s50 -17.834 106 -30.501
c68 -16 116 -34.833 144 -56.5s42 -53.167 42 -94.5c0 -46 -18 -83 -54 -111s-83.667 -42 -143 -42c-44.667 0 -84.167 6.83301 -118.5 20.5s-70.5 37.5 -108.5 71.5l51 56c36 -30 66.667 -50.333 92 -61s53.666 -16 84.999 -16c32.667 0 59.5 7 80.5 21s31.5 33 31.5 57
c0 23.333 -10 40.666 -30 51.999s-56 22.666 -108 33.999c-70 16 -117 32.833 -141 50.5s-36.667 47.167 -38 88.5c0 43.333 17.667 78.5 53 105.5s81.333 40.5 138 40.5c40.667 0 76.334 -5.5 107.001 -16.5s62.334 -29.5 95.001 -55.5zM395.999 706.005l-98 -141h-108
l-98 141h74l78 -99l78 99h74z" />
    <glyph glyph-name="uni0162" unicode="&#x162;" horiz-adv-x="603" 
d="M348 0l-20.999 0.000976562l-31 -67c31.333 1.33301 57 -5.16699 77 -19.5s30 -33.833 30 -58.5c0 -26.667 -9.83301 -48.334 -29.5 -65.001s-45.167 -25 -76.5 -25c-35.333 0 -71.333 12 -108 36l25 41c33.333 -18 60.666 -27 81.999 -27c16 0 28.833 3.5 38.5 10.5
s14.5 16.5 14.5 28.5c0 11.333 -5.5 20.333 -16.5 27s-24.833 10 -41.5 10c-10.667 0 -20 -1 -28 -3l-28 27l39 85h-19v632h-224v78h541v-78h-224v-632z" />
    <glyph glyph-name="uni0163" unicode="&#x163;" horiz-adv-x="356" 
d="M324 -145c0 -26.667 -9.83398 -48.332 -29.501 -64.999s-45.167 -25 -76.5 -25c-34.667 0 -70.667 12 -108 36l25 41c33.333 -18 60.666 -27 81.999 -27c16 0 28.833 3.5 38.5 10.5s14.5 16.5 14.5 28.5c0 11.333 -5.5 20.333 -16.5 27s-24.833 10 -41.5 10
c-10.667 0 -20 -1 -28 -3l-28 27l37 80c-55.333 11.333 -83 51 -83 119v313h-92v65h92v165h86v-165h133v-65h-133v-303c0 -22 4.5 -37.5 13.5 -46.5s23.833 -13.5 44.5 -13.5c18.667 0 42.334 4 71.001 12l13 -68c-29.333 -10.667 -60.666 -16.334 -93.999 -17.001l-27 -58
c31.333 1.33301 57 -5.16699 77 -19.5s30 -33.833 30 -58.5z" />
    <glyph glyph-name="Tcaron" unicode="&#x164;" horiz-adv-x="603" 
d="M572 710v-78h-224v-632h-93v632h-224v78h541zM454 910l-98 -141h-108l-98 141h74l78 -99l78 99h74z" />
    <glyph glyph-name="tcaron" unicode="&#x165;" horiz-adv-x="356" 
d="M325 76l12.999 -67.999c-32 -11.333 -65.667 -17 -101 -17c-44.667 0 -77 10.167 -97 30.5s-30 51.166 -30 92.499v313h-92v65h92v165h86v-165h133v-65h-133v-303c0 -22 4.5 -37.5 13.5 -46.5s23.833 -13.5 44.5 -13.5c18.667 0 42.334 4 71.001 12zM390.999 773.001
l-61 -198h-55l30 198h86z" />
    <glyph glyph-name="Tbar" unicode="&#x166;" horiz-adv-x="601" 
d="M570 632h-223v-216h128v-66h-128v-350h-93v350h-126v66h126v216h-223v78h539v-78z" />
    <glyph glyph-name="tbar" unicode="&#x167;" horiz-adv-x="356" 
d="M325 76l12.999 -67.999c-32 -11.333 -65.667 -17 -101 -17c-44.667 0 -77 10.167 -97 30.5s-30 51.166 -30 92.499v114h-92v67h92v132h-92v65h92v165h86v-165h133v-65h-133v-132h133v-67h-133v-104c0 -22 4.5 -37.5 13.5 -46.5s23.833 -13.5 44.5 -13.5
c18.667 0 42.334 4 71.001 12z" />
    <glyph glyph-name="Umacron" unicode="&#x16a;" horiz-adv-x="688" 
d="M612 710l-0.000976562 -484c0 -78.667 -22.667 -138.5 -68 -179.5s-112 -61.5 -200 -61.5c-87.333 0 -153.666 20.5 -198.999 61.5s-68 100.833 -68 179.5v484h92v-479c0 -54 14.833 -95 44.5 -123s73.167 -42 130.5 -42s100.833 14 130.5 42s44.5 69 44.5 123v479h93z
M483.999 864v-66h-279v66h279z" />
    <glyph glyph-name="umacron" unicode="&#x16b;" horiz-adv-x="537" 
d="M384 492l85.999 0.000976562v-492h-80v61c-30 -50 -79.667 -75 -149 -75c-58 0 -101.667 14.333 -131 43s-44 68 -44 118v345h86v-324c0 -72 34.333 -108 103 -108c38.667 0 69.834 11.667 93.501 35s35.5 55.666 35.5 96.999v300zM399.999 660.001v-66h-279v66h279z" />
    <glyph glyph-name="Uring" unicode="&#x16e;" horiz-adv-x="688" 
d="M612 710l-0.000976562 -484c0 -78.667 -22.667 -138.5 -68 -179.5s-112 -61.5 -200 -61.5c-87.333 0 -153.666 20.5 -198.999 61.5s-68 100.833 -68 179.5v484h92v-479c0 -54 14.833 -95 44.5 -123s73.167 -42 130.5 -42s100.833 14 130.5 42s44.5 69 44.5 123v479h93z
M450.999 834c0 -28 -10.667 -52.667 -32 -74c-20.667 -20 -45.667 -30 -75 -30c-30 0 -55.333 10.167 -76 30.5s-31 44.833 -31 73.5c0 29.333 10.333 54 31 74s46 30 76 30c29.333 0 54.333 -10.333 75 -31c21.333 -20 32 -44.333 32 -73zM283.999 834
c0 -18 5.66699 -32.667 17 -44s25.666 -17 42.999 -17s31.5 5.66699 42.5 17s16.5 26 16.5 44s-5.5 32.667 -16.5 44s-25.167 17 -42.5 17s-31.666 -5.66699 -42.999 -17s-17 -26 -17 -44z" />
    <glyph glyph-name="uring" unicode="&#x16f;" horiz-adv-x="537" 
d="M384 492l85.999 0.000976562v-492h-80v61c-30 -50 -79.667 -75 -149 -75c-58 0 -101.667 14.333 -131 43s-44 68 -44 118v345h86v-324c0 -72 34.333 -108 103 -108c38.667 0 69.834 11.667 93.501 35s35.5 55.666 35.5 96.999v300zM367.999 663.001
c0 -28 -10.667 -52.667 -32 -74c-21.333 -20 -46.333 -30 -75 -30c-30 0 -55.333 10.167 -76 30.5s-31 44.833 -31 73.5c0 29.333 10.333 54 31 74s46 30 76 30c29.333 0 54.333 -10.333 75 -31c21.333 -20 32 -44.333 32 -73zM200.999 663.001
c0 -18 5.66699 -32.667 17 -44s25.666 -17 42.999 -17s31.5 5.66699 42.5 17s16.5 26 16.5 44s-5.5 32.667 -16.5 44s-25.167 17 -42.5 17s-31.666 -5.66699 -42.999 -17s-17 -26 -17 -44z" />
    <glyph glyph-name="Uhungarumlaut" unicode="&#x170;" horiz-adv-x="688" 
d="M612 710l-0.000976562 -484c0 -78.667 -22.667 -138.5 -68 -179.5s-112 -61.5 -200 -61.5c-87.333 0 -153.666 20.5 -198.999 61.5s-68 100.833 -68 179.5v484h92v-479c0 -54 14.833 -95 44.5 -123s73.167 -42 130.5 -42s100.833 14 130.5 42s44.5 69 44.5 123v479h93z
M393.999 913l-93 -144h-66l72 144h87zM548.999 913l-94 -144h-67l74 144h87z" />
    <glyph glyph-name="uhungarumlaut" unicode="&#x171;" horiz-adv-x="537" 
d="M384 492l85.999 0.000976562v-492h-80v61c-30 -50 -79.667 -75 -149 -75c-58 0 -101.667 14.333 -131 43s-44 68 -44 118v345h86v-324c0 -72 34.333 -108 103 -108c38.667 0 69.834 11.667 93.501 35s35.5 55.666 35.5 96.999v300zM309.999 709.001l-93 -144h-66l72 144
h87zM464.999 709.001l-94 -144h-67l74 144h87z" />
    <glyph glyph-name="Uogonek" unicode="&#x172;" horiz-adv-x="688" 
d="M519 710l92.999 0.00195312v-483c0 -52 -8.33301 -93.333 -25 -124c-15.333 -30 -43.333 -59.667 -84 -89c-60.667 -42.667 -91 -83.334 -91 -122.001c0 -14 4.5 -24.833 13.5 -32.5s21.5 -11.5 37.5 -11.5c11.333 0 20.333 1 27 3v-54c-9.33301 -4 -22 -6 -38 -6
c-32 0 -57.167 7.66699 -75.5 23s-27.5 36.666 -27.5 63.999c0 38.667 18 75.667 54 111c-14 -2.66699 -33.667 -4 -59 -4c-87.333 0 -153.666 20.5 -198.999 61.5s-68 100.833 -68 179.5v484h92v-479c0 -54 14.833 -95 44.5 -123s73.167 -42 130.5 -42s100.833 14 130.5 42
s44.5 69 44.5 123v479z" />
    <glyph glyph-name="uogonek" unicode="&#x173;" horiz-adv-x="537" 
d="M390 -110c0 -28 17 -42 51 -42c10 0 18.667 1 26 3v-54c-8.66699 -4 -21.334 -6 -38.001 -6c-30.667 0 -55.167 7.5 -73.5 22.5s-27.5 35.5 -27.5 61.5c0 44.667 24 86.334 72 125.001h-10v61c-30 -50 -79.667 -75 -149 -75c-58 0 -101.667 14.333 -131 43
s-44 68 -44 118v345h86v-324c0 -72 34.333 -108 103 -108c38.667 0 69.834 11.667 93.501 35s35.5 55.666 35.5 96.999v300h86v-492c-53.333 -37.333 -80 -74 -80 -110z" />
    <glyph glyph-name="Wcircumflex" unicode="&#x174;" horiz-adv-x="939" 
d="M816 710l91.001 0.000976562l-171 -710h-113l-87 326c-29.333 110.667 -51.333 199 -66 265c-13.333 -64.667 -35 -153.334 -65 -266.001l-88 -325h-114l-172 710h94l81 -342c17.333 -76 36.666 -167 57.999 -273c28 115.333 51 206.333 69 273l93 342h93l91 -342
c28 -109.333 50.333 -200.333 67 -273c18 92 37.667 183 59 273zM548.001 769.001l-78 98l-78 -98h-74l98 141h108l98 -141h-74z" />
    <glyph glyph-name="wcircumflex" unicode="&#x175;" horiz-adv-x="735" 
d="M626 492h88l-138 -492h-104l-46 157c-24.667 86.667 -44.667 164 -60 232c-19.333 -81.333 -39.333 -159 -60 -233l-43 -156h-104l-138 492h89l49 -184c11.333 -42.667 30 -120.334 56 -233.001c18.667 77.333 38.667 155 60 233l52 184h81l52 -184
c24 -85.333 44 -163.666 60 -234.999c20 88.667 39 167 57 235zM446 565l-78 98l-78 -98h-74l98 141h108l98 -141h-74z" />
    <glyph glyph-name="Ycircumflex" unicode="&#x176;" horiz-adv-x="624" 
d="M509 710h100l-252 -407v-303h-92v304l-250 406h102l196 -325zM390 769l-78 98l-78 -98h-74l98 141h108l98 -141h-74z" />
    <glyph glyph-name="ycircumflex" unicode="&#x177;" horiz-adv-x="484" 
d="M379 492l87.002 0.000976562l-197 -560c-16.667 -46.667 -35.334 -79.167 -56.001 -97.5s-51.334 -27.5 -92.001 -27.5c-28.667 0 -54 3.33301 -76 10l15 66c18 -4 35.667 -6 53 -6c20.667 0 37.167 5.66699 49.5 17s23.5 31.666 33.5 60.999l6 19l-185 518h91l55 -163
l73 -218l8 -25l30 91l50 154zM319.002 565.001l-78 98l-78 -98h-74l98 141h108l98 -141h-74z" />
    <glyph glyph-name="Ydieresis" unicode="&#x178;" horiz-adv-x="624" 
d="M509 710h100l-252 -407v-303h-92v304l-250 406h102l196 -325zM265 896v-103h-84v103h84zM442 896v-103h-84v103h84z" />
    <glyph glyph-name="Zacute" unicode="&#x179;" horiz-adv-x="623" 
d="M581 710v-74l-431 -559h430v-77h-539v74l431 559h-412v77h521zM453 910l-92 -141h-76l72 141h96z" />
    <glyph glyph-name="zacute" unicode="&#x17a;" horiz-adv-x="478" 
d="M434 492v-63l-289 -358h289v-71h-396v64l291 358h-273v70h378zM369 706l-92 -141h-76l72 141h96z" />
    <glyph glyph-name="Zdotaccent" unicode="&#x17b;" horiz-adv-x="623" 
d="M581 710v-74l-431 -559h430v-77h-539v74l431 559h-412v77h521zM367 896v-103h-86v103h86z" />
    <glyph glyph-name="zdotaccent" unicode="&#x17c;" horiz-adv-x="478" 
d="M434 492v-63l-289 -358h289v-71h-396v64l291 358h-273v70h378zM284 692v-103h-86v103h86z" />
    <glyph glyph-name="Zcaron" unicode="&#x17d;" horiz-adv-x="623" 
d="M581 710v-74l-431 -559h430v-77h-539v74l431 559h-412v77h521zM476 910l-98 -141h-108l-98 141h74l78 -99l78 99h74z" />
    <glyph glyph-name="zcaron" unicode="&#x17e;" horiz-adv-x="478" 
d="M434 492v-63l-289 -358h289v-71h-396v64l291 358h-273v70h378zM393 706l-98 -141h-108l-98 141h74l78 -99l78 99h74z" />
    <glyph glyph-name="florin" unicode="&#x192;" 
d="M320 462h129.002v-65h-129v-438c0 -102 -46.333 -153 -139 -153c-34 0 -66 5 -96 15l18 65c27.333 -6.66699 50 -10 68 -10c23.333 0 39.666 6.5 48.999 19.5s14 34.5 14 64.5v437h-112v65h112v82c0 48.667 12.667 86 38 112s62 39 110 39c32.667 0 66 -5.66699 100 -17
l-18 -66c-26.667 8 -49.334 12 -68.001 12c-27.333 0 -46.833 -7 -58.5 -21s-17.5 -37 -17.5 -69v-72z" />
    <glyph glyph-name="uni0218" unicode="&#x218;" horiz-adv-x="629" 
d="M576 621l-54 -63.998c-37.333 32.667 -72.166 55.667 -104.499 69s-68.833 20 -109.5 20c-48 0 -87.167 -10.833 -117.5 -32.5s-45.5 -49.5 -45.5 -83.5c0 -24 7 -43.333 21 -58c13.333 -13.333 32.166 -24.166 56.499 -32.499s63.5 -18.833 117.5 -31.5
c90.667 -20.667 154.334 -45.834 191.001 -75.501s55 -72.5 55 -128.5c0 -65.333 -24.5 -118.333 -73.5 -159s-111.833 -61 -188.5 -61c-56.667 0 -107.667 9.33301 -153 28s-94 50.334 -146 95.001l55 65c50.667 -42.667 93.667 -71.334 129 -86.001
c36 -14.667 74.667 -22 116 -22c50 0 90.667 12.167 122 36.5s47 57.166 47 98.499c0 27.333 -7.66699 48.666 -23 63.999c-14 15.333 -34.333 27.666 -61 36.999c-29.333 10.667 -67.333 21 -114 31c-92 20.667 -155.167 44.834 -189.5 72.501s-51.5 69.167 -51.5 124.5
c0 57.333 24.333 104.5 73 141.5s108.667 55.5 180 55.5c53.333 0 100.666 -8.16699 141.999 -24.5s83.333 -42.833 126 -79.5zM363 -72.998v-86l-57 -94h-48l52 94h-47v86h100z" />
    <glyph glyph-name="uni0219" unicode="&#x219;" horiz-adv-x="479" 
d="M437 434l-47.001 -57.9951c-30 23.333 -56.167 39.166 -78.5 47.499s-47.833 12.5 -76.5 12.5c-32.667 0 -58.834 -6.83301 -78.501 -20.5s-29.5 -31.167 -29.5 -52.5c2.66699 -20.667 11.334 -34.834 26.001 -42.501s50 -17.834 106 -30.501
c68 -16 116 -34.833 144 -56.5s42 -53.167 42 -94.5c0 -46 -18 -83 -54 -111s-83.667 -42 -143 -42c-44.667 0 -84.167 6.83301 -118.5 20.5s-70.5 37.5 -108.5 71.5l51 56c36 -30 66.667 -50.333 92 -61s53.666 -16 84.999 -16c32.667 0 59.5 7 80.5 21s31.5 33 31.5 57
c0 23.333 -10 40.666 -30 51.999s-56 22.666 -108 33.999c-70 16 -117 32.833 -141 50.5s-36.667 47.167 -38 88.5c0 43.333 17.667 78.5 53 105.5s81.333 40.5 138 40.5c40.667 0 76.334 -5.5 107.001 -16.5s62.334 -29.5 95.001 -55.5zM283.999 -72.9951v-86l-57 -94h-48
l52 94h-47v86h100z" />
    <glyph glyph-name="uni021A" unicode="&#x21a;" horiz-adv-x="603" 
d="M572 710v-78h-224v-632h-93v632h-224v78h541zM353 -73v-86l-57 -94h-48l52 94h-47v86h100z" />
    <glyph glyph-name="uni021B" unicode="&#x21b;" horiz-adv-x="356" 
d="M325 76l12.999 -67.999c-32 -11.333 -65.667 -17 -101 -17c-44.667 0 -77 10.167 -97 30.5s-30 51.166 -30 92.499v313h-92v65h92v165h86v-165h133v-65h-133v-303c0 -22 4.5 -37.5 13.5 -46.5s23.833 -13.5 44.5 -13.5c18.667 0 42.334 4 71.001 12zM272.999 -72.999v-86
l-57 -94h-48l52 94h-47v86h100z" />
    <glyph glyph-name="uni0237" unicode="&#x237;" horiz-adv-x="224" 
d="M7 -121c23.333 0 39.667 6.5 49 19.5s14 34.167 14 63.5v530h86v-530c0 -102.667 -46.333 -154 -139 -154c-31.333 0 -63 5 -95 15l17 66c24 -6.66699 46.667 -10 68 -10z" />
    <glyph glyph-name="circumflex" unicode="&#x2c6;" horiz-adv-x="418" 
d="M287 565l-78 98l-78 -98h-74l98 141h108l98 -141h-74z" />
    <glyph glyph-name="caron" unicode="&#x2c7;" horiz-adv-x="418" 
d="M361 706l-98 -141h-108l-98 141h74l78 -99l78 99h74z" />
    <glyph glyph-name="breve" unicode="&#x2d8;" horiz-adv-x="401" 
d="M57 690h62.999c0.666992 -22 8 -39.667 22 -53s33.667 -20 59 -20s44.833 6.5 58.5 19.5s21.167 30.833 22.5 53.5h62c0 -40 -13.167 -71.833 -39.5 -95.5s-60.833 -35.5 -103.5 -35.5c-43.333 0 -78.166 11.833 -104.499 35.5s-39.5 55.5 -39.5 95.5z" />
    <glyph glyph-name="dotaccent" unicode="&#x2d9;" horiz-adv-x="200" 
d="M143 692v-103h-86v103h86z" />
    <glyph glyph-name="ring" unicode="&#x2da;" horiz-adv-x="328" 
d="M271 663c0 -28 -10.667 -52.667 -32 -74c-20.667 -20 -45.667 -30 -75 -30c-30 0 -55.333 10.167 -76 30.5s-31 44.833 -31 73.5c0 29.333 10.333 54 31 74s46 30 76 30c29.333 0 54.333 -10.333 75 -31c21.333 -20 32 -44.333 32 -73zM104 663
c0 -18 5.66699 -32.667 17 -44s25.666 -17 42.999 -17s31.5 5.66699 42.5 17s16.5 26 16.5 44s-5.5 32.667 -16.5 44s-25.167 17 -42.5 17s-31.666 -5.66699 -42.999 -17s-17 -26 -17 -44z" />
    <glyph glyph-name="ogonek" unicode="&#x2db;" horiz-adv-x="256" 
d="M161 23l39 -23c-53.333 -37.333 -80 -74 -80 -110c0 -28 17 -42 51 -42c10 0 18.667 1 26 3v-54c-9.33301 -4 -22 -6 -38 -6c-30.667 0 -55.167 7.5 -73.5 22.5s-27.5 35.5 -27.5 61.5c0 54 34.333 103.333 103 148z" />
    <glyph glyph-name="tilde" unicode="&#x2dc;" horiz-adv-x="425" 
d="M227 655c22.667 -15.333 41.334 -23 56.001 -23c21.333 0 32 17.333 32 52h54c0 -34 -7.33301 -61 -22 -81s-34.334 -30 -59.001 -30c-17.333 0 -43 9.33301 -77 28c-28 16.667 -49.667 25 -65 25c-22.667 0 -34 -17.333 -34 -52h-55c0 34 8.16699 61 24.5 81
s37.833 30 64.5 30c20 0 47 -10 81 -30z" />
    <glyph glyph-name="hungarumlaut" unicode="&#x2dd;" horiz-adv-x="428" 
d="M216 709l-93 -144h-66l72 144h87zM371 709l-94 -144h-67l74 144h87z" />
    <glyph glyph-name="gravecomb" unicode="&#x300;" horiz-adv-x="0" 
d="M-264 706h96l72 -141h-76z" />
    <glyph glyph-name="acutecomb" unicode="&#x301;" horiz-adv-x="0" 
d="M-77 706l-92 -141h-76l72 141h96z" />
    <glyph glyph-name="uni0302" unicode="&#x302;" horiz-adv-x="0" 
d="M-154 565l-78 98l-78 -98h-74l98 141h108l98 -141h-74z" />
    <glyph glyph-name="tildecomb" unicode="&#x303;" horiz-adv-x="0" 
d="M-246 655c22.667 -15.333 41.334 -23 56.001 -23c21.333 0 32 17.333 32 52h54c0 -34 -7.33301 -61 -22 -81s-34.334 -30 -59.001 -30c-17.333 0 -43 9.33301 -77 28c-28 16.667 -49.667 25 -65 25c-22.667 0 -34 -17.333 -34 -52h-55c0 34 8.16699 61 24.5 81
s37.833 30 64.5 30c20 0 47 -10 81 -30z" />
    <glyph glyph-name="uni0304" unicode="&#x304;" horiz-adv-x="0" 
d="M-94 660v-66h-279v66h279z" />
    <glyph glyph-name="uni0306" unicode="&#x306;" horiz-adv-x="0" 
d="M-389 690h62.999c0.666992 -22 8 -39.667 22 -53s33.667 -20 59 -20s44.833 6.5 58.5 19.5s21.167 30.833 22.5 53.5h62c0 -40 -13.167 -71.833 -39.5 -95.5s-60.833 -35.5 -103.5 -35.5c-43.333 0 -78.166 11.833 -104.499 35.5s-39.5 55.5 -39.5 95.5z" />
    <glyph glyph-name="uni0307" unicode="&#x307;" horiz-adv-x="0" 
d="M-100 692v-103h-86v103h86z" />
    <glyph glyph-name="uni0308" unicode="&#x308;" horiz-adv-x="0" 
d="M-277 692v-103h-84v103h84zM-100 692v-103h-84v103h84z" />
    <glyph glyph-name="uni030A" unicode="&#x30a;" horiz-adv-x="0" 
d="M-106 663c0 -28.667 -10.334 -53.333 -31.001 -74c-21.333 -20 -46.666 -30 -75.999 -30c-30 0 -55.333 10.167 -76 30.5s-31 44.833 -31 73.5c0 29.333 10.333 54 31 74s46 30 76 30s55.333 -10.333 76 -31c20.667 -20 31 -44.333 31 -73zM-273.001 663.001
c0 -18 5.66699 -32.667 17 -44s25.666 -17 42.999 -17s31.5 5.66699 42.5 17s16.5 26 16.5 44s-5.5 32.667 -16.5 44s-25.167 17 -42.5 17s-31.666 -5.66699 -42.999 -17s-17 -26 -17 -44z" />
    <glyph glyph-name="uni030B" unicode="&#x30b;" horiz-adv-x="0" 
d="M-250 709l-93 -144h-66l72 144h87zM-95 709l-94 -144h-67l74 144h87z" />
    <glyph glyph-name="uni030C" unicode="&#x30c;" horiz-adv-x="0" 
d="M-92 706l-98 -141h-108l-98 141h74l78 -99l78 99h74z" />
    <glyph glyph-name="uni0326" unicode="&#x326;" horiz-adv-x="0" 
d="M-100 -73v-86l-57 -94h-48l52 94h-47v86h100z" />
    <glyph glyph-name="uni0327" unicode="&#x327;" horiz-adv-x="0" 
d="M-93 -145c0 -26.667 -9.83105 -48.333 -29.498 -65s-44.834 -25 -75.501 -25c-34.667 0 -70.667 12 -108 36l25 41c31.333 -18 58.333 -27 81 -27c16 0 28.833 3.5 38.5 10.5s14.5 16.5 14.5 28.5c0 11.333 -5.33301 20.333 -16 27s-24.334 10 -41.001 10
c-11.333 0 -21 -1 -29 -3l-28 27l49 104l43 -19l-31 -67c31.333 1.33301 57 -5.16699 77 -19.5s30 -33.833 30 -58.5z" />
    <glyph glyph-name="uni0328" unicode="&#x328;" horiz-adv-x="0" 
d="M-127 23l39 -23c-53.333 -37.333 -80 -74 -80 -110c0 -28 17 -42 51 -42c10 0 18.667 1 26 3v-54c-9.33301 -4 -22 -6 -38 -6c-30.667 0 -55.167 7.5 -73.5 22.5s-27.5 35.5 -27.5 61.5c0 54 34.333 103.333 103 148z" />
    <glyph glyph-name="uni037E" unicode="&#x37e;" horiz-adv-x="256" 
d="M189 108v-108l-61 -125h-52l55 125h-50v108h108zM185 492v-108h-102v108h102z" />
    <glyph glyph-name="tonos" unicode="&#x384;" horiz-adv-x="342" 
d="M183 572h-73l40 144h95z" />
    <glyph glyph-name="dieresistonos" unicode="&#x385;" horiz-adv-x="458" 
d="M190 589l25 127h89l-48 -127h-66zM80 589v91h82v-91h-82zM317 589v91h82v-91h-82z" />
    <glyph glyph-name="Alphatonos" unicode="&#x386;" horiz-adv-x="670" 
d="M558 0l-64 181h-320l-64 -181h-93l257 710h121l258 -710h-95zM202 259l264 0.000976562l-33 93c-44.667 119.333 -78 215.666 -100 288.999c-16.667 -56.667 -45.667 -142.667 -87 -258l-11 -32zM96 566.001h-73l40 144h95z" />
    <glyph glyph-name="anoteleia" unicode="&#x387;" horiz-adv-x="216" 
d="M159 367v-108h-102v108h102z" />
    <glyph glyph-name="Epsilontonos" unicode="&#x388;" horiz-adv-x="609" 
d="M554 710v-77h-380v-229h354v-77h-354v-250h389v-77h-481v710h472zM-29 566h-73l40 144h95z" />
    <glyph glyph-name="Etatonos" unicode="&#x389;" horiz-adv-x="729" 
d="M647 710v-710h-93v330h-380v-330h-92v710h92v-303h380v303h93zM-29 566h-73l40 144h95z" />
    <glyph glyph-name="Iotatonos" unicode="&#x38a;" horiz-adv-x="270" 
d="M181 710v-710h-92v710h92zM-29 566h-73l40 144h95z" />
    <glyph glyph-name="Omicrontonos" unicode="&#x38c;" horiz-adv-x="757" 
d="M716 355c0 -108 -30.667 -196.833 -92 -266.5s-143 -104.5 -245 -104.5s-183.667 34.833 -245 104.5s-92 158.5 -92 266.5s30.667 196.833 92 266.5s143 104.5 245 104.5s183.667 -34.833 245 -104.5s92 -158.5 92 -266.5zM136 355c0 -85.333 22.5 -155 67.5 -209
s103.5 -81 175.5 -81c72.667 0 131.334 26.833 176.001 80.5s67 123.5 67 209.5c0 85.333 -22.333 155 -67 209s-103.334 81 -176.001 81c-72 0 -130.5 -27.167 -175.5 -81.5s-67.5 -123.833 -67.5 -208.5zM3 566h-73l40 144h95z" />
    <glyph glyph-name="Upsilontonos" unicode="&#x38e;" horiz-adv-x="624" 
d="M509 710h100l-252 -407v-303h-92v304l-250 406h102l196 -325zM-64 566h-73l40 144h95z" />
    <glyph glyph-name="Omegatonos" unicode="&#x38f;" horiz-adv-x="757" 
d="M579 77l136.999 0.000976562v-77h-268v78c116 47.333 174 140.666 174 279.999c0 84.667 -22.333 153.667 -67 207s-103.334 80 -176.001 80c-72 0 -130.5 -26.833 -175.5 -80.5s-67.5 -122.5 -67.5 -206.5c0 -139.333 58.333 -232.666 175 -279.999v-78h-269v77h138
c-44 27.333 -78 66 -102 116s-36 105 -36 165c0 108 30.667 196.333 92 265s143 103 245 103c100.667 1.33301 182.334 -33 245.001 -103s93.334 -158.333 92.001 -265c0 -60.667 -11.833 -115.834 -35.5 -165.501s-57.5 -88.167 -101.5 -115.5zM2.99902 566.001h-73l40 144
h95z" />
    <glyph glyph-name="iotadieresistonos" unicode="&#x390;" horiz-adv-x="221" 
d="M154 0h-87v492h87v-492zM72 589l25 127h89l-48 -127h-66zM-38 589v91h82v-91h-82zM199 589v91h82v-91h-82z" />
    <glyph glyph-name="Alpha" unicode="&#x391;" horiz-adv-x="669" 
d="M558 0l-64 181h-320l-64 -181h-93l257 710h121l258 -710h-95zM202 259l264 0.000976562l-33 93c-44.667 119.333 -78 215.666 -100 288.999c-16.667 -56.667 -45.667 -142.667 -87 -258l-11 -32z" />
    <glyph glyph-name="Beta" unicode="&#x392;" horiz-adv-x="667" 
d="M628 199c0 -61.333 -19.832 -109.832 -59.499 -145.499s-92.5 -53.5 -158.5 -53.5h-328v710h313c63.333 0 113.833 -15.833 151.5 -47.5s56.5 -75.834 56.5 -132.501c0 -38 -9.83301 -70.333 -29.5 -97s-46.834 -46 -81.501 -58c42.667 -12.667 76 -34 100 -64
s36 -67.333 36 -112zM174.001 636.001v-227h202c43.333 0 77 10.167 101 30.5s36 48.833 36 85.5c0 36 -11.833 63.5 -35.5 82.5s-57.167 28.5 -100.5 28.5h-203zM536.001 204.001c0 40 -13.833 71.833 -41.5 95.5s-65.5 35.5 -113.5 35.5h-207v-261h207
c49.333 0 87.5 11.5 114.5 34.5s40.5 54.833 40.5 95.5z" />
    <glyph glyph-name="Gamma" unicode="&#x393;" horiz-adv-x="564" 
d="M534 633h-360v-633h-92v710h452v-77z" />
    <glyph glyph-name="uni0394" unicode="&#x394;" horiz-adv-x="670" 
d="M396 710l258 -710h-637l257 710h122zM138 77h393l-98 275c-48.667 136 -81.667 233 -99 291c-14 -48.667 -44.667 -139.667 -92 -273l-7 -19z" />
    <glyph glyph-name="Epsilon" unicode="&#x395;" horiz-adv-x="609" 
d="M554 710v-77h-380v-229h354v-77h-354v-250h389v-77h-481v710h472z" />
    <glyph glyph-name="Zeta" unicode="&#x396;" horiz-adv-x="623" 
d="M581 710v-74l-431 -559h430v-77h-539v74l431 559h-412v77h521z" />
    <glyph glyph-name="Eta" unicode="&#x397;" horiz-adv-x="729" 
d="M647 710v-710h-93v330h-380v-330h-92v710h92v-303h380v303h93z" />
    <glyph glyph-name="Theta" unicode="&#x398;" horiz-adv-x="760" 
d="M720 355c1.33301 -108 -29.667 -197.167 -93 -267.5s-145.333 -104.833 -246 -103.5c-102 0 -184.167 34.667 -246.5 104s-93.5 158.333 -93.5 267s31.167 197.667 93.5 267s144.5 104 246.5 104c100.667 1.33301 182.667 -33.167 246 -103.5s94.333 -159.5 93 -267.5z
M136 355c0 -86 22.502 -155.667 67.502 -209s104.167 -80 177.5 -80s132.166 26.667 176.499 80s66.5 123 66.5 209c0 85.333 -22.333 154.833 -67 208.5s-103.334 80.5 -176.001 80.5s-131.667 -26.833 -177 -80.5s-68 -123.167 -68 -208.5zM224.002 403h312v-76h-312v76z
" />
    <glyph glyph-name="Iota" unicode="&#x399;" horiz-adv-x="270" 
d="M181 710v-710h-92v710h92z" />
    <glyph glyph-name="Kappa" unicode="&#x39a;" horiz-adv-x="658" 
d="M544 0l-243 366l-127 -131v-235h-92v710h92v-363l346 363h115l-271 -280l285 -430h-105z" />
    <glyph glyph-name="Lambda" unicode="&#x39b;" horiz-adv-x="634" 
d="M376 710l240 -709.999h-95l-118 352c-33.333 97.333 -62.333 189.666 -87 276.999c-17.333 -60.667 -46.333 -152.667 -87 -276l-117 -353h-95l241 710h118z" />
    <glyph glyph-name="Mu" unicode="&#x39c;" horiz-adv-x="870" 
d="M641 710h147.001v-710h-90v355c0 98 1 194.333 3 289c-12.667 -40.667 -32.334 -96.667 -59.001 -168l-42 -121l-124 -355h-81l-127 355l-101 287c2 -94.667 3 -190.667 3 -288v-354h-88v710h147l112 -313c48 -134.667 79.667 -229.667 95 -285
c22 73.333 53.333 168.333 94 285z" />
    <glyph glyph-name="Nu" unicode="&#x39d;" horiz-adv-x="732" 
d="M560 710h90v-710h-102l-210 323c-72 108 -129 198.333 -171 271c3.33301 -108 5 -199.667 5 -275v-319h-90v710h103l213 -328l26 -40c70 -109.333 117 -184.333 141 -225c-3.33301 105.333 -5 195 -5 269v324z" />
    <glyph glyph-name="Xi" unicode="&#x39e;" horiz-adv-x="642" 
d="M54 627v83h534v-83h-534zM87 325v82h467v-82h-467zM45 0v83h551v-83h-551z" />
    <glyph glyph-name="Omicron" unicode="&#x39f;" horiz-adv-x="758" 
d="M716 355c0 -108 -30.667 -196.833 -92 -266.5s-143 -104.5 -245 -104.5s-183.667 34.833 -245 104.5s-92 158.5 -92 266.5s30.667 196.833 92 266.5s143 104.5 245 104.5s183.667 -34.833 245 -104.5s92 -158.5 92 -266.5zM136 355c0 -85.333 22.5 -155 67.5 -209
s103.5 -81 175.5 -81c72.667 0 131.334 26.833 176.001 80.5s67 123.5 67 209.5c0 85.333 -22.333 155 -67 209s-103.334 81 -176.001 81c-72 0 -130.5 -27.167 -175.5 -81.5s-67.5 -123.833 -67.5 -208.5z" />
    <glyph glyph-name="Pi" unicode="&#x3a0;" horiz-adv-x="714" 
d="M633 0h-93v633h-366v-633h-92v710h551v-710z" />
    <glyph glyph-name="Rho" unicode="&#x3a1;" horiz-adv-x="651" 
d="M618 498c0 -66.667 -21.333 -119 -64 -157c-42.667 -37.333 -98.334 -56 -167.001 -56h-213v-285h-92v710h305c70.667 0 126.834 -18.833 168.501 -56.5s62.5 -89.5 62.5 -155.5zM374 633l-200 0.000976562v-271h200c48 0 85.333 11.833 112 35.5s40 57.167 40 100.5
s-13.333 76.666 -40 99.999s-64 35 -112 35z" />
    <glyph glyph-name="Sigma" unicode="&#x3a3;" horiz-adv-x="600" 
d="M148 77h412v-77h-519v74l229 289l-222 266v81h505v-77h-399l224 -267z" />
    <glyph glyph-name="Tau" unicode="&#x3a4;" horiz-adv-x="603" 
d="M572 710v-78h-224v-632h-93v632h-224v78h541z" />
    <glyph glyph-name="Upsilon" unicode="&#x3a5;" horiz-adv-x="624" 
d="M509 710h100l-252 -407v-303h-92v304l-250 406h102l196 -325z" />
    <glyph glyph-name="Phi" unicode="&#x3a6;" horiz-adv-x="810" 
d="M452 59v-62h-94v62c-100 4 -178.167 34 -234.5 90s-84.5 126.333 -84.5 211s28.167 155 84.5 211s134.5 86 234.5 90v52h94v-52c100 -4 178.167 -34 234.5 -90s84.5 -126.333 84.5 -211s-28.167 -155 -84.5 -211s-134.5 -86 -234.5 -90zM361 134v451.002
c-73.333 -4.66699 -129.833 -27.167 -169.5 -67.5s-59.5 -92.833 -59.5 -157.5s19.833 -117.334 59.5 -158.001s96.167 -63.334 169.5 -68.001zM677 360.002c0 64.667 -19.6689 117.165 -59.002 157.498s-95.666 62.833 -168.999 67.5v-451
c72.667 4.66699 128.834 27.334 168.501 68.001s59.5 93.334 59.5 158.001z" />
    <glyph glyph-name="Chi" unicode="&#x3a7;" horiz-adv-x="643" 
d="M631 0h-104l-206 307l-206 -307h-104l255 373l-230 337h103l184 -273l182 273h103l-230 -337z" />
    <glyph glyph-name="Psi" unicode="&#x3a8;" horiz-adv-x="794" 
d="M626 710h93.002v-309c0 -75.333 -23 -134.333 -69 -177s-115 -65.334 -207 -68.001v-156h-92v156c-92 2.66699 -161 25.334 -207 68.001s-69 101.667 -69 177v309h93v-306c0 -51.333 15.667 -91.833 47 -121.5s76.666 -45.834 135.999 -48.501v476h92v-476
c59.333 2.66699 104.666 18.834 135.999 48.501s47 70.167 47 121.5v306z" />
    <glyph glyph-name="uni03A9" unicode="&#x3a9;" horiz-adv-x="757" 
d="M579 77l136.999 0.000976562v-77h-268v78c116 47.333 174 140.666 174 279.999c0 84.667 -22.333 153.667 -67 207s-103.334 80 -176.001 80c-72 0 -130.5 -26.833 -175.5 -80.5s-67.5 -122.5 -67.5 -206.5c0 -139.333 58.333 -232.666 175 -279.999v-78h-269v77h138
c-44 27.333 -78 66 -102 116s-36 105 -36 165c0 108 30.667 196.333 92 265s143 103 245 103c100.667 1.33301 182.334 -33 245.001 -103s93.334 -158.333 92.001 -265c0 -60.667 -11.833 -115.834 -35.5 -165.501s-57.5 -88.167 -101.5 -115.5z" />
    <glyph glyph-name="Iotadieresis" unicode="&#x3aa;" horiz-adv-x="270" 
d="M181 710v-710h-92v710h92zM88 896v-103h-84v103h84zM265 896v-103h-84v103h84z" />
    <glyph glyph-name="Upsilondieresis" unicode="&#x3ab;" horiz-adv-x="624" 
d="M509 710h100l-252 -407v-303h-92v304l-250 406h102l196 -325zM265 896v-103h-84v103h84zM442 896v-103h-84v103h84z" />
    <glyph glyph-name="alphatonos" unicode="&#x3ac;" horiz-adv-x="573" 
d="M425 492h81v-492h-81v76c-36.667 -59.333 -92.667 -89 -168 -89c-63.333 0 -115.666 24 -156.999 72s-62 110.333 -62 187s20.667 139 62 187s93.666 72 156.999 72c77.333 0 133.333 -29.333 168 -88v75zM422 246c0 57.333 -13.832 102.666 -41.499 135.999
s-64.5 50 -110.5 50c-42.667 0 -77.334 -17.333 -104.001 -52c-26 -34 -39 -78.667 -39 -134c0 -56 13 -101 39 -135s60.667 -51 104 -51c45.333 0 82 16.833 110 50.5s42 78.834 42 135.501zM320.001 572h-73l40 144h95z" />
    <glyph glyph-name="epsilontonos" unicode="&#x3ad;" horiz-adv-x="504" 
d="M434 127l48.999 -56c-63.333 -56.667 -137.333 -85 -222 -85c-72 0 -127.333 12.667 -166 38s-58 62.333 -58 111c0 60 34.667 101.333 104 124c-56.667 21.333 -85 58 -85 110c0 42 19.5 75.333 58.5 100s89.833 37 152.5 37c80.667 0 151 -24 211 -72l-47 -58
c-54 40.667 -108.333 61 -163 61c-38 0 -68.167 -6.5 -90.5 -19.5s-33.5 -30.167 -33.5 -51.5c0 -24 9.66699 -42.833 29 -56.5s47 -20.5 83 -20.5h75v-63h-74c-87.333 0 -131 -28.667 -131 -86c0 -54.667 45 -82 135 -82c64.667 0 122.334 23 173.001 69zM306.999 572h-73
l40 144h95z" />
    <glyph glyph-name="etatonos" unicode="&#x3ae;" horiz-adv-x="545" 
d="M480 337v-517h-87v490c0 40 -9.83301 70.5 -29.5 91.5s-47.5 31.5 -83.5 31.5c-35.333 0 -65.333 -12.333 -90 -37c-24 -24 -36 -54 -36 -90v-306h-87v492h81v-64c32.667 52 84.667 78 156 78c55.333 0 98.5 -15.5 129.5 -46.5s46.5 -71.833 46.5 -122.5zM312 572h-73
l40 144h95z" />
    <glyph glyph-name="iotatonos" unicode="&#x3af;" horiz-adv-x="221" 
d="M154 0h-87v492h87v-492zM149 572h-73l40 144h95z" />
    <glyph glyph-name="upsilondieresistonos" unicode="&#x3b0;" horiz-adv-x="535" 
d="M65 190v302h87v-297c0 -90.667 38.333 -136 115 -136c40.667 0 70.167 11.5 88.5 34.5s27.5 56.833 27.5 101.5v297h87v-302c0 -64.667 -16.833 -114.834 -50.5 -150.501s-84.167 -53.5 -151.5 -53.5s-118 17.833 -152 53.5s-51 85.834 -51 150.501zM229 589l25 127h89
l-48 -127h-66zM119 589v91h82v-91h-82zM356 589v91h82v-91h-82z" />
    <glyph glyph-name="alpha" unicode="&#x3b1;" horiz-adv-x="573" 
d="M425 492h81v-492h-81v76c-36.667 -59.333 -92.667 -89 -168 -89c-63.333 0 -115.666 24 -156.999 72s-62 110.333 -62 187s20.667 139 62 187s93.666 72 156.999 72c77.333 0 133.333 -29.333 168 -88v75zM422 246c0 57.333 -13.832 102.666 -41.499 135.999
s-64.5 50 -110.5 50c-42.667 0 -77.334 -17.333 -104.001 -52c-26 -34 -39 -78.667 -39 -134c0 -56 13 -101 39 -135s60.667 -51 104 -51c45.333 0 82 16.833 110 50.5s42 78.834 42 135.501z" />
    <glyph glyph-name="beta" unicode="&#x3b2;" horiz-adv-x="573" 
d="M534 198c0 -63.333 -19.833 -114.332 -59.5 -152.999s-93.5 -58 -161.5 -58c-72 0 -125 30 -159 90v-257h-87v686c0 65.333 19.833 118.166 59.5 158.499s92.5 60.5 158.5 60.5c65.333 0 117 -16.667 155 -50s57 -77.333 57 -132c0 -38 -10.167 -71 -30.5 -99
s-46.5 -47.333 -78.5 -58c44 -10 79.333 -31.5 106 -64.5s40 -74.167 40 -123.5zM445 203.001c0 44 -14.166 78.668 -42.499 104.001s-64.833 38 -109.5 38h-51v71h55c33.333 0 60.666 11.667 81.999 35s32 52.666 32 87.999c0 36.667 -11.167 64.667 -33.5 84
s-52.833 29 -91.5 29c-41.333 0 -73.666 -13.333 -96.999 -40s-35 -63 -35 -109v-265c0 -54 14 -97.167 42 -129.5s65 -48.5 111 -48.5c43.333 0 77.166 13 101.499 39s36.5 60.667 36.5 104z" />
    <glyph glyph-name="gamma" unicode="&#x3b3;" horiz-adv-x="481" 
d="M199 -180v179l-184 493h91l63 -177c20.667 -58 45 -131.667 73 -221c22.667 74.667 46.667 147.667 72 219l63 179h89l-181 -492v-180h-86z" />
    <glyph glyph-name="delta" unicode="&#x3b4;" horiz-adv-x="560" 
d="M36 233c0 66.667 20.5 123.832 61.5 171.499s95.167 71.834 162.5 72.501c9.33301 0 15 -0.333008 17 -1l-185 169v65h376v-70h-255l195 -178c76.667 -68.667 115 -145 115 -229c0 -69.333 -22.5 -127.833 -67.5 -175.5s-103.5 -71.5 -175.5 -71.5
c-70.667 0 -129 23.5 -175 70.5s-69 105.833 -69 176.5zM434 232.998c0 47.333 -13.333 88.833 -40 124.5s-64.334 53.5 -113.001 53.5c-47.333 0 -85.333 -17.5 -114 -52.5s-43 -76.833 -43 -125.5c0 -46 13.833 -86.5 41.5 -121.5s65.834 -52.5 114.501 -52.5
c48 0 85.667 17 113 51s41 75 41 123z" />
    <glyph glyph-name="epsilon" unicode="&#x3b5;" horiz-adv-x="504" 
d="M434 127l48.999 -56c-63.333 -56.667 -137.333 -85 -222 -85c-72 0 -127.333 12.667 -166 38s-58 62.333 -58 111c0 60 34.667 101.333 104 124c-56.667 21.333 -85 58 -85 110c0 42 19.5 75.333 58.5 100s89.833 37 152.5 37c80.667 0 151 -24 211 -72l-47 -58
c-54 40.667 -108.333 61 -163 61c-38 0 -68.167 -6.5 -90.5 -19.5s-33.5 -30.167 -33.5 -51.5c0 -24 9.66699 -42.833 29 -56.5s47 -20.5 83 -20.5h75v-63h-74c-87.333 0 -131 -28.667 -131 -86c0 -54.667 45 -82 135 -82c64.667 0 122.334 23 173.001 69z" />
    <glyph glyph-name="zeta" unicode="&#x3b6;" horiz-adv-x="495" 
d="M386 -173l-48.002 51.998c20.667 18 35.167 32.167 43.5 42.5s12.5 21.5 12.5 33.5c0 30 -18.333 45 -55 45h-72c-70 0 -125.333 16.667 -166 50s-61 80.333 -61 141c0 86.667 27.667 168.667 83 246c54.667 74.667 122.334 142.334 203.001 203.001h-261v70h387v-63
c-96 -68 -174 -141.333 -234 -220c-59.333 -77.333 -89 -155.666 -89 -234.999s47.667 -119 143 -119h72c40.667 0 72.334 -9.33301 95.001 -28s34 -45 34 -79c0 -26 -7 -49.167 -21 -69.5s-36 -43.5 -66 -69.5z" />
    <glyph glyph-name="eta" unicode="&#x3b7;" horiz-adv-x="545" 
d="M480 337v-517h-87v490c0 40 -9.83301 70.5 -29.5 91.5s-47.5 31.5 -83.5 31.5c-35.333 0 -65.333 -12.333 -90 -37c-24 -24 -36 -54 -36 -90v-306h-87v492h81v-64c32.667 52 84.667 78 156 78c55.333 0 98.5 -15.5 129.5 -46.5s46.5 -71.833 46.5 -122.5z" />
    <glyph glyph-name="theta" unicode="&#x3b8;" horiz-adv-x="571" 
d="M438 46c-38.667 -40 -89.334 -59.9941 -152.001 -59.9941s-113.667 20 -153 60c-30.667 32.667 -52 73.667 -64 123s-18 111.666 -18 186.999s6 137.666 18 186.999s33.333 90.333 64 123c39.333 40 90.333 60 153 60s113.334 -20 152.001 -60
c31.333 -32.667 53 -73.834 65 -123.501s18 -111.834 18 -186.501s-6 -136.834 -18 -186.501s-33.667 -90.834 -65 -123.501zM138 393.006h294c-3.33301 100.667 -20.333 172.334 -51 215.001c-22.667 30.667 -54.334 46 -95.001 46c-40 0 -72 -15.333 -96 -46
c-31.333 -42.667 -48.666 -114.334 -51.999 -215.001zM433 328.006h-295c0.666992 -103.333 18 -178 52 -224c24 -30.667 56 -46 96 -46c40.667 0 72.334 15.333 95.001 46c31.333 43.333 48.666 118 51.999 224z" />
    <glyph glyph-name="iota" unicode="&#x3b9;" horiz-adv-x="221" 
d="M154 0h-87v492h87v-492z" />
    <glyph glyph-name="kappa" unicode="&#x3ba;" horiz-adv-x="509" 
d="M406 0l-163 245l-89 -92v-153h-87v492h87v-241l228 241h101l-181 -190l201 -302h-97z" />
    <glyph glyph-name="lambda" unicode="&#x3bb;" horiz-adv-x="480" 
d="M251 602l214 -601.999h-88l-62 177c-26 72.667 -49 143 -69 211c-11.333 -32.667 -18.666 -54.334 -21.999 -65.001c-28 -80.667 -45 -129 -51 -145l-67 -178h-91l190 495l-29 86c-16.667 48.667 -40 73 -70 73c-16 0 -35.333 -4 -58 -12l-19 68c30 10.667 58 16 84 16
c35.333 0 63.166 -9.66699 83.499 -29s38.5 -51 54.5 -95z" />
    <glyph glyph-name="uni03BC" unicode="&#x3bc;" horiz-adv-x="539" 
d="M385 492h87v-492h-79v68c-28.667 -54.667 -74.667 -82 -138 -82c-44.667 0 -78.334 11.333 -101.001 34v-203h-87v675h87v-324c0 -71.333 36 -107 108 -107c36.667 0 66.334 11.5 89.001 34.5s34 55.167 34 96.5v300z" />
    <glyph glyph-name="nu" unicode="&#x3bd;" horiz-adv-x="480" 
d="M377 492h88l-171 -492h-109l-170 492h90l61 -181c35.333 -109.333 60.333 -190 75 -242c14.667 52 39.667 132.667 75 242z" />
    <glyph glyph-name="xi" unicode="&#x3be;" horiz-adv-x="495" 
d="M386 -173l-48.001 52c20.667 18 35.167 32.167 43.5 42.5s12.5 21.5 12.5 33.5c0 30 -18.333 45 -55 45h-72c-70 0 -125.333 17 -166 51s-61 80.667 -61 140c0 49.333 12.833 90 38.5 122s59.167 53 100.5 63c-28.667 8.66699 -52.167 25.667 -70.5 51s-27.5 54 -27.5 86
c0 64 26.333 106.667 79 128h-108v69h400v-70h-135c-46 0 -82 -10.333 -108 -31s-39 -51.334 -39 -92.001c0 -32.667 11.333 -59.167 34 -79.5s51.667 -30.5 87 -30.5h135v-71h-132c-52 0 -92.5 -12.167 -121.5 -36.5s-43.5 -59.166 -43.5 -104.499
c0 -81.333 47.667 -122 143 -122h72c40.667 0 72.334 -9.33301 95.001 -28s34 -45 34 -79c0 -26 -7 -49.167 -21 -69.5s-36 -43.5 -66 -69.5z" />
    <glyph glyph-name="omicron" unicode="&#x3bf;" horiz-adv-x="561" 
d="M524 246c0 -76.667 -22.667 -139.167 -68 -187.5s-103.666 -72.5 -174.999 -72.5s-129.833 24.167 -175.5 72.5s-68.5 110.833 -68.5 187.5s22.833 139.167 68.5 187.5s104.167 72.5 175.5 72.5s129.666 -24.167 174.999 -72.5s68 -110.833 68 -187.5zM125 246
c0 -56 14.167 -101.333 42.5 -136s66.166 -52 113.499 -52s85 17.167 113 51.5s42 79.833 42 136.5s-14 102.167 -42 136.5s-65.667 51.5 -113 51.5s-85.166 -17.333 -113.499 -52s-42.5 -80 -42.5 -136z" />
    <glyph glyph-name="pi" unicode="&#x3c0;" horiz-adv-x="607" 
d="M579 74l11 -68c-29.333 -10.667 -58 -16 -86 -16c-42.667 0 -72.834 9.83301 -90.501 29.5s-26.5 51.5 -26.5 95.5v308h-191v-423h-87v423h-92v69h544v-69h-87v-293c0 -25.333 3.33301 -42.833 10 -52.5s19.334 -14.5 38.001 -14.5c14 0 33 3.66699 57 11z" />
    <glyph glyph-name="rho" unicode="&#x3c1;" horiz-adv-x="558" 
d="M521 246c0 -77.333 -20.333 -139.833 -61 -187.5s-92.667 -71.5 -156 -71.5c-74 0 -128.333 26.333 -163 79v-246h-87v426c0 78 21.167 140.833 63.5 188.5s98.5 71.5 168.5 71.5s126.667 -24.333 170 -73s65 -111 65 -187zM433 247
c0 54.667 -13.332 99.334 -39.999 134.001c-26 35.333 -61.667 53 -107 53s-81.5 -17.167 -108.5 -51.5s-40.5 -79.5 -40.5 -135.5c0 -56.667 14.167 -101.834 42.5 -135.501s65.166 -50.5 110.499 -50.5c42.667 0 77 17 103 51c26.667 34.667 40 79.667 40 135z" />
    <glyph glyph-name="uni03C2" unicode="&#x3c2;" horiz-adv-x="496" 
d="M338 -173l-47.001 52.001c22 19.333 36.667 33.666 44 42.999s11 19.666 11 30.999s-6.33301 20.666 -19 27.999s-36 15.333 -70 24c-146.667 40 -220 123.333 -220 250c0 75.333 22 136 66 182s101.333 69 172 69c40.667 0 76.5 -7.16699 107.5 -21.5
s61.167 -38.166 90.5 -71.499l-56 -53c-26 27.333 -49.833 46.5 -71.5 57.5s-45.5 16.5 -71.5 16.5c-45.333 0 -81.333 -17.667 -108 -53s-40 -77.666 -40 -126.999c0 -42.667 12.5 -79.167 37.5 -109.5s59.833 -51.833 104.5 -64.5
c34.667 -9.33301 63.334 -18.333 86.001 -27c48 -18.667 72 -48.667 72 -90c0 -24 -7 -46 -21 -66s-36.333 -43.333 -67 -70z" />
    <glyph glyph-name="sigma" unicode="&#x3c3;" horiz-adv-x="570" 
d="M553 492v-70.001h-125c63.333 -38 95 -98.667 95 -182c0 -74 -22.5 -134.833 -67.5 -182.5s-103.5 -71.5 -175.5 -71.5c-71.333 0 -129.833 23.833 -175.5 71.5s-68.5 108.834 -68.5 183.501c0 74 22.667 134.333 68 181s104 70 176 70h273zM435 240.999
c0 54.667 -14.001 98.5 -42.001 131.5s-65.667 49.5 -113 49.5s-85 -16.5 -113 -49.5s-42 -76.833 -42 -131.5c0 -53.333 14 -97 42 -131c28.667 -34 66.334 -51 113.001 -51s84 17 112 51c28.667 33.333 43 77 43 131z" />
    <glyph glyph-name="tau" unicode="&#x3c4;" horiz-adv-x="426" 
d="M409 422h-153.999v-295c0 -22.667 4.5 -38.667 13.5 -48s23.833 -14 44.5 -14c19.333 0 42.666 4 69.999 12l13 -69c-34 -11.333 -67.667 -17 -101 -17c-45.333 0 -77.833 10 -97.5 30s-29.5 50.667 -29.5 92v309h-152v70h393v-70z" />
    <glyph glyph-name="upsilon" unicode="&#x3c5;" horiz-adv-x="535" 
d="M65 190v302h87v-297c0 -90.667 38.333 -136 115 -136c40.667 0 70.167 11.5 88.5 34.5s27.5 56.833 27.5 101.5v297h87v-302c0 -64.667 -16.833 -114.834 -50.5 -150.501s-84.167 -53.5 -151.5 -53.5s-118 17.833 -152 53.5s-51 85.834 -51 150.501z" />
    <glyph glyph-name="phi" unicode="&#x3c6;" horiz-adv-x="711" 
d="M311 -180l0.000976562 165c-86.667 3.33301 -154.167 27 -202.5 71s-72.5 105.333 -72.5 184c0 64.667 13.333 117.667 40 159c26 42 74.667 77.667 146 107l29 -70c-46.667 -19.333 -79.334 -44.5 -98.001 -75.5s-28 -71.167 -28 -120.5
c0 -58 15.833 -102.5 47.5 -133.5s77.834 -47.5 138.501 -49.5v274c0 56.667 14.167 100 42.5 130s67.833 45 118.5 45c60.667 0 109.5 -21.833 146.5 -65.5s55.5 -104.5 55.5 -182.5c0 -83.333 -24.833 -149 -74.5 -197s-116.834 -73.333 -201.501 -76v-165h-87z
M586.001 258c0 55.333 -10.332 98.5 -30.999 129.5s-48.334 46.5 -83.001 46.5c-49.333 0 -74 -37.333 -74 -112v-265c60.667 3.33301 107.167 22 139.5 56s48.5 82.333 48.5 145z" />
    <glyph glyph-name="chi" unicode="&#x3c7;" horiz-adv-x="496" 
d="M481 -180h-94l-140 263l-140 -263h-93l183 334l-180 338h94l134 -254l136 254h92l-177 -327z" />
    <glyph glyph-name="psi" unicode="&#x3c8;" horiz-adv-x="723" 
d="M573 492h87v-244c0 -166.667 -85 -253.667 -255 -261v-167h-87v167c-170 7.33301 -255 94.333 -255 261v244h87v-244c0 -61.333 13.5 -107.5 40.5 -138.5s69.5 -47.833 127.5 -50.5v599h87v-599c58 2.66699 100.5 19.5 127.5 50.5s40.5 77.167 40.5 138.5v244z" />
    <glyph glyph-name="omega" unicode="&#x3c9;" horiz-adv-x="710" 
d="M455 436l28.002 70.001c66.667 -26 115 -61.167 145 -105.5s45 -99.833 45 -166.5c0 -72 -15.667 -131.667 -47 -179c-30.667 -46 -74 -69 -130 -69c-36 0 -66.5 9.5 -91.5 28.5s-41.5 45.167 -49.5 78.5c-8.66699 -33.333 -25.334 -59.5 -50.001 -78.5
s-55 -28.5 -91 -28.5c-56.667 0 -100.334 23.333 -131.001 70c-31.333 47.333 -47 106.666 -47 177.999c0 66.667 15 122.167 45 166.5s78.333 79.5 145 105.5l29 -70c-86.667 -34.667 -130 -102.334 -130 -203.001c0 -52 8.66699 -94 26 -126s40.333 -48 69 -48
c60.667 0 91 45.333 91 136v140h87v-140c0 -90.667 30.667 -136 92 -136c28.667 0 51.667 16 69 48s26 74 26 126c0 100.667 -43.333 168.334 -130 203.001z" />
    <glyph glyph-name="iotadieresis" unicode="&#x3ca;" horiz-adv-x="221" 
d="M154 0h-87v492h87v-492zM64 692v-103h-84v103h84zM241 692v-103h-84v103h84z" />
    <glyph glyph-name="upsilondieresis" unicode="&#x3cb;" horiz-adv-x="535" 
d="M65 190v302h87v-297c0 -90.667 38.333 -136 115 -136c40.667 0 70.167 11.5 88.5 34.5s27.5 56.833 27.5 101.5v297h87v-302c0 -64.667 -16.833 -114.834 -50.5 -150.501s-84.167 -53.5 -151.5 -53.5s-118 17.833 -152 53.5s-51 85.834 -51 150.501zM221 692v-103h-84
v103h84zM398 692v-103h-84v103h84z" />
    <glyph glyph-name="omicrontonos" unicode="&#x3cc;" horiz-adv-x="560" 
d="M524 246c0 -76.667 -22.667 -139.167 -68 -187.5s-103.666 -72.5 -174.999 -72.5s-129.833 24.167 -175.5 72.5s-68.5 110.833 -68.5 187.5s22.833 139.167 68.5 187.5s104.167 72.5 175.5 72.5s129.666 -24.167 174.999 -72.5s68 -110.833 68 -187.5zM125 246
c0 -56 14.167 -101.333 42.5 -136s66.166 -52 113.499 -52s85 17.167 113 51.5s42 79.833 42 136.5s-14 102.167 -42 136.5s-65.667 51.5 -113 51.5s-85.166 -17.333 -113.499 -52s-42.5 -80 -42.5 -136zM313 572h-73l40 144h95z" />
    <glyph glyph-name="upsilontonos" unicode="&#x3cd;" horiz-adv-x="535" 
d="M65 190v302h87v-297c0 -90.667 38.333 -136 115 -136c40.667 0 70.167 11.5 88.5 34.5s27.5 56.833 27.5 101.5v297h87v-302c0 -64.667 -16.833 -114.834 -50.5 -150.501s-84.167 -53.5 -151.5 -53.5s-118 17.833 -152 53.5s-51 85.834 -51 150.501zM305 572h-73l40 144
h95z" />
    <glyph glyph-name="omegatonos" unicode="&#x3ce;" horiz-adv-x="710" 
d="M455 436l28.002 70.001c66.667 -26 115 -61.167 145 -105.5s45 -99.833 45 -166.5c0 -72 -15.667 -131.667 -47 -179c-30.667 -46 -74 -69 -130 -69c-36 0 -66.5 9.5 -91.5 28.5s-41.5 45.167 -49.5 78.5c-8.66699 -33.333 -25.334 -59.5 -50.001 -78.5
s-55 -28.5 -91 -28.5c-56.667 0 -100.334 23.333 -131.001 70c-31.333 47.333 -47 106.666 -47 177.999c0 66.667 15 122.167 45 166.5s78.333 79.5 145 105.5l29 -70c-86.667 -34.667 -130 -102.334 -130 -203.001c0 -52 8.66699 -94 26 -126s40.333 -48 69 -48
c60.667 0 91 45.333 91 136v140h87v-140c0 -90.667 30.667 -136 92 -136c28.667 0 51.667 16 69 48s26 74 26 126c0 100.667 -43.333 168.334 -130 203.001zM396.002 572.001h-73l40 144h95z" />
    <glyph glyph-name="uni0401" unicode="&#x401;" horiz-adv-x="609" 
d="M554 710v-77h-380v-229h354v-77h-354v-250h389v-77h-481v710h472zM273 896v-103h-84v103h84zM450 896v-103h-84v103h84z" />
    <glyph glyph-name="uni0402" unicode="&#x402;" horiz-adv-x="785" 
d="M740 218c0 -70.667 -20.334 -126.667 -61.001 -168s-96 -62 -166 -62c-32 0 -64.667 3.33301 -98 10l15 76c32 -6 57.667 -9 77 -9c45.333 0 80 12.833 104 38.5s36 62.5 36 110.5c0 49.333 -14 86.333 -42 111s-67.667 37 -119 37c-60.667 0 -118 -11.333 -172 -34v-328
h-92v633h-191v77h521v-77h-238v-225c50.667 22.667 110.334 34 179.001 34c78.667 0 139.5 -19.333 182.5 -58s64.5 -94 64.5 -166z" />
    <glyph glyph-name="uni0403" unicode="&#x403;" horiz-adv-x="564" 
d="M534 633h-360v-633h-92v710h452v-77zM442 910l-92 -141h-76l72 141h96z" />
    <glyph glyph-name="uni0404" unicode="&#x404;" horiz-adv-x="668" 
d="M592 169l55.999 -61.998c-46.667 -44.667 -90.334 -76.334 -131.001 -95.001s-86.667 -28 -138 -28c-102 0 -183.667 34.667 -245 104s-92 158.666 -92 267.999s30.667 198.333 92 267s144.666 103 249.999 103c46.667 0 89.5 -7.83301 128.5 -23.5
s80.167 -41.5 123.5 -77.5l-55 -64c-65.333 56 -131.666 84 -198.999 84c-69.333 0 -125.666 -21.667 -168.999 -65s-69 -102 -77 -176h328v-77h-330c4.66699 -78.667 28.667 -142 72 -190c42.667 -48 99.334 -72 170.001 -72c38.667 0 74 7.83301 106 23.5
s68.667 42.5 110 80.5z" />
    <glyph glyph-name="uni0405" unicode="&#x405;" horiz-adv-x="629" 
d="M576 621l-54 -63.998c-37.333 32.667 -72.166 55.667 -104.499 69s-68.833 20 -109.5 20c-48 0 -87.167 -10.833 -117.5 -32.5s-45.5 -49.5 -45.5 -83.5c0 -24 7 -43.333 21 -58c13.333 -13.333 32.166 -24.166 56.499 -32.499s63.5 -18.833 117.5 -31.5
c90.667 -20.667 154.334 -45.834 191.001 -75.501s55 -72.5 55 -128.5c0 -65.333 -24.5 -118.333 -73.5 -159s-111.833 -61 -188.5 -61c-56.667 0 -107.667 9.33301 -153 28s-94 50.334 -146 95.001l55 65c50.667 -42.667 93.667 -71.334 129 -86.001
c36 -14.667 74.667 -22 116 -22c50 0 90.667 12.167 122 36.5s47 57.166 47 98.499c0 27.333 -7.66699 48.666 -23 63.999c-14 15.333 -34.333 27.666 -61 36.999c-29.333 10.667 -67.333 21 -114 31c-92 20.667 -155.167 44.834 -189.5 72.501s-51.5 69.167 -51.5 124.5
c0 57.333 24.333 104.5 73 141.5s108.667 55.5 180 55.5c53.333 0 100.666 -8.16699 141.999 -24.5s83.333 -42.833 126 -79.5z" />
    <glyph glyph-name="uni0406" unicode="&#x406;" horiz-adv-x="270" 
d="M181 710v-710h-92v710h92z" />
    <glyph glyph-name="uni0407" unicode="&#x407;" horiz-adv-x="270" 
d="M181 710v-710h-92v710h92zM88 896v-103h-84v103h84zM265 896v-103h-84v103h84z" />
    <glyph glyph-name="uni0408" unicode="&#x408;" horiz-adv-x="462" 
d="M385 710l-0.000976562 -527c0 -130 -64 -195 -192 -195c-61.333 0 -121.666 15.667 -180.999 47l32 72c60 -25.333 108.667 -38 146 -38c68.667 0 103 40.667 103 122v519h92z" />
    <glyph glyph-name="uni0409" unicode="&#x409;" horiz-adv-x="1122" 
d="M1092 215c0 -67.333 -21.667 -120 -65 -158s-100.333 -57 -171 -57h-293v633h-297l-2 -316c-0.666992 -75.333 -4.66699 -135.666 -12 -180.999c-16 -95.333 -67.333 -143 -154 -143c-27.333 0 -50 3.33301 -68 10l11 78c14.667 -3.33301 31 -5 49 -5
c27.333 0 47 9 59 27c12 16.667 19.667 42.667 23 78s5.33301 88.666 6 159.999l2 369h476v-280h200c71.333 0 128.333 -19.333 171 -58c43.333 -38 65 -90.333 65 -157zM1000 215c0 44 -14 78 -42 102s-66.333 36 -115 36h-187v-276h187c48.667 0 87 12 115 36
s42 58 42 102z" />
    <glyph glyph-name="uni040A" unicode="&#x40a;" horiz-adv-x="1114" 
d="M1084 211c0 -66 -21.667 -117.667 -65 -155s-100 -56 -170 -56h-294v346h-381v-346h-92v710h92v-288h381v288h93v-288h201c70 0 126.667 -18.667 170 -56s65 -89 65 -155zM991 211c0 43.333 -13.667 76.667 -41 100s-65.333 35 -114 35h-188v-269h188
c48.667 0 86.667 11.5 114 34.5s41 56.167 41 99.5z" />
    <glyph glyph-name="uni040B" unicode="&#x40b;" horiz-adv-x="797" 
d="M735 235l-0.000976562 -234.999h-93v233c0 45.333 -12.5 78.166 -37.5 98.499s-64.5 30.5 -118.5 30.5c-58.667 0 -116 -11.667 -172 -35v-327h-92v633h-191v77h521v-77h-238v-225c50.667 22.667 110.334 34 179.001 34c161.333 0 242 -69 242 -207z" />
    <glyph glyph-name="uni040C" unicode="&#x40c;" horiz-adv-x="664" 
d="M544 0l-241 330h-129v-330h-92v710h92v-303h127l231 303h105l-260 -337l274 -373h-107zM459 910l-92 -141h-76l72 141h96z" />
    <glyph glyph-name="uni040E" unicode="&#x40e;" horiz-adv-x="621" 
d="M607 710h-91l-201 -458l-205 458h-96l257 -560l-3 -6c-12 -28 -25.5 -47.5 -40.5 -58.5s-33.167 -16.5 -54.5 -16.5c-10.667 0 -33 2.66699 -67 8l-16 -78c28 -7.33301 56.333 -11 85 -11c40.667 0 73.5 9.83301 98.5 29.5s47.833 53.167 68.5 100.5zM469 893
c0 -41.333 -13.833 -73.166 -41.5 -95.499s-66.167 -33.5 -115.5 -33.5c-50 0 -88.833 11.167 -116.5 33.5s-41.5 54.166 -41.5 95.499h73c0 -23.333 7.33301 -41.5 22 -54.5s35.667 -19.5 63 -19.5s48.333 6.5 63 19.5s22 31.167 22 54.5h72z" />
    <glyph glyph-name="uni040F" unicode="&#x40f;" horiz-adv-x="713" 
d="M82 710h92v-633h364v633h93v-710h-229v-155h-91v155h-229v710z" />
    <glyph glyph-name="uni0410" unicode="&#x410;" horiz-adv-x="669" 
d="M558 0l-64 181h-320l-64 -181h-93l257 710h121l258 -710h-95zM202 259l264 0.000976562l-33 93c-44.667 119.333 -78 215.666 -100 288.999c-16.667 -56.667 -45.667 -142.667 -87 -258l-11 -32z" />
    <glyph glyph-name="uni0411" unicode="&#x411;" horiz-adv-x="640" 
d="M82 0v710.001h481v-77h-389v-212h204c70.667 0 127 -18.833 169 -56.5s63 -89.167 63 -154.5c0 -64.667 -21 -115.834 -63 -153.501s-98.333 -56.5 -169 -56.5h-296zM174 77.001h191c48 0 85.333 11.333 112 34s40 55.667 40 99s-13.333 76.5 -40 99.5
s-64 34.5 -112 34.5h-191v-267z" />
    <glyph glyph-name="uni0412" unicode="&#x412;" horiz-adv-x="667" 
d="M628 199c0 -61.333 -19.832 -109.832 -59.499 -145.499s-92.5 -53.5 -158.5 -53.5h-328v710h313c63.333 0 113.833 -15.833 151.5 -47.5s56.5 -75.834 56.5 -132.501c0 -38 -9.83301 -70.333 -29.5 -97s-46.834 -46 -81.501 -58c42.667 -12.667 76 -34 100 -64
s36 -67.333 36 -112zM174.001 636.001v-227h202c43.333 0 77 10.167 101 30.5s36 48.833 36 85.5c0 36 -11.833 63.5 -35.5 82.5s-57.167 28.5 -100.5 28.5h-203zM536.001 204.001c0 40 -13.833 71.833 -41.5 95.5s-65.5 35.5 -113.5 35.5h-207v-261h207
c49.333 0 87.5 11.5 114.5 34.5s40.5 54.833 40.5 95.5z" />
    <glyph glyph-name="uni0413" unicode="&#x413;" horiz-adv-x="564" 
d="M534 633h-360v-633h-92v710h452v-77z" />
    <glyph glyph-name="uni0414" unicode="&#x414;" horiz-adv-x="760" 
d="M169 710h472.001v-633h85v-225h-91v148h-522v-148h-91v225h60c24 34 44 78.667 60 134c15.333 54 23.666 131.667 24.999 233zM179.001 77h369v556h-293l-2 -192c-3.33301 -176.667 -28 -298 -74 -364z" />
    <glyph glyph-name="uni0415" unicode="&#x415;" horiz-adv-x="609" 
d="M554 710v-77h-380v-229h354v-77h-354v-250h389v-77h-481v710h472z" />
    <glyph glyph-name="uni0416" unicode="&#x416;" horiz-adv-x="997" 
d="M876 0l-227 330h-107v-330h-87v330h-107l-227 -330h-108l261 374l-246 336h105l219 -303h103v303h87v-303h103l219 303h104l-245 -336l261 -374h-108z" />
    <glyph glyph-name="uni0417" unicode="&#x417;" horiz-adv-x="649" 
d="M605 204c0 -66 -25.833 -119.168 -77.5 -159.501s-119.167 -60.5 -202.5 -60.5c-107.333 0 -204.666 39.333 -291.999 118l54 65c40.667 -36 79.5 -62.167 116.5 -78.5s77.833 -24.5 122.5 -24.5c57.333 0 102.833 12.5 136.5 37.5s50.5 60.167 50.5 105.5
c0 37.333 -14.333 66.833 -43 88.5s-70 32.5 -124 32.5h-142v76h140c47.333 0 83.333 10.333 108 31s37 50.334 37 89.001c0 36 -15 65.333 -45 88s-69.667 34 -119 34c-40 0 -76.833 -6.5 -110.5 -19.5s-68.834 -35.833 -105.501 -68.5l-55 63c78 70 168 105 270 105
c76 0 137.5 -18.167 184.5 -54.5s70.5 -83.833 70.5 -142.5c0 -76 -36.333 -128.333 -109 -157c90 -28.667 135 -84.667 135 -168z" />
    <glyph glyph-name="uni0418" unicode="&#x418;" horiz-adv-x="732" 
d="M548 710h101.999v-710h-90v319c0 101.333 2 197 6 287l-156 -251l-19 -30l-208 -325h-101v710h90v-324c0 -78 -1.66699 -171.333 -5 -280c52.667 90.667 109.334 182 170.001 274z" />
    <glyph glyph-name="uni0419" unicode="&#x419;" horiz-adv-x="732" 
d="M650 710h-101.999l-211 -330c-60.667 -92 -117.334 -183.333 -170.001 -274c3.33301 108.667 5 202 5 280v324h-90v-710h101l208 325l19 30l156 251c-4 -90 -6 -185.667 -6 -287v-319h90v710zM523.001 893c0 -41.333 -13.833 -73.166 -41.5 -95.499
s-66.167 -33.5 -115.5 -33.5c-50 0 -88.833 11.167 -116.5 33.5s-41.5 54.166 -41.5 95.499h73c0 -23.333 7.33301 -41.5 22 -54.5s35.667 -19.5 63 -19.5s48.333 6.5 63 19.5s22 31.167 22 54.5h72z" />
    <glyph glyph-name="uni041A" unicode="&#x41a;" horiz-adv-x="664" 
d="M544 0l-241 330h-129v-330h-92v710h92v-303h127l231 303h105l-260 -337l274 -373h-107z" />
    <glyph glyph-name="uni041B" unicode="&#x41b;" horiz-adv-x="738" 
d="M30 3l11 78c14.667 -3.33301 31 -5 49 -5c27.333 0 47 9 59 27c12 16.667 19.667 42.667 23 78s5.33301 88.666 6 159.999l2 369h476v-710h-93v633h-297l-2 -316c-0.666992 -75.333 -4.66699 -135.666 -12 -180.999c-16 -95.333 -67.333 -143 -154 -143
c-27.333 0 -50 3.33301 -68 10z" />
    <glyph glyph-name="uni041C" unicode="&#x41c;" horiz-adv-x="870" 
d="M641 710h147.001v-710h-90v355c0 98 1 194.333 3 289c-12.667 -40.667 -32.334 -96.667 -59.001 -168l-42 -121l-124 -355h-81l-127 355l-101 287c2 -94.667 3 -190.667 3 -288v-354h-88v710h147l112 -313c48 -134.667 79.667 -229.667 95 -285
c22 73.333 53.333 168.333 94 285z" />
    <glyph glyph-name="uni041D" unicode="&#x41d;" horiz-adv-x="729" 
d="M647 710v-710h-93v330h-380v-330h-92v710h92v-303h380v303h93z" />
    <glyph glyph-name="uni041E" unicode="&#x41e;" horiz-adv-x="758" 
d="M716 355c0 -108 -30.667 -196.833 -92 -266.5s-143 -104.5 -245 -104.5s-183.667 34.833 -245 104.5s-92 158.5 -92 266.5s30.667 196.833 92 266.5s143 104.5 245 104.5s183.667 -34.833 245 -104.5s92 -158.5 92 -266.5zM136 355c0 -85.333 22.5 -155 67.5 -209
s103.5 -81 175.5 -81c72.667 0 131.334 26.833 176.001 80.5s67 123.5 67 209.5c0 85.333 -22.333 155 -67 209s-103.334 81 -176.001 81c-72 0 -130.5 -27.167 -175.5 -81.5s-67.5 -123.833 -67.5 -208.5z" />
    <glyph glyph-name="uni041F" unicode="&#x41f;" horiz-adv-x="714" 
d="M633 0h-93v633h-366v-633h-92v710h551v-710z" />
    <glyph glyph-name="uni0420" unicode="&#x420;" horiz-adv-x="651" 
d="M618 498c0 -66.667 -21.333 -119 -64 -157c-42.667 -37.333 -98.334 -56 -167.001 -56h-213v-285h-92v710h305c70.667 0 126.834 -18.833 168.501 -56.5s62.5 -89.5 62.5 -155.5zM374 633l-200 0.000976562v-271h200c48 0 85.333 11.833 112 35.5s40 57.167 40 100.5
s-13.333 76.666 -40 99.999s-64 35 -112 35z" />
    <glyph glyph-name="uni0421" unicode="&#x421;" horiz-adv-x="669" 
d="M636 625l-54.001 -63.999c-66.667 56 -132.667 84 -198 84c-75.333 0 -135.666 -26.833 -180.999 -80.5s-68 -123.5 -68 -209.5c0 -84.667 22.5 -154.167 67.5 -208.5s103.5 -81.5 175.5 -81.5c38.667 0 73.834 7.83301 105.501 23.5s67.834 42.5 108.501 80.5l57 -62
c-46.667 -44 -90.5 -75.5 -131.5 -94.5s-87.167 -28.5 -138.5 -28.5c-102 0 -183.667 34.667 -245 104s-92 158.666 -92 267.999s30.667 198.333 92 267s144.666 103 249.999 103c47.333 0 90.666 -7.83301 129.999 -23.5s80 -41.5 122 -77.5z" />
    <glyph glyph-name="uni0422" unicode="&#x422;" horiz-adv-x="603" 
d="M572 710v-78h-224v-632h-93v632h-224v78h541z" />
    <glyph glyph-name="uni0423" unicode="&#x423;" horiz-adv-x="621" 
d="M516 710h91l-265 -592c-20.667 -47.333 -43.5 -80.833 -68.5 -100.5s-57.833 -29.5 -98.5 -29.5c-28.667 0 -57 3.66699 -85 11l16 78c34 -5.33301 56.333 -8 67 -8c21.333 0 39.5 5.5 54.5 16.5s28.5 30.5 40.5 58.5l3 6l-257 560h96l205 -458z" />
    <glyph glyph-name="uni0424" unicode="&#x424;" horiz-adv-x="892" 
d="M850 360c0 -90 -30.5 -163.333 -91.5 -220s-144.833 -85 -251.5 -85h-16v-90h-90v90h-16c-106.667 0 -190.5 28.333 -251.5 85s-91.5 130 -91.5 220s30.5 163.333 91.5 220s144.833 85 251.5 85h16v80h90v-80h16c106.667 0 190.5 -28.333 251.5 -85s91.5 -130 91.5 -220z
M385 132h17v456h-17c-79.333 0 -140.833 -21 -184.5 -63s-65.5 -97 -65.5 -165s21.833 -123 65.5 -165s105.167 -63 184.5 -63zM757 360c0 68 -21.833 123 -65.5 165s-105.167 63 -184.5 63h-17v-456h17c79.333 0 140.833 21 184.5 63s65.5 97 65.5 165z" />
    <glyph glyph-name="uni0425" unicode="&#x425;" horiz-adv-x="643" 
d="M631 0h-104l-206 307l-206 -307h-104l255 373l-230 337h103l184 -273l182 273h103l-230 -337z" />
    <glyph glyph-name="uni0426" unicode="&#x426;" horiz-adv-x="750" 
d="M82 710h92v-633h364v633h92v-633h86v-225h-91v148h-543v710z" />
    <glyph glyph-name="uni0427" unicode="&#x427;" horiz-adv-x="660" 
d="M486 710l92.001 -0.000976562v-710h-92v303c-50.667 -22.667 -110.334 -34 -179.001 -34c-161.333 0 -242 69 -242 207v234h93v-232c0 -45.333 12.667 -78.166 38 -98.499s65 -30.5 119 -30.5c60 0 117 11.667 171 35v326z" />
    <glyph glyph-name="uni0428" unicode="&#x428;" horiz-adv-x="1044" 
d="M962 710v-710h-880v710h92v-633h302v633h92v-633h301v633h93z" />
    <glyph glyph-name="uni0429" unicode="&#x429;" horiz-adv-x="1081" 
d="M956 -148v148h-874v710h92v-633h302v633h92v-633h301v633h93v-633h85v-225h-91z" />
    <glyph glyph-name="uni042A" unicode="&#x42a;" horiz-adv-x="772" 
d="M741 215c0 -67.333 -21.667 -120 -65 -158c-42.667 -38 -99.334 -57 -170.001 -57h-293v632h-182v78h274v-280h201c70.667 0 127.334 -19.333 170.001 -58c43.333 -38 65 -90.333 65 -157zM649 215c0 44 -13.833 78 -41.5 102s-66.167 36 -115.5 36h-187v-276h187
c49.333 0 87.833 12 115.5 36s41.5 58 41.5 102z" />
    <glyph glyph-name="uni042B" unicode="&#x42b;" horiz-adv-x="881" 
d="M82 0l-0.000976562 710h92v-280h201c70.667 0 127.334 -19.333 170.001 -58c43.333 -38 65 -90.333 65 -157c0 -67.333 -21.667 -120 -65 -158s-100 -57 -170 -57h-293zM173.999 77h187c49.333 0 87.833 12 115.5 36s41.5 58 41.5 102s-13.833 78 -41.5 102
s-66.167 36 -115.5 36h-187v-276zM797.999 710v-710h-92v710h92z" />
    <glyph glyph-name="uni042C" unicode="&#x42c;" horiz-adv-x="641" 
d="M82 0l-0.000976562 710h92v-280h201c70.667 0 127.334 -19.333 170.001 -58c43.333 -38 65 -90.333 65 -157c0 -67.333 -21.667 -120 -65 -158s-100 -57 -170 -57h-293zM173.999 77h187c49.333 0 87.833 12 115.5 36s41.5 58 41.5 102s-13.833 78 -41.5 102
s-66.167 36 -115.5 36h-187v-276z" />
    <glyph glyph-name="uni042D" unicode="&#x42d;" horiz-adv-x="668" 
d="M626 356c0 -109.333 -30.666 -198.667 -91.999 -268s-142.666 -104 -243.999 -104c-51.333 0 -97.5 9.5 -138.5 28.5s-84.833 50.5 -131.5 94.5l56 62c40.667 -37.333 77.167 -64 109.5 -80s68.166 -24 107.499 -24c70 0 126.333 23.833 169 71.5
s66.667 111.167 72 190.5h-330v77h328c-8 74 -33.667 132.667 -77 176s-99.333 65 -168 65c-68 0 -134.667 -28 -200 -84l-55 64c43.333 36 84.666 61.833 123.999 77.5s82.333 23.5 129 23.5c104.667 0 187.667 -34.333 249 -103s92 -157.667 92 -267z" />
    <glyph glyph-name="uni042E" unicode="&#x42e;" horiz-adv-x="1021" 
d="M979 355c0 -108 -30.667 -196.833 -92 -266.5s-143 -104.5 -245 -104.5c-97.333 0 -176.333 31.833 -237 95.5s-94 146.167 -100 247.5h-130v-327h-93v710h93v-306h131c8.66699 95.333 43.5 173 104.5 233s138.167 89.667 231.5 89c102 0 183.667 -34.833 245 -104.5
s92 -158.5 92 -266.5zM885 355c0 84.667 -22.5 154.167 -67.5 208.5s-103.5 81.5 -175.5 81.5s-130.667 -27.167 -176 -81.5s-68 -123.833 -68 -208.5c0 -85.333 22.5 -155 67.5 -209s103.833 -81 176.5 -81c72 0 130.5 27 175.5 81s67.5 123.667 67.5 209z" />
    <glyph glyph-name="uni042F" unicode="&#x42f;" horiz-adv-x="659" 
d="M290 710h287v-710h-90v270h-130l-213 -270h-106l218 272c-59.333 6.66699 -107 29.667 -143 69s-54 89 -54 149c0 65.333 21.5 118.333 64.5 159s98.5 61 166.5 61zM487 347v286h-181c-48 0 -86 -12.667 -114 -38s-42 -60.333 -42 -105
c0 -45.333 13.833 -80.5 41.5 -105.5s65.5 -37.5 113.5 -37.5h182z" />
    <glyph glyph-name="uni0430" unicode="&#x430;" horiz-adv-x="532" 
d="M466 342l0.00195312 -342h-78v61c-34.667 -51.333 -90.334 -77 -167.001 -77c-54 0 -96.833 11.667 -128.5 35s-47.5 57.666 -47.5 102.999c0 52.667 19.667 91 59 115c40.667 24.667 97.334 43.334 170.001 56.001l110 20v25c0 30 -10.5 53.667 -31.5 71
s-48.833 26 -83.5 26c-30 0 -56.833 -6.16699 -80.5 -18.5s-50.834 -33.833 -81.501 -64.5l-55 49c59.333 70 130.666 105 213.999 105c62.667 0 111.667 -14.833 147 -44.5s53 -69.5 53 -119.5zM384.002 184v64.998l-90 -18c-61.333 -12.667 -103.5 -25.667 -126.5 -39
s-35.833 -35.666 -38.5 -66.999c0 -22.667 8.83301 -40 26.5 -52s42.5 -18 74.5 -18c44.667 0 81.5 11.833 110.5 35.5s43.5 54.834 43.5 93.501z" />
    <glyph glyph-name="uni0431" unicode="&#x431;" horiz-adv-x="561" 
d="M524 243c0 -76 -22.333 -137.667 -67 -185s-102.334 -71 -173.001 -71c-77.333 0 -137.333 27.167 -180 81.5s-64 132.166 -64 233.499c0 134.667 20.833 232.834 62.5 294.501s115.834 97.5 222.501 107.5l163 14l6 -81l-161 -14c-78 -6 -132.5 -26.833 -163.5 -62.5
s-49.5 -98.167 -55.5 -187.5c16 35.333 40.667 63.333 74 84s72 31 116 31c68 0 121.667 -21.833 161 -65.5s59 -103.5 59 -179.5zM436 241c0 54 -13.168 96.667 -39.501 128s-62.5 47 -108.5 47s-84.167 -16.167 -114.5 -48.5s-45.5 -74.5 -45.5 -126.5
c0 -55.333 14 -99.5 42 -132.5s65.667 -49.5 113 -49.5c46.667 0 83.834 16.5 111.501 49.5s41.5 77.167 41.5 132.5z" />
    <glyph glyph-name="uni0432" unicode="&#x432;" horiz-adv-x="539" 
d="M495 138c0 -42 -14.668 -75.502 -44.001 -100.502s-69.666 -37.5 -120.999 -37.5h-261v492h249c49.333 0 89 -11.5 119 -34.5s45 -54.5 45 -94.5c0 -26 -7.5 -48.667 -22.5 -68s-35.5 -33 -61.5 -41c30 -7.33301 53.667 -21.166 71 -41.499s26 -45.166 26 -74.499z
M153.999 423.998v-142h152c30 0 52.667 6.5 68 19.5s23 31.167 23 54.5c0 45.333 -30.333 68 -91 68h-152zM408.999 142.998c0 24 -8.83301 42.833 -26.5 56.5s-43.5 20.5 -77.5 20.5h-151v-151h153c68 0 102 24.667 102 74z" />
    <glyph glyph-name="uni0433" unicode="&#x433;" horiz-adv-x="425" 
d="M405 422h-250v-422h-86v492h336v-70z" />
    <glyph glyph-name="uni0434" unicode="&#x434;" horiz-adv-x="597" 
d="M24 -125v195.001h48c41.333 41.333 62.333 119.666 63 234.999l2 187h359v-422h73v-195h-83v125h-379v-125h-83zM161 70.001l249 0.000976562v352h-195l-2 -119c-2 -120.667 -19.333 -198.334 -52 -233.001z" />
    <glyph glyph-name="uni0435" unicode="&#x435;" horiz-adv-x="534" 
d="M444 140l51 -52c-35.333 -37.333 -69.333 -63.666 -102 -78.999s-70 -23 -112 -23c-74 0 -133.167 23.5 -177.5 70.5s-66.5 109.167 -66.5 186.5s21.5 140.5 64.5 189.5s99.833 73.5 170.5 73.5c70 0 124.5 -21 163.5 -63s58.5 -100 58.5 -174
c0 -9.33301 -0.666992 -22 -2 -38h-369c2.66699 -52 17.667 -93.833 45 -125.5s65.333 -47.5 114 -47.5c30.667 0 57 6 79 18c22 11.333 49.667 32.666 83 63.999zM125 295h283.999c-2 44 -15.167 78.667 -39.5 104s-57.166 38 -98.499 38c-40 0 -72.667 -12.333 -98 -37
s-41.333 -59.667 -48 -105z" />
    <glyph glyph-name="uni0436" unicode="&#x436;" horiz-adv-x="753" 
d="M641 0l-150 219h-74v-219h-81v219h-74l-150 -219h-97l178 258l-163 234h94l137 -202h75v202h81v-202h75l137 202h94l-163 -234l178 -258h-97z" />
    <glyph glyph-name="uni0437" unicode="&#x437;" horiz-adv-x="497" 
d="M454 141c0 -46 -19 -83.501 -57 -112.501s-88.333 -43.5 -151 -43.5c-84.667 0 -159.334 28.333 -224.001 85l47 58c56.667 -47.333 115.667 -71 177 -71c39.333 0 69.833 7.83301 91.5 23.5s32.5 36.834 32.5 63.501c0 49.333 -38 74 -114 74h-92v67h94
c32 0 56.333 6.5 73 19.5s25 31.5 25 55.5s-9.83301 42.833 -29.5 56.5s-47.167 20.5 -82.5 20.5c-49.333 0 -103.333 -20.333 -162 -61l-41 58c70.667 48.667 139.334 73 206.001 73c54 0 99.667 -12.333 137 -37c38 -24 57 -58.333 57 -103
c0 -52.667 -28 -89.667 -84 -111c64.667 -20.667 97 -59 97 -115z" />
    <glyph glyph-name="uni0438" unicode="&#x438;" horiz-adv-x="568" 
d="M406 492h93v-492h-81v202c0 81.333 1 149.333 3 204l-114 -182l-146 -224h-92v492h81v-218c0 -64.667 -1 -126 -3 -184c52 84 89.667 143.333 113 178z" />
    <glyph glyph-name="uni0439" unicode="&#x439;" horiz-adv-x="568" 
d="M499 492h-93l-146 -224c-23.333 -34.667 -61 -94 -113 -178c2 58 3 119.333 3 184v218h-81v-492h92l146 224l114 182c-2 -54.667 -3 -122.667 -3 -204v-202h81v492zM441 689c0 -41.333 -13.833 -73.166 -41.5 -95.499s-66.167 -33.5 -115.5 -33.5
c-50 0 -88.833 11.167 -116.5 33.5s-41.5 54.166 -41.5 95.499h73c0 -23.333 7.33301 -41.5 22 -54.5s35.667 -19.5 63 -19.5s48.333 6.5 63 19.5s22 31.167 22 54.5h72z" />
    <glyph glyph-name="uni043A" unicode="&#x43a;" horiz-adv-x="515" 
d="M405 0l-159 219h-91v-219h-86v492h86v-202h91l148 202h93l-173 -234l188 -258h-97z" />
    <glyph glyph-name="uni043B" unicode="&#x43b;" horiz-adv-x="567" 
d="M17 1l9 71c13.333 -2 26 -3 38 -3c29.333 2.66699 47.5 14.5 54.5 35.5s11.5 73.5 13.5 157.5l2 230h364v-492h-86v422h-200l-2 -163c-2 -105.333 -11.333 -175 -28 -209s-53 -52.333 -109 -55c-21.333 0 -40 2 -56 6z" />
    <glyph glyph-name="uni043C" unicode="&#x43c;" horiz-adv-x="697" 
d="M502 492l126 0.000976562v-492h-81v225c0 21.333 0.666992 72.666 2 153.999l1 54l-69 -187l-95 -246h-76l-94 246l-70 186c2.66699 -72 4 -141 4 -207v-225h-81v492h129l84 -219c19.333 -50 42 -113.667 68 -191c21.333 64 44 127.333 68 190z" />
    <glyph glyph-name="uni043D" unicode="&#x43d;" horiz-adv-x="550" 
d="M480 0h-86v219h-239v-219h-86v492h86v-202h239v202h86v-492z" />
    <glyph glyph-name="uni043E" unicode="&#x43e;" horiz-adv-x="561" 
d="M524 246c0 -76.667 -22.667 -139.167 -68 -187.5s-103.666 -72.5 -174.999 -72.5s-129.833 24.167 -175.5 72.5s-68.5 110.833 -68.5 187.5s22.833 139.167 68.5 187.5s104.167 72.5 175.5 72.5s129.666 -24.167 174.999 -72.5s68 -110.833 68 -187.5zM125 246
c0 -56 14.167 -101.333 42.5 -136s66.166 -52 113.499 -52s85 17.167 113 51.5s42 79.833 42 136.5s-14 102.167 -42 136.5s-65.667 51.5 -113 51.5s-85.166 -17.333 -113.499 -52s-42.5 -80 -42.5 -136z" />
    <glyph glyph-name="uni043F" unicode="&#x43f;" horiz-adv-x="545" 
d="M69 0v492h406v-492h-86v422h-234v-422h-86z" />
    <glyph glyph-name="uni0440" unicode="&#x440;" horiz-adv-x="572" 
d="M533 247c0 -77.333 -20.333 -140 -61 -188s-92.667 -72 -156 -72c-74 0 -128.333 26.333 -163 79v-246h-86v672h81v-76c36.667 59.333 92.667 89 168 89c63.333 0 115.333 -24 156 -72s61 -110 61 -186zM445 247c0 56 -12.833 100.832 -38.5 134.499
s-60.167 50.5 -103.5 50.5c-46 0 -83 -16.667 -111 -50s-42 -78.333 -42 -135c0 -57.333 14 -102.666 42 -135.999s65 -50 111 -50c42.667 0 77 17 103 51s39 79 39 135z" />
    <glyph glyph-name="uni0441" unicode="&#x441;" horiz-adv-x="500" 
d="M275 434c-46.667 0 -83.335 -18.167 -110.002 -54.5s-40 -80.833 -40 -133.5c0 -52 13 -96.333 39 -133c26.667 -36 64 -54 112 -54c26.667 0 50.834 5.83301 72.501 17.5s46.5 33.167 74.5 64.5l57 -48c-31.333 -39.333 -62.666 -67 -93.999 -83s-68 -24 -110 -24
c-72 0 -129.833 23.667 -173.5 71s-65.5 110.333 -65.5 189c0 78 22.167 140.833 66.5 188.5s101.833 71.5 172.5 71.5c40.667 0 76.167 -7 106.5 -21s60.5 -38 90.5 -72l-56 -53c-25.333 27.333 -48.833 46.5 -70.5 57.5s-45.5 16.5 -71.5 16.5z" />
    <glyph glyph-name="uni0442" unicode="&#x442;" horiz-adv-x="455" 
d="M435 422h-164v-422h-86v422h-165v70h415v-70z" />
    <glyph glyph-name="uni0443" unicode="&#x443;" horiz-adv-x="484" 
d="M379 492l87.002 0.000976562l-197 -560c-16.667 -46.667 -35.334 -79.167 -56.001 -97.5s-51.334 -27.5 -92.001 -27.5c-28.667 0 -54 3.33301 -76 10l15 66c18 -4 35.667 -6 53 -6c20.667 0 37.167 5.66699 49.5 17s23.5 31.666 33.5 60.999l6 19l-185 518h91l55 -163
l73 -218l8 -25l30 91l50 154z" />
    <glyph glyph-name="uni0444" unicode="&#x444;" horiz-adv-x="713" 
d="M315 710h83v-204c83.333 -3.33301 150.5 -27.833 201.5 -73.5s76.5 -107.834 76.5 -186.501c0 -79.333 -25.5 -141.833 -76.5 -187.5s-118.167 -70.167 -201.5 -73.5v-165h-83v165c-83.333 3.33301 -150.5 27.833 -201.5 73.5s-76.5 108.167 -76.5 187.5
c0 78.667 25.5 140.834 76.5 186.501s118.167 70.167 201.5 73.5v204zM318 55v381.001c-59.333 -2 -106.333 -19.5 -141 -52.5s-52 -78.833 -52 -137.5c0 -59.333 17 -105.333 51 -138s81.333 -50.334 142 -53.001zM396 436.001v-381
c59.333 2.66699 106.166 20.5 140.499 53.5s51.5 78.833 51.5 137.5s-17.167 104.5 -51.5 137.5s-81.166 50.5 -140.499 52.5z" />
    <glyph glyph-name="uni0445" unicode="&#x445;" horiz-adv-x="480" 
d="M468 0h-95l-133 198l-134 -198h-94l179 257l-164 235h95l119 -175l117 175h94l-161 -231z" />
    <glyph glyph-name="uni0446" unicode="&#x446;" horiz-adv-x="579" 
d="M468 -125v125h-399v492h86v-422h237v422h86v-422h74v-195h-84z" />
    <glyph glyph-name="uni0447" unicode="&#x447;" horiz-adv-x="511" 
d="M356 492h86.002v-492h-86v199c-36 -16.667 -80.333 -25 -133 -25c-62.667 0 -108.334 12.5 -137.001 37.5s-43 63.5 -43 115.5v165h86v-161c0 -29.333 8.16699 -51 24.5 -65s43.166 -21 80.499 -21c48 0 88.667 8 122 24v223z" />
    <glyph glyph-name="uni0448" unicode="&#x448;" horiz-adv-x="781" 
d="M711 492v-492h-642v492h86v-421h192v421h86v-421h192v421h86z" />
    <glyph glyph-name="uni0449" unicode="&#x449;" horiz-adv-x="812" 
d="M701 -125v125h-632v492h86v-421h193v421h85v-421h192v421h86v-421h74v-196h-84z" />
    <glyph glyph-name="uni044A" unicode="&#x44a;" horiz-adv-x="600" 
d="M566 163c0 -50.667 -16.667 -90.5 -50 -119.5s-78 -43.5 -134 -43.5h-225v422h-137v70h223v-165h139c56 0 100.667 -14.5 134 -43.5s50 -69.167 50 -120.5zM478 163c0 62 -36.667 93 -110 93h-125v-185h125c73.333 0 110 30.667 110 92z" />
    <glyph glyph-name="uni044B" unicode="&#x44b;" horiz-adv-x="698" 
d="M69 0v492h86v-165h140c55.333 0 99.833 -14.833 133.5 -44.5s50.5 -69.5 50.5 -119.5s-16.833 -89.667 -50.5 -119s-78.167 -44 -133.5 -44h-226zM155 71h126c73.333 0 110 30.667 110 92c0 62 -36.667 93 -110 93h-126v-185zM629 492v-492h-86v492h86z" />
    <glyph glyph-name="uni044C" unicode="&#x44c;" horiz-adv-x="513" 
d="M69 0v492h86v-165h140c55.333 0 99.833 -14.833 133.5 -44.5s50.5 -69.5 50.5 -119.5s-16.833 -89.667 -50.5 -119s-78.167 -44 -133.5 -44h-226zM155 71h126c73.333 0 110 30.667 110 92c0 62 -36.667 93 -110 93h-126v-185z" />
    <glyph glyph-name="uni044D" unicode="&#x44d;" horiz-adv-x="500" 
d="M463 246c0 -78.667 -21.834 -141.666 -65.501 -188.999s-101.834 -71 -174.501 -71c-41.333 0 -77.666 8.16699 -108.999 24.5s-62.666 43.833 -93.999 82.5l57 48c28 -31.333 52.667 -52.833 74 -64.5s46.333 -17.5 75 -17.5c44 0 79 14.5 105 43.5
s41.333 67.5 46 115.5h-224v66h223c-6 45.333 -21.833 81.666 -47.5 108.999s-59.167 41 -100.5 41c-27.333 0 -52 -5.5 -74 -16.5s-45.667 -30.167 -71 -57.5l-56 53c30 34 60.167 58 90.5 72s65.833 21 106.5 21c70.667 0 128.167 -23.833 172.5 -71.5
s66.5 -110.5 66.5 -188.5z" />
    <glyph glyph-name="uni044E" unicode="&#x44e;" horiz-adv-x="772" 
d="M735 246c0 -76.667 -22.667 -139.167 -68 -187.5s-103.666 -72.5 -174.999 -72.5c-67.333 0 -123.333 21.833 -168 65.5s-69.667 100.167 -75 169.5h-96v-221h-86v492h86v-207h97c8 66.667 34 120 78 160c43.333 40.667 98 61 164 61
c71.333 0 129.666 -24.167 174.999 -72.5s68 -110.833 68 -187.5zM647 246c0 56.667 -14 102.167 -42 136.5s-65.667 51.5 -113 51.5s-85.166 -17.333 -113.499 -52s-42.5 -80 -42.5 -136s14.167 -101.333 42.5 -136s66.166 -52 113.499 -52s85 17.167 113 51.5
s42 79.833 42 136.5z" />
    <glyph glyph-name="uni044F" unicode="&#x44f;" horiz-adv-x="521" 
d="M229 492h222.999v-492h-82v177h-92l-151 -177h-100l158 181c-42.667 7.33301 -76.5 24.833 -101.5 52.5s-37.5 61.5 -37.5 101.5c0 47.333 16.833 85.333 50.5 114s77.834 43 132.501 43zM369.999 247v174.999h-130c-35.333 0 -62.5 -7.66699 -81.5 -23
s-28.5 -36.666 -28.5 -63.999c0 -28 9.5 -49.667 28.5 -65s45.833 -23 80.5 -23h131z" />
    <glyph glyph-name="uni0451" unicode="&#x451;" horiz-adv-x="534" 
d="M444 140l51 -52c-35.333 -37.333 -69.333 -63.666 -102 -78.999s-70 -23 -112 -23c-74 0 -133.167 23.5 -177.5 70.5s-66.5 109.167 -66.5 186.5s21.5 140.5 64.5 189.5s99.833 73.5 170.5 73.5c70 0 124.5 -21 163.5 -63s58.5 -100 58.5 -174
c0 -9.33301 -0.666992 -22 -2 -38h-369c2.66699 -52 17.667 -93.833 45 -125.5s65.333 -47.5 114 -47.5c30.667 0 57 6 79 18c22 11.333 49.667 32.666 83 63.999zM125 295h283.999c-2 44 -15.167 78.667 -39.5 104s-57.166 38 -98.499 38c-40 0 -72.667 -12.333 -98 -37
s-41.333 -59.667 -48 -105zM234.999 692v-103h-84v103h84zM411.999 692v-103h-84v103h84z" />
    <glyph glyph-name="uni0452" unicode="&#x452;" horiz-adv-x="576" 
d="M510 324l-0.000976562 -362c0 -102.667 -46.333 -154 -139 -154c-31.333 0 -63 5 -95 15l17 66c27.333 -6.66699 50 -10 68 -10c22.667 0 38.834 6.66699 48.501 20s14.5 34.333 14.5 63v334c0 40.667 -9.66699 71.5 -29 92.5s-47.333 31.5 -84 31.5
c-35.333 0 -65.333 -12.333 -90 -37c-24 -24.667 -36 -55 -36 -91v-292h-86v582h-70v59h70v69h86v-69h183v-59h-183v-159c34 46.667 84 70 150 70c55.333 0 98.333 -15.667 129 -47s46 -72 46 -122z" />
    <glyph glyph-name="uni0453" unicode="&#x453;" horiz-adv-x="425" 
d="M405 422h-250v-422h-86v492h336v-70zM362 706l-92 -141h-76l72 141h96z" />
    <glyph glyph-name="uni0454" unicode="&#x454;" horiz-adv-x="500" 
d="M423 141l56.999 -48.001c-31.333 -39.333 -62.666 -67 -93.999 -83s-68 -24 -110 -24c-72 0 -129.833 23.667 -173.5 71s-65.5 110.333 -65.5 189c0 78 22.167 140.833 66.5 188.5s101.833 71.5 172.5 71.5c40.667 0 76.167 -7 106.5 -21s60.5 -38 90.5 -72l-56 -53
c-25.333 27.333 -49 46.5 -71 57.5s-46.667 16.5 -74 16.5c-41.333 0 -74.833 -13.667 -100.5 -41s-41.5 -63.666 -47.5 -108.999h223v-66h-225c4.66699 -48 20.167 -86.5 46.5 -115.5s61.5 -43.5 105.5 -43.5c28 0 52.833 5.83301 74.5 17.5s46.5 33.167 74.5 64.5z" />
    <glyph glyph-name="uni0455" unicode="&#x455;" horiz-adv-x="479" 
d="M437 434l-47.001 -57.9951c-30 23.333 -56.167 39.166 -78.5 47.499s-47.833 12.5 -76.5 12.5c-32.667 0 -58.834 -6.83301 -78.501 -20.5s-29.5 -31.167 -29.5 -52.5c2.66699 -20.667 11.334 -34.834 26.001 -42.501s50 -17.834 106 -30.501
c68 -16 116 -34.833 144 -56.5s42 -53.167 42 -94.5c0 -46 -18 -83 -54 -111s-83.667 -42 -143 -42c-44.667 0 -84.167 6.83301 -118.5 20.5s-70.5 37.5 -108.5 71.5l51 56c36 -30 66.667 -50.333 92 -61s53.666 -16 84.999 -16c32.667 0 59.5 7 80.5 21s31.5 33 31.5 57
c0 23.333 -10 40.666 -30 51.999s-56 22.666 -108 33.999c-70 16 -117 32.833 -141 50.5s-36.667 47.167 -38 88.5c0 43.333 17.667 78.5 53 105.5s81.333 40.5 138 40.5c40.667 0 76.334 -5.5 107.001 -16.5s62.334 -29.5 95.001 -55.5z" />
    <glyph glyph-name="uni0456" unicode="&#x456;" horiz-adv-x="220" 
d="M153 492v-492h-86v492h86zM153 692v-103h-86v103h86z" />
    <glyph glyph-name="uni0457" unicode="&#x457;" horiz-adv-x="220" 
d="M153 492v-492h-86v492h86zM64 692v-103h-84v103h84zM241 692v-103h-84v103h84z" />
    <glyph glyph-name="uni0458" unicode="&#x458;" horiz-adv-x="224" 
d="M7 -121c23.333 0 39.667 6.5 49 19.5s14 34.167 14 63.5v530h86v-530c0 -102.667 -46.333 -154 -139 -154c-31.333 0 -63 5 -95 15l17 66c24 -6.66699 46.667 -10 68 -10zM156.001 692v-103h-86v103h86z" />
    <glyph glyph-name="uni0459" unicode="&#x459;" horiz-adv-x="868" 
d="M834 151c0 -48.667 -16 -86 -48 -112s-75.667 -39 -131 -39h-243v422h-200l-2 -163c-2 -105.333 -11.333 -175 -28 -209s-53 -52.333 -109 -55c-21.333 0 -40 2 -56 6l9 71c13.333 -2 26 -3 38 -3c29.333 2.66699 47.5 14.5 54.5 35.5s11.5 73.5 13.5 157.5l2 230h364
v-189h157c55.333 0 99 -13.167 131 -39.5s48 -63.833 48 -112.5zM746 151c0 54 -33.333 81 -100 81h-148v-161h148c66.667 0 100 26.667 100 80z" />
    <glyph glyph-name="uni045A" unicode="&#x45a;" horiz-adv-x="851" 
d="M69 0v492h86v-189h239v189h86v-189h158c55.333 0 99 -13.167 131 -39.5s48 -63.833 48 -112.5s-16 -86 -48 -112s-75.667 -39 -131 -39h-244v232h-239v-232h-86zM480 71h149c66.667 0 100 26.667 100 80c0 54 -33.333 81 -100 81h-149v-161z" />
    <glyph glyph-name="uni045B" unicode="&#x45b;" horiz-adv-x="576" 
d="M510 324v-324h-86v296c0 40.667 -9.66699 71.5 -29 92.5s-47.333 31.5 -84 31.5c-35.333 0 -65.333 -12.333 -90 -37c-24 -24.667 -36 -55 -36 -91v-292h-86v582h-70v59h70v69h86v-69h183v-59h-183v-159c34 46.667 84 70 150 70c55.333 0 98.333 -15.667 129 -47
s46 -72 46 -122z" />
    <glyph glyph-name="uni045C" unicode="&#x45c;" horiz-adv-x="515" 
d="M405 0l-159 219h-91v-219h-86v492h86v-202h91l148 202h93l-173 -234l188 -258h-97zM390 706l-92 -141h-76l72 141h96z" />
    <glyph glyph-name="uni045E" unicode="&#x45e;" horiz-adv-x="484" 
d="M466 492l-87.002 -0.000976562l-55 -161l-50 -154l-30 -91l-8 25l-73 218l-55 163h-91l185 -518l-6 -19c-10 -29.333 -21.167 -49.666 -33.5 -60.999s-28.833 -17 -49.5 -17c-17.333 0 -35 2 -53 6l-15 -66c22 -6.66699 47.333 -10 76 -10
c40.667 0 71.334 9.16699 92.001 27.5s39.334 50.833 56.001 97.5zM396.998 688.999c0 -41.333 -13.833 -73.166 -41.5 -95.499s-66.167 -33.5 -115.5 -33.5c-50 0 -88.833 11.167 -116.5 33.5s-41.5 54.166 -41.5 95.499h73c0 -23.333 7.33301 -41.5 22 -54.5
s35.667 -19.5 63 -19.5s48.333 6.5 63 19.5s22 31.167 22 54.5h72z" />
    <glyph glyph-name="uni045F" unicode="&#x45f;" horiz-adv-x="549" 
d="M232 -128v128h-163v492h86v-422h239v422h86v-492h-165v-128h-83z" />
    <glyph glyph-name="uni0490" unicode="&#x490;" horiz-adv-x="564" 
d="M82 0v710h360v146h92v-223h-360v-633h-92z" />
    <glyph glyph-name="uni0491" unicode="&#x491;" horiz-adv-x="438" 
d="M69 0v492h270v130h82v-200h-266v-422h-86z" />
    <glyph glyph-name="Wgrave" unicode="&#x1e80;" horiz-adv-x="939" 
d="M816 710l91.001 0.000976562l-171 -710h-113l-87 326c-29.333 110.667 -51.333 199 -66 265c-13.333 -64.667 -35 -153.334 -65 -266.001l-88 -325h-114l-172 710h94l81 -342c17.333 -76 36.666 -167 57.999 -273c28 115.333 51 206.333 69 273l93 342h93l91 -342
c28 -109.333 50.333 -200.333 67 -273c18 92 37.667 183 59 273zM342.001 910.001h96l72 -141h-76z" />
    <glyph glyph-name="wgrave" unicode="&#x1e81;" horiz-adv-x="735" 
d="M626 492h88l-138 -492h-104l-46 157c-24.667 86.667 -44.667 164 -60 232c-19.333 -81.333 -39.333 -159 -60 -233l-43 -156h-104l-138 492h89l49 -184c11.333 -42.667 30 -120.334 56 -233.001c18.667 77.333 38.667 155 60 233l52 184h81l52 -184
c24 -85.333 44 -163.666 60 -234.999c20 88.667 39 167 57 235zM239 706h96l72 -141h-76z" />
    <glyph glyph-name="Wacute" unicode="&#x1e82;" horiz-adv-x="939" 
d="M816 710l91.001 0.000976562l-171 -710h-113l-87 326c-29.333 110.667 -51.333 199 -66 265c-13.333 -64.667 -35 -153.334 -65 -266.001l-88 -325h-114l-172 710h94l81 -342c17.333 -76 36.666 -167 57.999 -273c28 115.333 51 206.333 69 273l93 342h93l91 -342
c28 -109.333 50.333 -200.333 67 -273c18 92 37.667 183 59 273zM598.001 910.001l-92 -141h-76l72 141h96z" />
    <glyph glyph-name="wacute" unicode="&#x1e83;" horiz-adv-x="735" 
d="M626 492h88l-138 -492h-104l-46 157c-24.667 86.667 -44.667 164 -60 232c-19.333 -81.333 -39.333 -159 -60 -233l-43 -156h-104l-138 492h89l49 -184c11.333 -42.667 30 -120.334 56 -233.001c18.667 77.333 38.667 155 60 233l52 184h81l52 -184
c24 -85.333 44 -163.666 60 -234.999c20 88.667 39 167 57 235zM496 706l-92 -141h-76l72 141h96z" />
    <glyph glyph-name="Wdieresis" unicode="&#x1e84;" horiz-adv-x="939" 
d="M816 710l91.001 0.000976562l-171 -710h-113l-87 326c-29.333 110.667 -51.333 199 -66 265c-13.333 -64.667 -35 -153.334 -65 -266.001l-88 -325h-114l-172 710h94l81 -342c17.333 -76 36.666 -167 57.999 -273c28 115.333 51 206.333 69 273l93 342h93l91 -342
c28 -109.333 50.333 -200.333 67 -273c18 92 37.667 183 59 273zM423.001 896.001v-103h-84v103h84zM600.001 896.001v-103h-84v103h84z" />
    <glyph glyph-name="wdieresis" unicode="&#x1e85;" horiz-adv-x="735" 
d="M626 492h88l-138 -492h-104l-46 157c-24.667 86.667 -44.667 164 -60 232c-19.333 -81.333 -39.333 -159 -60 -233l-43 -156h-104l-138 492h89l49 -184c11.333 -42.667 30 -120.334 56 -233.001c18.667 77.333 38.667 155 60 233l52 184h81l52 -184
c24 -85.333 44 -163.666 60 -234.999c20 88.667 39 167 57 235zM321 692v-103h-84v103h84zM498 692v-103h-84v103h84z" />
    <glyph glyph-name="Ygrave" unicode="&#x1ef2;" horiz-adv-x="624" 
d="M509 710h100l-252 -407v-303h-92v304l-250 406h102l196 -325zM184 910h96l72 -141h-76z" />
    <glyph glyph-name="ygrave" unicode="&#x1ef3;" horiz-adv-x="484" 
d="M379 492l87.002 0.000976562l-197 -560c-16.667 -46.667 -35.334 -79.167 -56.001 -97.5s-51.334 -27.5 -92.001 -27.5c-28.667 0 -54 3.33301 -76 10l15 66c18 -4 35.667 -6 53 -6c20.667 0 37.167 5.66699 49.5 17s23.5 31.666 33.5 60.999l6 19l-185 518h91l55 -163
l73 -218l8 -25l30 91l50 154zM113.002 706.001h96l72 -141h-76z" />
    <glyph glyph-name="endash" unicode="&#x2013;" horiz-adv-x="723" 
d="M655 324v-73h-587v73h587z" />
    <glyph glyph-name="emdash" unicode="&#x2014;" horiz-adv-x="966" 
d="M886 324v-73h-807v73h807z" />
    <glyph glyph-name="quoteleft" unicode="&#x2018;" horiz-adv-x="200" 
d="M47 489v102l58 119h51l-53 -119h48v-102h-104z" />
    <glyph glyph-name="quoteright" unicode="&#x2019;" horiz-adv-x="200" 
d="M153 710v-102l-59 -119h-50l53 119h-48v102h104z" />
    <glyph glyph-name="quotesinglbase" unicode="&#x201a;" horiz-adv-x="197" 
d="M150 104v-104l-58 -114h-48l49 114h-47v104h104z" />
    <glyph glyph-name="quotedblleft" unicode="&#x201c;" horiz-adv-x="381" 
d="M47 489v102l58 119h51l-53 -119h48v-102h-104zM228 489v102l58 119h51l-53 -119h48v-102h-104z" />
    <glyph glyph-name="quotedblright" unicode="&#x201d;" horiz-adv-x="381" 
d="M153 710v-102l-59 -119h-50l53 119h-48v102h104zM334 710v-102l-59 -119h-50l53 119h-48v102h104z" />
    <glyph glyph-name="quotedblbase" unicode="&#x201e;" horiz-adv-x="378" 
d="M150 104v-104l-58 -114h-48l49 114h-47v104h104zM331 104v-104l-58 -114h-48l49 114h-47v104h104z" />
    <glyph glyph-name="dagger" unicode="&#x2020;" 
d="M550 442v-77h-210v-562h-87v562h-210v77h210v268h87v-268h210z" />
    <glyph glyph-name="daggerdbl" unicode="&#x2021;" 
d="M550 415h-210v-230h210v-77h-210v-305h-87v305h-210v77h210v230h-210v77h210v218h87v-218h210v-77z" />
    <glyph glyph-name="bullet" unicode="&#x2022;" horiz-adv-x="500" 
d="M426 299c0 -48 -17.501 -89.5 -52.501 -124.5s-76.167 -52.5 -123.5 -52.5c-48 0 -89.5 17.5 -124.5 52.5s-52.5 76.5 -52.5 124.5c0 48.667 17.333 90.167 52 124.5s76.334 51.5 125.001 51.5c48 0 89.333 -17.333 124 -52s52 -76 52 -124z" />
    <glyph glyph-name="ellipsis" unicode="&#x2026;" horiz-adv-x="630" 
d="M159 108v-108h-102v108h102zM366 108v-108h-102v108h102zM574 108v-108h-102v108h102z" />
    <glyph glyph-name="perthousand" unicode="&#x2030;" horiz-adv-x="1238" 
d="M642 695l54 -33l-476 -677l-53 34zM801 150c0 -46.667 -14.833 -85 -44.5 -115s-66.5 -45 -110.5 -45s-80.833 15 -110.5 45s-44.5 68.333 -44.5 115c0 46 14.833 84 44.5 114s66.5 45 110.5 45s80.833 -15 110.5 -45s44.5 -68 44.5 -114zM557 150
c0 -30.667 8 -55.334 24 -74.001s37.667 -28 65 -28s49 9.33301 65 28s24 43.334 24 74.001c0 29.333 -8.16699 53.5 -24.5 72.5s-37.833 28.5 -64.5 28.5s-48.167 -9.5 -64.5 -28.5s-24.5 -43.167 -24.5 -72.5zM367 532c0 -46.667 -14.833 -85 -44.5 -115
s-66.5 -45 -110.5 -45s-80.833 15 -110.5 45s-44.5 68.333 -44.5 115c0 46 14.833 84 44.5 114s66.5 45 110.5 45s80.833 -15 110.5 -45s44.5 -68 44.5 -114zM123 532c0 -30.667 8 -55.334 24 -74.001s37.667 -28 65 -28s49 9.33301 65 28s24 43.334 24 74.001
c0 29.333 -8.16699 53.5 -24.5 72.5s-37.833 28.5 -64.5 28.5s-48.167 -9.5 -64.5 -28.5s-24.5 -43.167 -24.5 -72.5zM1167 150c0 -46.667 -14.833 -85 -44.5 -115s-66.5 -45 -110.5 -45s-80.833 15 -110.5 45s-44.5 68.333 -44.5 115c0 46 14.833 84 44.5 114
s66.5 45 110.5 45s80.833 -15 110.5 -45s44.5 -68 44.5 -114zM923 150c0 -30.667 8 -55.334 24 -74.001s37.667 -28 65 -28s49 9.33301 65 28s24 43.334 24 74.001c0 29.333 -8.16699 53.5 -24.5 72.5s-37.833 28.5 -64.5 28.5s-48.167 -9.5 -64.5 -28.5
s-24.5 -43.167 -24.5 -72.5z" />
    <glyph glyph-name="guilsinglleft" unicode="&#x2039;" horiz-adv-x="354" 
d="M287 471l-141 -218l141 -218h-86l-139 218l139 218h86z" />
    <glyph glyph-name="guilsinglright" unicode="&#x203a;" horiz-adv-x="354" 
d="M67 471h85l140 -218l-140 -218h-85l139 218z" />
    <glyph glyph-name="fraction" unicode="&#x2044;" horiz-adv-x="195" 
d="M308 695l54 -33l-476 -677l-53 34z" />
    <glyph glyph-name="Euro" unicode="&#x20ac;" horiz-adv-x="610" 
d="M540 112l47.998 -61.999c-34 -24.667 -65.333 -41.834 -94 -51.501s-62.334 -14.5 -101.001 -14.5c-69.333 0 -127.166 22.833 -173.499 68.5s-76.833 107.834 -91.5 186.501h-73v63h65c-0.666992 5.33301 -1 18 -1 38c0 18.667 1 37 3 55h-67v64h77
c16 73.333 46.833 131.166 92.5 173.499s101.834 63.5 168.501 63.5c39.333 0 73.5 -5 102.5 -15s59.833 -27 92.5 -51l-48 -62c-27.333 20 -51.666 33.667 -72.999 41s-46 11 -74 11c-41.333 0 -76.666 -14 -105.999 -42s-50.666 -67.667 -63.999 -119h258v-64h-269
c-2 -18 -3 -36.333 -3 -55c0 -20 0.333008 -32.667 1 -38h271v-63h-262c12 -56.667 33.167 -100.667 63.5 -132s67.166 -47 110.499 -47c28 0 52.667 3.66699 74 11s45.666 21 72.999 41z" />
    <glyph glyph-name="uni20B9" unicode="&#x20b9;" 
d="M545 617h-115.001c26.667 -27.333 43.667 -62.333 51 -105h64v-62h-64c-6.66699 -52 -29.5 -93.167 -68.5 -123.5s-88.5 -45.5 -148.5 -45.5h-68l297 -281h-121l-291 281v68h173c39.333 0 71.333 8.66699 96 26s39.667 42.333 45 75h-314v62h312
c-13.333 62 -59.666 93 -138.999 93h-173v75h464v-63z" />
    <glyph glyph-name="uni20BA" unicode="&#x20ba;" 
d="M468 299l80.001 -12.999l-12 -61c-15.333 -84 -45 -142.5 -89 -175.5s-109.667 -49.5 -197 -49.5h-111v257l-93 -41v66l93 41v105l-93 -41v66l93 41v186h88v-146l165 73v-66l-165 -73v-105l165 73v-66l-165 -73v-221h12c49.333 0.666992 87.166 5.16699 113.499 13.5
s47.833 24.166 64.5 47.499s30 58.333 40 105z" />
    <glyph glyph-name="uni20BD" unicode="&#x20bd;" horiz-adv-x="610" 
d="M340 283l-119.999 0.000976562v-92h215v-62h-215v-129h-88v129h-94v62h94v92h-94v67h94v330h208c64 0 116.5 -18.333 157.5 -55s61.5 -85.334 61.5 -146.001c0 -60 -20.333 -107.667 -61 -143s-93.334 -53 -158.001 -53zM220.001 605.001v-255h111
c44 0 78.667 11.333 104 34s38 54 38 94s-12.667 71.167 -38 93.5s-60 33.5 -104 33.5h-111z" />
    <glyph glyph-name="uni2116" unicode="&#x2116;" horiz-adv-x="1030" 
d="M714 561c0 46 14.333 83.3311 43 111.998c29.333 29.333 66 44 110 44c44.667 0 81.667 -14.667 111 -44s44 -66.666 44 -111.999c0 -46 -14.667 -83.667 -44 -113s-66.333 -44 -111 -44c-44 0 -80.667 14.667 -110 44c-28.667 28.667 -43 66.334 -43 113.001z
M538 386.998l-0.000976562 322.998h91v-710h-105l-199 322c-28 43.333 -49.333 78 -64 104l-71 127c-0.666992 0.666992 -3.66699 5.66699 -9 15s-9.66602 17.333 -12.999 24c3.33301 -105.333 5 -196.666 5 -273.999v-318h-91v710h105l201 -327
c38.667 -60.667 82.667 -136 132 -226l22 -39c-2.66699 66.667 -4 156.334 -4 269.001zM781.999 560.996c0 -30.667 8 -55 24 -73s36.667 -27 62 -27c24.667 0 45 9 61 27s24 42.333 24 73s-8 54.834 -24 72.501s-36.333 26.5 -61 26.5s-45.167 -8.83301 -61.5 -26.5
s-24.5 -41.834 -24.5 -72.501zM722.999 302.996v57h287v-57h-287z" />
    <glyph glyph-name="uni2117" unicode="&#x2117;" horiz-adv-x="856" 
d="M60 355c-1.33301 102.667 34.167 190.167 106.5 262.5s159.5 107.5 261.5 105.5c102 2 189.167 -33.167 261.5 -105.5s107.833 -159.833 106.5 -262.5c1.33301 -102.667 -34.167 -190.167 -106.5 -262.5s-159.5 -107.5 -261.5 -105.5
c-102 -2 -189.167 33.167 -261.5 105.5s-107.833 159.833 -106.5 262.5zM734 355c1.33301 88 -27.834 162.833 -87.501 224.5s-132.5 91.834 -218.5 90.501c-86 1.33301 -158.833 -28.834 -218.5 -90.501s-88.834 -136.5 -87.501 -224.5
c-1.33301 -88 27.834 -162.833 87.501 -224.5s132.5 -91.834 218.5 -90.501c86 -1.33301 158.833 28.834 218.5 90.501s88.834 136.5 87.501 224.5zM295 148v414.001h167c39.333 0 71.333 -12 96 -36s37 -55 37 -93c0 -40.667 -11.5 -71.334 -34.5 -92.001
s-55.833 -31 -98.5 -31h-102v-162h-65zM360 364.001h86.999c56 0 84 23.333 84 70c0 22 -7.16699 39.167 -21.5 51.5s-35.166 18.5 -62.499 18.5h-87v-140z" />
    <glyph glyph-name="trademark" unicode="&#x2122;" horiz-adv-x="955" 
d="M373 710v-54h-136v-333h-64v333h-136v54h336zM881 710v-387h-59v310l-127 -310h-57l-131 306v-306h-60v387h88l132 -313l125 313h89z" />
    <glyph glyph-name="uni2126" unicode="&#x2126;" horiz-adv-x="757" 
d="M579 77l136.999 0.000976562v-77h-268v78c116 47.333 174 140.666 174 279.999c0 84.667 -22.333 153.667 -67 207s-103.334 80 -176.001 80c-72 0 -130.5 -26.833 -175.5 -80.5s-67.5 -122.5 -67.5 -206.5c0 -139.333 58.333 -232.666 175 -279.999v-78h-269v77h138
c-44 27.333 -78 66 -102 116s-36 105 -36 165c0 108 30.667 196.333 92 265s143 103 245 103c100.667 1.33301 182.334 -33 245.001 -103s93.334 -158.333 92.001 -265c0 -60.667 -11.833 -115.834 -35.5 -165.501s-57.5 -88.167 -101.5 -115.5z" />
    <glyph glyph-name="uni2154" unicode="&#x2154;" horiz-adv-x="1005" 
d="M114 331l242.001 0.000976562v-59h-314v28c0 38.667 10.333 70.334 31 95.001s53.667 49 99 73l26 14c33.333 17.333 56.333 31.666 69 42.999s19 26 19 44c0 19.333 -7.16699 34.166 -21.5 44.499s-33.833 15.5 -58.5 15.5c-37.333 0 -76.666 -18.333 -117.999 -55
l-40 46c49.333 46.667 102.333 70 159 70c45.333 0 81.666 -11.167 108.999 -33.5s41 -50.5 41 -84.5c0 -22.667 -5 -42.667 -15 -60c-9.33301 -14.667 -21.333 -27.334 -36 -38.001s-37 -24 -67 -40l-28 -15c-30 -17.333 -53.667 -32.333 -71 -45
c-14.667 -11.333 -23.334 -25.666 -26.001 -42.999zM725.001 695.001l54 -33l-476 -677l-53 34zM962.001 124.001c0 -36.667 -14.001 -68.167 -42.001 -94.5s-65.667 -39.5 -113 -39.5c-53.333 0 -108 17.333 -164 52l35 50c46.667 -27.333 89.334 -41 128.001 -41
c26 0 46.667 6.66699 62 20s23 31 23 53c0 21.333 -8.16699 38.333 -24.5 51s-38.833 19 -67.5 19c-24.667 0 -42 -2.33301 -52 -7l-31 43l145 119h-199v59h285v-58l-129 -105h4c40.667 0 74.167 -11 100.5 -33s39.5 -51.333 39.5 -88z" />
    <glyph glyph-name="oneeighth" unicode="&#x215b;" horiz-adv-x="913" 
d="M165 680h53v-408h-69v323l-75 -55l-35 48zM626 695l54 -33l-476 -677l-53 34zM876 112c0 -36 -14.667 -65.333 -44 -88s-69 -34 -119 -34s-89.667 11.333 -119 34s-44 52 -44 88c0 24.667 6.83301 46.167 20.5 64.5s33.167 31.833 58.5 40.5
c-41.333 21.333 -62 52 -62 92c0 32 13.5 58.333 40.5 79s62.167 31 105.5 31s78.5 -10.333 105.5 -31s40.5 -47 40.5 -79c0 -40 -20.667 -70.667 -62 -92c52.667 -19.333 79 -54.333 79 -105zM632 303c0 -17.333 7.66797 -32 23.001 -44s34.666 -18 57.999 -18
c24 0 43.333 5.83301 58 17.5s22 26.5 22 44.5c0 17.333 -7.33301 31.666 -22 42.999s-34 17 -58 17s-43.5 -5.66699 -58.5 -17s-22.5 -25.666 -22.5 -42.999zM805.001 117c0 22 -8.00195 39.5 -24.002 52.5s-38.667 19.5 -68 19.5s-52.166 -6.5 -68.499 -19.5
s-24.5 -30.5 -24.5 -52.5c0 -20.667 8.33301 -37.167 25 -49.5s39.334 -18.5 68.001 -18.5s51.167 6.16699 67.5 18.5s24.5 28.833 24.5 49.5z" />
    </font>
</defs>
</svg>
